<svg width="1200" height="1200" viewBox="0 0 1200 1200" fill="none" xmlns="http://www.w3.org/2000/svg">
<rect x="200.314" y="200.314" width="800" height="800" rx="400" fill="#D4D4D4"/>
<path d="M638.791 966.417L635.655 936.573" stroke="#424242" stroke-width="4.23448" stroke-miterlimit="10"/>
<path d="M561.833 234.211L564.97 264.056" stroke="#424242" stroke-width="4.23448" stroke-miterlimit="10"/>
<path d="M638.791 234.211L635.655 264.056" stroke="#424242" stroke-width="4.23448" stroke-miterlimit="10"/>
<path d="M561.833 966.417L564.97 936.573" stroke="#424242" stroke-width="4.23448" stroke-miterlimit="10"/>
<path d="M523.77 240.206L530.01 269.562" stroke="#424242" stroke-width="4.23448" stroke-miterlimit="10"/>
<path d="M676.856 960.423L670.616 931.066" stroke="#424242" stroke-width="4.23448" stroke-miterlimit="10"/>
<path d="M486.542 250.163L495.816 278.707" stroke="#424242" stroke-width="4.23448" stroke-miterlimit="10"/>
<path d="M714.084 950.466L704.809 921.921" stroke="#424242" stroke-width="4.23448" stroke-miterlimit="10"/>
<path d="M750.062 936.659L737.854 909.239" stroke="#424242" stroke-width="4.23448" stroke-miterlimit="10"/>
<path d="M450.564 263.971L462.772 291.391" stroke="#424242" stroke-width="4.23448" stroke-miterlimit="10"/>
<path d="M816.676 898.114L799.038 873.836" stroke="#424242" stroke-width="4.23448" stroke-miterlimit="10"/>
<path d="M383.95 302.516L401.588 326.794" stroke="#424242" stroke-width="4.23448" stroke-miterlimit="10"/>
<path d="M354.015 326.773L374.093 349.073" stroke="#424242" stroke-width="4.23448" stroke-miterlimit="10"/>
<path d="M846.611 873.857L826.532 851.557" stroke="#424242" stroke-width="4.23448" stroke-miterlimit="10"/>
<path d="M326.77 354.016L349.07 374.095" stroke="#424242" stroke-width="4.23448" stroke-miterlimit="10"/>
<path d="M873.856 846.614L851.555 826.535" stroke="#424242" stroke-width="4.23448" stroke-miterlimit="10"/>
<path d="M302.514 383.951L326.791 401.589" stroke="#424242" stroke-width="4.23448" stroke-miterlimit="10"/>
<path d="M898.112 816.677L873.834 799.039" stroke="#424242" stroke-width="4.23448" stroke-miterlimit="10"/>
<path d="M936.656 750.065L909.236 737.857" stroke="#424242" stroke-width="4.23448" stroke-miterlimit="10"/>
<path d="M263.97 450.565L291.39 462.773" stroke="#424242" stroke-width="4.23448" stroke-miterlimit="10"/>
<path d="M250.161 486.543L278.706 495.818" stroke="#424242" stroke-width="4.23448" stroke-miterlimit="10"/>
<path d="M950.465 714.086L921.92 704.811" stroke="#424242" stroke-width="4.23448" stroke-miterlimit="10"/>
<path d="M960.421 676.859L931.065 670.619" stroke="#424242" stroke-width="4.23448" stroke-miterlimit="10"/>
<path d="M240.205 523.771L269.561 530.011" stroke="#424242" stroke-width="4.23448" stroke-miterlimit="10"/>
<path d="M966.417 638.794L936.571 635.657" stroke="#424242" stroke-width="4.23448" stroke-miterlimit="10"/>
<path d="M234.21 561.836L264.055 564.973" stroke="#424242" stroke-width="4.23448" stroke-miterlimit="10"/>
<path d="M234.21 638.794L264.055 635.657" stroke="#424242" stroke-width="4.23448" stroke-miterlimit="10"/>
<path d="M966.417 561.836L936.571 564.973" stroke="#424242" stroke-width="4.23448" stroke-miterlimit="10"/>
<path d="M240.205 676.859L269.561 670.619" stroke="#424242" stroke-width="4.23448" stroke-miterlimit="10"/>
<path d="M960.42 523.771L931.063 530.011" stroke="#424242" stroke-width="4.23448" stroke-miterlimit="10"/>
<path d="M250.161 714.086L278.706 704.811" stroke="#424242" stroke-width="4.23448" stroke-miterlimit="10"/>
<path d="M950.465 486.543L921.92 495.818" stroke="#424242" stroke-width="4.23448" stroke-miterlimit="10"/>
<path d="M291.39 737.857L263.97 750.065" stroke="#424242" stroke-width="4.23448" stroke-miterlimit="10"/>
<path d="M936.656 450.565L909.236 462.773" stroke="#424242" stroke-width="4.23448" stroke-miterlimit="10"/>
<path d="M898.112 383.951L873.834 401.589" stroke="#424242" stroke-width="4.23448" stroke-miterlimit="10"/>
<path d="M302.514 816.677L326.791 799.039" stroke="#424242" stroke-width="4.23448" stroke-miterlimit="10"/>
<path d="M873.856 354.016L851.555 374.095" stroke="#424242" stroke-width="4.23448" stroke-miterlimit="10"/>
<path d="M326.77 846.614L349.07 826.535" stroke="#424242" stroke-width="4.23448" stroke-miterlimit="10"/>
<path d="M846.611 326.773L826.532 349.073" stroke="#424242" stroke-width="4.23448" stroke-miterlimit="10"/>
<path d="M354.015 873.857L374.093 851.557" stroke="#424242" stroke-width="4.23448" stroke-miterlimit="10"/>
<path d="M383.95 898.114L401.588 873.837" stroke="#424242" stroke-width="4.23448" stroke-miterlimit="10"/>
<path d="M816.676 302.516L799.038 326.794" stroke="#424242" stroke-width="4.23448" stroke-miterlimit="10"/>
<path d="M450.564 936.659L462.772 909.239" stroke="#424242" stroke-width="4.23448" stroke-miterlimit="10"/>
<path d="M750.062 263.971L737.854 291.391" stroke="#424242" stroke-width="4.23448" stroke-miterlimit="10"/>
<path d="M714.084 250.163L704.809 278.707" stroke="#424242" stroke-width="4.23448" stroke-miterlimit="10"/>
<path d="M486.542 950.466L495.816 921.921" stroke="#424242" stroke-width="4.23448" stroke-miterlimit="10"/>
<path d="M523.77 960.423L530.01 931.066" stroke="#424242" stroke-width="4.23448" stroke-miterlimit="10"/>
<path d="M676.856 240.206L670.616 269.562" stroke="#424242" stroke-width="4.23448" stroke-miterlimit="10"/>
<path d="M814.373 600.315H968.415" stroke="#424242" stroke-width="7.19862" stroke-miterlimit="10"/>
<path d="M232.214 600.315H386.256" stroke="#424242" stroke-width="7.19862" stroke-miterlimit="10"/>
<path d="M600.315 814.373V968.415" stroke="#424242" stroke-width="7.19862" stroke-miterlimit="10"/>
<path d="M600.315 232.214V386.256" stroke="#424242" stroke-width="7.19862" stroke-miterlimit="10"/>
<path d="M416.239 281.487L493.27 414.91" stroke="#424242" stroke-width="7.19862" stroke-miterlimit="10"/>
<path d="M707.358 785.72L784.389 919.143" stroke="#424242" stroke-width="7.19862" stroke-miterlimit="10"/>
<path d="M281.487 416.239L414.91 493.27" stroke="#424242" stroke-width="7.19862" stroke-miterlimit="10"/>
<path d="M919.143 784.39L785.72 707.359" stroke="#424242" stroke-width="7.19862" stroke-miterlimit="10"/>
<path d="M785.72 493.27L919.143 416.239" stroke="#424242" stroke-width="7.19862" stroke-miterlimit="10"/>
<path d="M281.487 784.39L414.91 707.359" stroke="#424242" stroke-width="7.19862" stroke-miterlimit="10"/>
<path d="M707.358 414.91L784.389 281.487" stroke="#424242" stroke-width="7.19862" stroke-miterlimit="10"/>
<path d="M493.272 785.72L416.239 919.143" stroke="#424242" stroke-width="7.19862" stroke-miterlimit="10"/>
<path d="M600.629 428.442C598.515 428.442 596.714 427.866 595.226 426.716C593.738 425.555 592.602 423.876 591.816 421.677C591.03 419.469 590.637 416.802 590.637 413.677C590.637 410.571 591.03 407.918 591.816 405.72C592.611 403.511 593.752 401.827 595.24 400.667C596.737 399.497 598.534 398.913 600.629 398.913C602.725 398.913 604.517 399.497 606.005 400.667C607.502 401.827 608.643 403.511 609.429 405.72C610.224 407.918 610.622 410.571 610.622 413.677C610.622 416.802 610.229 419.469 609.443 421.677C608.657 423.876 607.52 425.555 606.033 426.716C604.545 427.866 602.744 428.442 600.629 428.442ZM600.629 425.354C602.725 425.354 604.353 424.344 605.513 422.323C606.674 420.302 607.254 417.42 607.254 413.677C607.254 411.188 606.987 409.069 606.454 407.32C605.93 405.57 605.172 404.237 604.18 403.32C603.198 402.403 602.014 401.944 600.629 401.944C598.552 401.944 596.929 402.969 595.759 405.018C594.59 407.058 594.005 409.944 594.005 413.677C594.005 416.166 594.267 418.281 594.791 420.021C595.315 421.761 596.068 423.085 597.051 423.993C598.042 424.9 599.235 425.354 600.629 425.354Z" fill="#424242"/>
<path d="M755.502 521.5V518.974L764.989 508.588C766.103 507.372 767.02 506.314 767.74 505.416C768.461 504.509 768.994 503.657 769.34 502.862C769.696 502.057 769.874 501.215 769.874 500.336C769.874 499.325 769.63 498.45 769.144 497.711C768.667 496.972 768.012 496.401 767.179 495.999C766.346 495.597 765.411 495.395 764.372 495.395C763.268 495.395 762.304 495.625 761.481 496.083C760.667 496.532 760.035 497.164 759.586 497.978C759.146 498.792 758.926 499.746 758.926 500.841H755.614C755.614 499.157 756.003 497.678 756.779 496.406C757.556 495.133 758.613 494.142 759.951 493.43C761.298 492.719 762.809 492.364 764.484 492.364C766.168 492.364 767.661 492.719 768.961 493.43C770.262 494.142 771.282 495.101 772.021 496.308C772.76 497.515 773.13 498.857 773.13 500.336C773.13 501.393 772.938 502.427 772.554 503.437C772.18 504.438 771.525 505.557 770.589 506.792C769.663 508.017 768.377 509.514 766.73 511.283L760.274 518.188V518.412H773.635V521.5H755.502Z" fill="#424242"/>
<path d="M754.828 705.34V702.477L767.46 682.491H769.537V686.926H768.133L758.59 702.028V702.252H775.6V705.34H754.828ZM768.358 711.235V704.47V703.137V682.491H771.67V711.235H768.358Z" fill="#424242"/>
<path d="M600.798 799.415C599.619 799.396 598.44 799.172 597.261 798.742C596.082 798.311 595.006 797.586 594.033 796.566C593.06 795.537 592.279 794.147 591.689 792.398C591.1 790.639 590.805 788.431 590.805 785.773C590.805 783.228 591.044 780.974 591.521 779.009C591.998 777.034 592.69 775.374 593.598 774.026C594.506 772.67 595.6 771.64 596.882 770.939C598.173 770.237 599.628 769.886 601.247 769.886C602.856 769.886 604.288 770.209 605.542 770.854C606.805 771.491 607.834 772.38 608.629 773.521C609.424 774.663 609.939 775.977 610.173 777.465H606.749C606.43 776.174 605.813 775.102 604.896 774.251C603.979 773.399 602.763 772.974 601.247 772.974C599.02 772.974 597.266 773.942 595.984 775.879C594.711 777.816 594.07 780.534 594.061 784.033H594.286C594.81 783.238 595.432 782.559 596.152 781.998C596.882 781.427 597.687 780.988 598.566 780.679C599.446 780.37 600.377 780.216 601.359 780.216C603.006 780.216 604.512 780.627 605.878 781.451C607.244 782.265 608.339 783.392 609.163 784.833C609.986 786.265 610.398 787.907 610.398 789.759C610.398 791.537 610 793.165 609.205 794.643C608.409 796.112 607.291 797.282 605.85 798.152C604.419 799.013 602.735 799.434 600.798 799.415ZM600.798 796.328C601.977 796.328 603.034 796.033 603.97 795.443C604.915 794.854 605.659 794.063 606.201 793.071C606.753 792.08 607.029 790.976 607.029 789.759C607.029 788.571 606.763 787.49 606.229 786.517C605.705 785.535 604.98 784.754 604.054 784.173C603.137 783.593 602.089 783.303 600.91 783.303C600.021 783.303 599.193 783.481 598.426 783.837C597.659 784.183 596.985 784.66 596.405 785.268C595.834 785.876 595.385 786.573 595.058 787.359C594.73 788.136 594.566 788.955 594.566 789.815C594.566 790.957 594.833 792.024 595.366 793.015C595.909 794.007 596.648 794.807 597.584 795.415C598.529 796.023 599.6 796.328 600.798 796.328Z" fill="#424242"/>
<path d="M436.213 711.628C434.286 711.628 432.583 711.286 431.105 710.603C429.636 709.911 428.489 708.961 427.666 707.754C426.843 706.538 426.436 705.153 426.445 703.6C426.436 702.383 426.674 701.261 427.161 700.231C427.647 699.193 428.312 698.327 429.154 697.635C430.005 696.933 430.955 696.489 432.003 696.302V696.133C430.627 695.778 429.533 695.006 428.719 693.817C427.905 692.62 427.502 691.258 427.512 689.733C427.502 688.274 427.872 686.969 428.62 685.818C429.369 684.667 430.398 683.759 431.708 683.095C433.027 682.431 434.529 682.098 436.213 682.098C437.879 682.098 439.366 682.431 440.676 683.095C441.986 683.759 443.015 684.667 443.764 685.818C444.522 686.969 444.905 688.274 444.915 689.733C444.905 691.258 444.489 692.62 443.666 693.817C442.852 695.006 441.771 695.778 440.424 696.133V696.302C441.462 696.489 442.398 696.933 443.231 697.635C444.063 698.327 444.728 699.193 445.223 700.231C445.719 701.261 445.972 702.383 445.981 703.6C445.972 705.153 445.551 706.538 444.718 707.754C443.895 708.961 442.749 709.911 441.28 710.603C439.82 711.286 438.131 711.628 436.213 711.628ZM436.213 708.54C437.514 708.54 438.637 708.329 439.582 707.908C440.527 707.487 441.256 706.893 441.771 706.126C442.286 705.359 442.548 704.461 442.557 703.431C442.548 702.346 442.267 701.387 441.715 700.554C441.163 699.721 440.41 699.066 439.455 698.589C438.51 698.112 437.43 697.874 436.213 697.874C434.987 697.874 433.893 698.112 432.929 698.589C431.975 699.066 431.221 699.721 430.669 700.554C430.127 701.387 429.86 702.346 429.869 703.431C429.86 704.461 430.108 705.359 430.613 706.126C431.128 706.893 431.862 707.487 432.817 707.908C433.771 708.329 434.903 708.54 436.213 708.54ZM436.213 694.898C437.242 694.898 438.155 694.692 438.95 694.281C439.755 693.869 440.386 693.294 440.845 692.554C441.303 691.815 441.537 690.95 441.546 689.958C441.537 688.985 441.308 688.138 440.859 687.418C440.41 686.688 439.787 686.126 438.992 685.733C438.197 685.331 437.27 685.13 436.213 685.13C435.137 685.13 434.197 685.331 433.392 685.733C432.588 686.126 431.965 686.688 431.526 687.418C431.086 688.138 430.871 688.985 430.88 689.958C430.871 690.95 431.09 691.815 431.54 692.554C431.998 693.294 432.63 693.869 433.434 694.281C434.239 694.692 435.165 694.898 436.213 694.898Z" fill="#424242"/>
<path d="M437.111 492.757V521.5H433.631V496.406H433.462L426.445 501.065V497.529L433.631 492.757H437.111ZM454.753 521.893C452.639 521.893 450.837 521.318 449.35 520.167C447.862 519.006 446.725 517.327 445.939 515.128C445.153 512.92 444.76 510.253 444.76 507.128C444.76 504.022 445.153 501.369 445.939 499.171C446.735 496.963 447.876 495.278 449.364 494.118C450.861 492.949 452.657 492.364 454.753 492.364C456.849 492.364 458.641 492.949 460.128 494.118C461.625 495.278 462.767 496.963 463.553 499.171C464.348 501.369 464.746 504.022 464.746 507.128C464.746 510.253 464.353 512.92 463.567 515.128C462.781 517.327 461.644 519.006 460.156 520.167C458.669 521.318 456.868 521.893 454.753 521.893ZM454.753 518.805C456.849 518.805 458.477 517.795 459.637 515.774C460.797 513.753 461.377 510.871 461.377 507.128C461.377 504.64 461.111 502.52 460.577 500.771C460.054 499.021 459.296 497.688 458.304 496.771C457.321 495.854 456.138 495.395 454.753 495.395C452.676 495.395 451.053 496.42 449.883 498.469C448.713 500.509 448.129 503.395 448.129 507.128C448.129 509.617 448.391 511.732 448.915 513.472C449.439 515.212 450.192 516.536 451.174 517.444C452.166 518.352 453.359 518.805 454.753 518.805Z" fill="#424242"/>
<path d="M644.677 904.533L650.961 903.482L657.245 902.43L606.516 599.284L593.948 601.387L644.677 904.533Z" fill="black"/>
<path d="M420.942 651.151L422.676 657.282L601.98 606.572L598.512 594.31L419.208 645.019L420.942 651.151Z" fill="black"/>
<path d="M563.18 539.15L761.41 882.494L764.32 880.814L566.09 537.47L563.18 539.15Z" fill="black"/>
<path d="M615.995 591.144C611.007 582.505 599.961 579.545 591.322 584.533C582.683 589.52 579.724 600.567 584.711 609.205C589.699 617.844 600.745 620.804 609.384 615.816C618.023 610.829 620.982 599.783 615.995 591.144Z" fill="black"/>
</svg>
