<svg width="1200" height="1200" viewBox="0 0 1200 1200" fill="none" xmlns="http://www.w3.org/2000/svg">
<g clip-path="url(#clip0_49_2)">
<g clip-path="url(#clip1_49_2)">
<path d="M669.12 788.681H669.16H669.2H669.24H669.32H669.36H669.44H669.52H669.6H669.719H669.799H669.919H670.039H670.139H670.299H670.459H670.579H670.739H670.939H671.079H671.279H671.439H671.639H671.879H672.079H672.299H672.499H672.739H673.019H673.259H673.519H673.759H674.039H674.298H674.618H674.898H675.218H675.518H675.838H676.158H676.458H676.818H677.178H677.498H677.878H678.238H678.578H678.977H679.377H679.757H680.157H680.557H680.977H681.377H681.797H682.237H682.677H683.137H683.576H684.036H684.516H684.996H685.456H685.976H686.476H686.956H687.496H688.015H688.515H689.075H689.615H690.135H690.675H691.275H691.815H692.375H692.954H693.554H694.094H694.674H695.314H695.894H696.494H697.113H697.713H698.333H698.953H699.593H700.213H700.853H701.473H702.112H702.772H703.392H704.072H704.732H705.412H706.072H706.731H707.411H708.071H708.731H709.451H710.111H710.79H711.49H712.19H712.87H713.57H714.27H714.99H715.689H716.389H717.109H717.809H718.509H719.229H719.928H720.668H721.388H722.128H722.828H723.548H724.288H724.987H725.747H726.567H727.387H728.207H729.006H729.826H730.646H731.466H732.286H733.126H733.945H734.765H735.165H735.545H735.985H736.385H736.805H737.205H737.645H738.025H738.424H738.844H739.244H739.644H740.064H740.464H740.904H741.284H741.684H742.104H742.504H742.903H743.283H743.723H744.123H744.503H744.903H745.323H745.723H746.123H746.503H746.903H747.302H747.722H748.122H748.502H748.902H749.302H749.682H750.082H750.482H750.862H751.262H751.642H752.041H752.441H752.781H753.181H753.581H753.961H754.361H754.721H755.101H755.501H755.861H756.241H756.64H757H757.38H757.74H758.14H758.48H758.84H759.24H759.58H759.94H760.32H760.68H761.039H761.399H761.779H762.139H762.479H762.839H763.199H763.539H763.899H764.259H764.619H764.959H765.279H765.638H765.978H766.338H766.658H766.998H767.358H767.678H768.018H768.338H768.698H768.998H769.318H769.678H769.998H770.297H770.657H770.977H771.277H771.597H771.917H772.217H772.537H772.857H773.157H773.477H773.757H774.077H774.696H775.276H775.876H776.416H777.016H777.556H778.156H778.696H779.215H779.755H780.275H780.775H781.295H781.795H782.315H782.775H783.255H783.734H784.154H784.634H785.054H785.494H785.934H786.314H786.754H787.134H787.534H787.894H788.254H788.633H788.953H789.293H789.613H789.973H790.253H790.553H790.833H791.113H791.393H791.533H791.653H791.773H791.893H792.013H792.133H792.253H792.373H792.493H792.593H792.673H792.792H792.873H792.992H793.072H793.192H793.272H793.352H793.432H793.512H793.592H793.652H793.732H793.812H793.892H793.932H794.012H794.092H794.132H794.172H794.252H794.292H794.332H794.372H794.412H794.452H794.492H794.532H794.572H794.612H794.632H794.672H794.712" stroke="#A3A3A3" stroke-width="2" stroke-linecap="round" stroke-linejoin="round"/>
<path d="M872.975 652.18V773.569" stroke="#A3A3A3" stroke-width="2" stroke-linecap="round" stroke-linejoin="round"/>
<path d="M894.57 652.18V773.569V773.809V774.049V774.289V774.469V774.709V774.949V775.188V775.428V775.608V775.848V776.088V776.328V776.528V776.748V776.987V777.187V777.427V777.647V777.847V778.087V778.327V778.526V778.766V778.946V779.186V779.386V779.626V779.826V780.046V780.245V780.485V780.685V780.885V781.105V781.305V781.505V781.745V781.944V782.124V782.324V782.524V782.724V782.924V783.124V783.304V783.504V783.703V783.903V784.083V784.243V784.443V784.643V784.803V785.003V785.163V785.343V785.502V785.702V785.862V786.022V786.222V786.362V786.522V786.682" stroke="#A3A3A3" stroke-width="2" stroke-linecap="round" stroke-linejoin="round"/>
<path d="M872.955 773.509C872.957 778.428 874.913 783.145 878.394 786.622" stroke="#A3A3A3" stroke-width="2" stroke-linecap="round" stroke-linejoin="round"/>
<path d="M878.394 786.682L880.393 788.68H880.433H880.473H880.513H880.553H880.593H880.653H880.733H880.813H880.893H880.973H881.093H881.213H881.333H881.453H881.573H881.733H881.833H881.993H882.153H882.313H882.513H882.673H882.853H883.013H883.213H883.413H883.613H883.853H884.033H884.273H884.512H884.712H884.952H885.212H885.452H885.692H885.972H886.232H886.512H886.792H887.072H887.372H887.652H887.972H888.272H888.592H888.911H889.251H889.571H889.931H890.271H890.631H890.991H891.351H891.731H892.131H892.511H892.711H892.911H893.111H893.31H893.49H893.73H893.93H894.13H894.37H894.57V788.181V787.701V786.682" stroke="#A3A3A3" stroke-width="2" stroke-linecap="round" stroke-linejoin="round"/>
<path d="M819.107 729.735V730.215V730.674V731.154L819.067 731.614V732.093V732.553L819.027 733.033L818.987 733.513V733.972L818.947 734.452L818.907 734.912L818.867 735.392L818.827 735.851L818.787 736.331L818.747 736.851L818.707 737.31L818.627 737.79L818.587 738.25L818.507 738.77L818.467 739.229L818.387 739.709L818.307 740.209L818.267 740.688L818.207 741.148L818.127 741.668L818.047 742.148L817.967 742.647L817.847 743.127L817.767 743.627L817.687 744.106L817.567 744.606L817.487 745.086L817.367 745.586L817.287 746.065L817.167 746.585L817.067 747.045L816.947 747.545L816.827 748.024L816.707 748.544L816.587 749.004L816.467 749.523L816.347 749.983L816.207 750.503L816.088 750.963L815.928 751.482L815.808 751.962L815.648 752.462L815.488 752.941L815.368 753.441L815.208 753.921L815.048 754.421L814.908 754.9L814.748 755.4L814.548 755.88L814.388 756.379L814.228 756.859L814.068 757.359L813.888 757.839L813.728 758.318L813.528 758.818L813.328 759.298L813.128 759.797L812.988 760.277L812.788 760.737L812.588 761.217L812.388 761.716L812.188 762.196L811.948 762.656L811.768 763.135L811.569 763.655L811.329 764.115L811.129 764.595L810.889 765.054L810.709 765.534L810.469 765.994L810.229 766.473L809.989 766.953L809.769 767.413L809.529 767.893L809.289 768.352L809.049 768.832L808.809 769.292L808.589 769.772L808.309 770.211L808.069 770.671L807.829 771.151L807.549 771.611L807.289 772.05L807.049 772.51L806.77 772.95L806.51 773.429L806.23 773.849L805.95 774.329L805.67 774.749L805.39 775.188L805.13 775.648L804.85 776.088L804.53 776.528L804.27 776.947L803.99 777.387L803.67 777.847L803.35 778.287L803.09 778.686L802.77 779.106L802.45 779.546L802.131 779.966L801.871 780.405L801.551 780.805L801.231 781.225L800.891 781.665L800.571 782.044L800.251 782.484L799.951 782.884L799.591 783.264L799.271 783.703L798.911 784.083L798.611 784.483L798.251 784.883L797.892 785.263L797.592 785.662L797.232 786.062L796.872 786.442L796.532 786.802L796.172 787.201L795.812 787.581L795.472 787.941L795.072 788.341L794.712 788.681" stroke="#A3A3A3" stroke-width="2" stroke-linecap="round" stroke-linejoin="round"/>
<path d="M669.12 788.681L668.74 788.341L668.38 787.941L668.02 787.581L667.68 787.201L667.32 786.802L666.96 786.442L666.62 786.062L666.26 785.662L665.9 785.263L665.6 784.883L665.24 784.483L664.88 784.083L664.561 783.703L664.221 783.264L663.901 782.884L663.581 782.484L663.281 782.044L662.921 781.665L662.601 781.225L662.301 780.805L661.981 780.405L661.661 779.966L661.341 779.546L661.081 779.106L660.761 778.686L660.441 778.287L660.181 777.847L659.862 777.387L659.582 776.947L659.282 776.528L659.002 776.088L658.722 775.648L658.442 775.188L658.162 774.749L657.902 774.329L657.622 773.849L657.342 773.429L657.062 772.95L656.802 772.51L656.522 772.05L656.282 771.61L656.022 771.151L655.782 770.671L655.502 770.211L655.263 769.772L655.023 769.292L654.803 768.832L654.523 768.352L654.283 767.893L654.043 767.413L653.803 766.953L653.623 766.473L653.383 765.994L653.143 765.534L652.943 765.054L652.723 764.595L652.483 764.115L652.283 763.655L652.083 763.135L651.843 762.656L651.663 762.196L651.463 761.716L651.263 761.217L651.063 760.737L650.864 760.277L650.664 759.797L650.524 759.298L650.324 758.818L650.124 758.318L649.964 757.839L649.764 757.359L649.604 756.859L649.464 756.379L649.264 755.88L649.104 755.4L648.944 754.9L648.784 754.42L648.624 753.921L648.464 753.441L648.324 752.941L648.204 752.462L648.044 751.962L647.884 751.482L647.764 750.963L647.604 750.503L647.484 749.983L647.384 749.523L647.264 749.004L647.144 748.544L646.984 748.024L646.904 747.544L646.784 747.045L646.664 746.585L646.544 746.065L646.425 745.586L646.345 745.086L646.245 744.606L646.165 744.106L646.085 743.627L645.965 743.127L645.885 742.647L645.805 742.148L645.725 741.668L645.645 741.148L645.565 740.688L645.485 740.209L645.445 739.709L645.365 739.229L645.305 738.77L645.265 738.25L645.185 737.79L645.145 737.31L645.105 736.851L645.065 736.331L645.025 735.851L644.985 735.392L644.945 734.912L644.905 734.452L644.865 733.972L644.825 733.513V733.033L644.785 732.553V732.093L644.745 731.614V731.154V730.674V730.215V729.735V652.18" stroke="#A3A3A3" stroke-width="2" stroke-linecap="round" stroke-linejoin="round"/>
<path d="M742.583 705.449H742.623H742.663H742.703H742.743H742.783L742.144 706.708L741.524 707.948L740.904 709.207L740.264 710.466L739.644 711.725L739.004 712.985L738.384 714.244L737.744 715.443L737.125 716.702L736.505 717.962L735.865 719.221L735.245 720.48L734.605 721.74L733.985 722.979L733.365 724.238L732.726 725.497" stroke="#A3A3A3" stroke-width="2" stroke-linecap="round" stroke-linejoin="round"/>
<path d="M740.304 705.409H740.344H740.384L740.424 705.449H740.464H740.504H740.584H740.924H741.604" stroke="#A3A3A3" stroke-width="2" stroke-linecap="round" stroke-linejoin="round"/>
<path d="M741.684 705.449H742.583" stroke="#A3A3A3" stroke-width="2" stroke-linecap="round" stroke-linejoin="round"/>
<path d="M731.906 723.699L731.866 723.539L731.826 723.459V723.419L731.786 723.379V723.339L731.746 723.299V723.219L731.706 723.179L731.666 723.059L731.626 722.919L731.586 722.859V722.839L731.546 722.759V722.719H731.506V722.679V722.639V722.599V722.559V722.519V722.479H731.546V722.439L731.626 722.279L731.906 721.7" stroke="#A3A3A3" stroke-width="2" stroke-linecap="round" stroke-linejoin="round"/>
<path d="M732.686 725.497L732.266 724.518L731.906 723.618L731.706 723.139L731.586 722.919L731.546 722.799V722.759V722.719H731.506V722.679V722.639V722.599V722.559V722.519V722.479H731.546V722.439L731.626 722.239L731.826 721.879L732.486 720.56L733.205 719.181L733.905 717.802L734.505 716.662L735.045 715.483L735.625 714.364L736.225 713.224L737.005 711.685L737.784 710.146" stroke="#A3A3A3" stroke-width="2" stroke-linecap="round" stroke-linejoin="round"/>
<path d="M742.944 717.562H743.023V717.602V717.642V717.682V717.722V717.802V717.882V717.962V718.082V718.162V718.282V718.402V718.521V718.621V718.781V718.901V719.061V719.341V719.661V719.921V720.2V720.36V720.48V720.6V720.72V721.22V723.099V723.579V723.818V723.918V723.998V724.038V724.078V724.118V724.158V724.198V724.278V724.398V724.478V724.678V724.798V724.878V724.958V724.998V725.038V725.058V725.098V725.138V725.178V725.218V725.258V725.298L742.983 725.337V725.377H742.944H742.904H742.864H742.823H742.783H742.744H742.704H742.624H742.584H742.504H742.464H742.384H742.304H742.224H742.144H742.064H741.944H741.884H741.764H741.684H741.484H741.244H741.004H740.584" stroke="#A3A3A3" stroke-width="2" stroke-linecap="round" stroke-linejoin="round"/>
<path d="M742.944 717.602V717.642V717.682V717.722V717.762V717.802V717.842V717.922V717.962V718.042V718.082V718.162V718.242V718.282V718.362V718.442V718.601V718.781V718.941V719.141V719.341V719.541V719.721V719.961V720.36V720.8V721.22V721.46V721.66V721.86V722.039V722.159V722.199V722.239V722.279V722.319V722.359V722.399V722.439V722.519V722.559V722.639V722.679V722.759V722.919V723.059V723.219V723.379V723.539V723.898V724.038V724.198V724.358V724.518V724.638V724.718V724.798V724.838V724.918V724.958V724.998V725.038V725.058V725.098V725.138V725.178V725.218V725.258V725.298L742.904 725.338L742.864 725.378H742.824H742.784H742.744H742.704H742.664" stroke="#A3A3A3" stroke-width="2" stroke-linecap="round" stroke-linejoin="round"/>
<path d="M741.564 725.377H741.044H740.544H740.584H740.544H740.504H740.464H740.424V725.337H740.384V725.297V725.257H740.344V725.218V725.178V725.138V725.098V725.058V725.038V724.998V724.878V724.798V724.678V724.518V724.398V724.118V723.898V723.738V723.618V723.499V723.379V723.259V723.139V723.099V723.059V723.019V722.979V722.959V722.919V722.859" stroke="#A3A3A3" stroke-width="2" stroke-linecap="round" stroke-linejoin="round"/>
<path d="M725.067 725.497H724.207H723.348H722.408V705.449" stroke="#A3A3A3" stroke-width="2" stroke-linecap="round" stroke-linejoin="round"/>
<path d="M722.488 725.497V705.449" stroke="#A3A3A3" stroke-width="2" stroke-linecap="round" stroke-linejoin="round"/>
<path d="M737.785 710.146L738.385 709.007L738.924 707.868L739.524 706.708L739.824 706.148L739.984 705.829L740.024 705.729L740.064 705.669V705.649L740.104 705.609V705.569L740.144 705.529V705.489H740.184L740.224 705.449H740.264L740.304 705.409H740.344H740.384H740.464L740.784 705.449H741.404H742.024H742.664H742.704H742.744H742.784H742.824H742.864H742.784" stroke="#A3A3A3" stroke-width="2" stroke-linecap="round" stroke-linejoin="round"/>
<path d="M742.863 705.449L742.223 706.708L741.604 707.948L740.964 709.207L740.304 710.466L739.684 711.725L739.044 712.985L738.424 714.244L737.784 715.443L737.165 716.702L736.545 717.962L735.905 719.221L735.285 720.48L734.645 721.74L733.985 722.979L733.365 724.238L732.726 725.497H732.686" stroke="#A3A3A3" stroke-width="2" stroke-linecap="round" stroke-linejoin="round"/>
<path d="M740.344 722.859L740.384 722.839V722.759V722.719L740.424 722.639V722.559H740.464V722.519V722.479L740.504 722.439L740.664 722.079L741.404 720.64L742.144 719.141L742.903 717.682L742.943 717.602L742.983 717.562H743.023" stroke="#A3A3A3" stroke-width="2" stroke-linecap="round" stroke-linejoin="round"/>
<path d="M722.408 705.449H723.348H724.207H725.067V725.497" stroke="#A3A3A3" stroke-width="2" stroke-linecap="round" stroke-linejoin="round"/>
<path d="M819.107 729.735V652.18V603.128" stroke="#A3A3A3" stroke-width="2" stroke-linecap="round" stroke-linejoin="round"/>
<path d="M644.745 652.18V603.128" stroke="#A3A3A3" stroke-width="2" stroke-linecap="round" stroke-linejoin="round"/>
<path d="M894.57 596.113V652.18" stroke="#A3A3A3" stroke-width="2" stroke-linecap="round" stroke-linejoin="round"/>
<path d="M872.975 596.113V652.18" stroke="#A3A3A3" stroke-width="2" stroke-linecap="round" stroke-linejoin="round"/>
<path d="M819.107 603.129V602.149V601.17L819.067 600.19V599.251L819.027 598.271V597.312L818.987 596.372L818.947 595.433L818.867 594.534L818.827 593.594L818.787 592.695L818.707 591.775L818.627 590.876L818.587 589.976L818.507 589.117L818.387 588.217L818.307 587.358L818.247 586.498L818.127 585.619L818.047 584.759L817.927 583.94L817.807 583.12L817.687 582.241L817.527 581.421L817.407 580.602L817.287 579.822L817.147 578.983L816.987 578.203L816.827 577.384L816.667 576.604L816.507 575.804L816.347 575.065L816.147 574.285L816.007 573.526L815.807 572.746L815.607 572.007L815.448 571.267L815.248 570.508L815.028 569.768L814.828 569.068L814.628 568.309L814.388 567.609L814.188 566.91L813.968 566.19L813.728 565.49L813.528 564.791L813.288 564.071L813.048 563.412L812.788 562.712L812.548 562.032L812.308 561.373L812.028 560.693L811.808 560.034L811.528 559.374L811.288 558.694L811.008 558.035L810.749 557.415L810.469 556.776L810.189 556.116L809.909 555.476L809.649 554.857L809.369 554.237L809.089 553.597L808.809 552.978L808.509 552.378L808.229 551.758L807.949 551.119L807.629 550.539L807.369 549.959L807.049 549.32L806.769 548.74L806.469 548.141L806.19 547.561L805.87 546.961L805.59 546.382L805.29 545.782L804.69 544.643L804.11 543.463L803.51 542.344L802.93 541.245L802.37 540.105L801.79 539.006L801.511 538.406L801.231 537.866L800.971 537.307L800.691 536.767L800.411 536.207L800.131 535.668L799.911 535.108L799.631 534.568L799.391 534.009L799.111 533.469L798.891 532.909L798.651 532.37L798.411 531.81L798.171 531.27L797.931 530.711L797.751 530.171L797.511 529.651L797.311 529.112L797.112 528.552L796.912 528.012L796.732 527.453L796.532 526.913L796.372 526.353L796.212 525.774L796.012 525.214L795.892 524.674L795.752 524.134L795.632 523.575L795.472 523.035L795.392 522.435L795.272 521.896L795.152 521.296L795.072 520.756L795.032 520.477L794.992 520.197V519.877L794.952 519.617L794.912 519.337L794.872 519.017V518.758L794.832 518.478V518.158V517.878L794.792 517.578V517.298V516.979V516.699V516.519V516.359L794.832 516.159V515.959L794.872 515.759V515.559L794.912 515.38L794.952 515.18L794.992 514.98L795.072 514.78L795.112 514.58L795.152 514.4L795.232 514.16L795.312 513.96L795.392 513.761L795.432 513.521L795.512 513.341L795.632 513.141L795.712 512.901L795.772 512.701L795.852 512.461L795.972 512.281L796.052 512.042L796.172 511.842L796.292 511.602L796.412 511.402L796.492 511.182L796.612 510.982L796.732 510.742L796.852 510.502L797.112 510.083L797.351 509.643L797.631 509.203L797.891 508.743L798.211 508.304L798.491 507.884L798.811 507.444L799.071 507.004L799.391 506.545L799.711 506.105L800.011 505.685L800.371 505.285L800.691 504.846L801.011 504.426L801.351 504.026L801.671 503.606L802.03 503.207L802.33 502.807L802.69 502.427L803.01 502.027L803.35 501.668L803.67 501.328L804.03 500.968L804.35 500.608L804.69 500.268L805.01 499.949L805.33 499.589L805.51 499.429L805.67 499.289L805.83 499.169L805.99 499.009L806.15 498.849L806.309 498.689L806.469 498.569L806.609 498.409L806.769 498.29L806.929 498.19L807.049 498.03L807.209 497.91L807.369 497.79L807.509 497.67L807.669 497.55L807.789 497.43L807.949 497.31L808.109 497.21L808.229 497.13L808.389 497.01L808.549 496.93L808.649 496.81L808.809 496.73L808.929 496.65L809.089 496.571L809.209 496.491L809.369 496.411L809.489 496.331L809.609 496.291L809.729 496.211L809.869 496.151L809.989 496.111L810.109 496.071L810.229 495.991L810.349 495.951L810.469 495.911L810.589 495.871H810.709L810.808 495.831L810.928 495.791H811.048L811.168 495.751H811.288H811.408" stroke="#A3A3A3" stroke-width="2" stroke-linecap="round" stroke-linejoin="round"/>
<path d="M811.408 469.446L810.928 469.386L810.469 469.266L809.989 469.186L809.529 469.106L809.049 469.026L808.589 468.906L808.109 468.826L807.629 468.746L807.169 468.667L806.689 468.627L806.229 468.547L805.75 468.467L805.29 468.387L804.85 468.307L804.39 468.267L803.91 468.207L803.47 468.167L803.01 468.087L802.53 468.047L802.11 467.967L801.67 467.927L801.191 467.847L800.771 467.807L800.331 467.727L799.871 467.687L799.431 467.607L799.011 467.567L798.571 467.487L798.171 467.447L797.751 467.367L797.311 467.327L796.872 467.247L796.052 467.127L795.232 467.027L794.372 466.908L793.532 466.788L792.712 466.668L791.853 466.508L790.993 466.388L790.173 466.228L789.293 466.128L788.433 465.968L787.574 465.808L786.714 465.648L785.854 465.488L784.934 465.328L784.074 465.129L783.175 464.989L782.315 464.789L781.415 464.589L780.515 464.429L779.615 464.189L779.175 464.109L778.696 463.989L778.276 463.909L777.796 463.809L777.376 463.689L776.896 463.569L776.456 463.45L775.996 463.37L775.516 463.25L775.096 463.13L774.616 463.01L774.156 462.91L773.717 462.75L773.237 462.63L772.777 462.51L772.297 462.39L771.877 462.23L771.397 462.11L770.937 461.99L770.457 461.85L769.997 461.731L769.558 461.571L769.078 461.411L768.618 461.291L768.138 461.131L767.678 460.971L767.198 460.811L766.738 460.671L766.258 460.511L765.778 460.351L765.318 460.191L764.839 460.032L764.379 459.872L763.899 459.712L763.479 459.532L762.999 459.372L762.519 459.172L762.059 459.012L761.579 458.812L761.119 458.652L760.639 458.472L760.18 458.273L759.7 458.073L759.24 457.913L758.8 457.713L758.32 457.533L757.86 457.333L757.42 457.133L756.96 456.933L756.48 456.733L756.04 456.534L755.581 456.354L755.101 456.154L754.641 455.914L754.201 455.714L753.741 455.514" stroke="#A3A3A3" stroke-width="2" stroke-linecap="round" stroke-linejoin="round"/>
<path d="M811.408 495.751H811.528H811.648H811.808H811.908L812.068 495.791H812.188L812.308 495.831L812.468 495.871L812.628 495.911L812.748 495.951L812.888 495.991L813.048 496.071L813.208 496.111L813.368 496.171L813.528 496.251L813.728 496.331L813.888 496.451L814.068 496.531L814.148 496.61L814.228 496.65L814.348 496.73L814.428 496.77L814.548 496.85L814.628 496.93L814.748 497.01L814.868 497.05L814.948 497.13L815.048 497.21L815.168 497.29L815.288 497.35L815.408 497.47L815.528 497.55L815.648 497.63L815.768 497.71L815.888 497.83L816.007 497.91L816.127 498.03L816.227 498.11L816.387 498.23L816.507 498.349L816.627 498.449L816.787 498.569L816.947 498.689L817.067 498.809L817.227 498.929L817.367 499.049L817.487 499.169L817.647 499.329L817.807 499.429L817.967 499.549L818.127 499.709L818.267 499.869L818.427 499.989L818.627 500.148L818.787 500.308L818.947 500.448L819.147 500.608L819.307 500.768L819.487 500.928L819.647 501.128L819.847 501.288L820.047 501.448L820.247 501.628L820.427 501.787L820.626 501.987L820.826 502.187L821.026 502.387L821.226 502.587L821.426 502.767L821.646 502.967L821.846 503.167L822.086 503.367L822.286 503.606L822.526 503.786L822.746 503.986L822.946 504.226L823.186 504.466L823.426 504.706L823.646 504.886L823.886 505.126L824.166 505.365L824.406 505.645L824.646 505.865L824.906 506.105L825.145 506.385L825.425 506.625L825.665 506.904L825.925 507.124L826.205 507.404L826.485 507.684L826.765 507.944L827.025 508.224L827.305 508.504L827.585 508.783L827.865 509.083L828.125 509.363L828.445 509.683L828.725 509.963L829.025 510.263L829.305 510.582L829.624 510.902L829.944 511.202L830.204 511.522L830.524 511.842L830.844 512.161L831.144 512.501L831.464 512.821L831.784 513.181L832.144 513.481L832.444 513.84L832.764 514.2L833.124 514.54L833.424 514.9L833.784 515.26L834.104 515.639L834.463 515.999L834.803 516.359L835.163 516.739L835.483 517.139L835.823 517.538L836.183 517.878L836.523 518.278L836.923 518.698L837.283 519.097L837.623 519.497L837.983 519.877L838.383 520.317L838.742 520.756L839.082 521.136L839.482 521.576L839.842 521.996L840.222 522.435L840.582 522.875L840.962 523.335L841.362 523.775L841.762 524.194L842.102 524.674L842.502 525.154L842.902 525.614L843.281 526.053L843.681 526.513L844.081 527.033L844.461 527.493L844.861 527.972L845.241 528.472L845.641 528.952L846.041 529.471L846.421 529.971L846.821 530.491L847.261 530.99L847.641 531.51L848.04 532.01L848.42 532.53L848.82 533.069L849.26 533.629L849.64 534.129L850.04 534.688L850.44 535.228L850.86 535.788L851.26 536.327L851.64 536.927L852.08 537.467L852.479 538.046L852.859 538.606L853.259 539.186L853.659 539.785L854.079 540.365L854.479 540.965L854.879 541.584L855.259 542.184L855.659 542.764L856.039 543.403L856.439 544.023L856.839 544.643L857.218 545.282L857.618 545.902L858.018 546.541L858.398 547.201L858.798 547.821L859.138 548.5L859.538 549.16L859.938 549.84L860.278 550.499L860.678 551.159L861.038 551.838L861.377 552.538L861.777 553.198L862.137 553.917L862.477 554.617L862.837 555.336L863.197 556.036L863.537 556.736L863.897 557.475L864.217 558.195L864.577 558.934L864.877 559.674L865.237 560.433L865.537 561.173L865.857 561.913L866.176 562.672L866.496 563.452L866.796 564.231L867.076 564.971L867.396 565.77L867.676 566.59L867.936 567.369L868.216 568.169L868.496 568.988L868.756 569.808L869.036 570.587L869.276 571.407L869.516 572.286L869.756 573.106L869.976 573.926L870.216 574.785L870.416 575.665L870.655 576.524L870.855 577.384L871.035 578.243L871.235 579.142L871.395 580.002L871.475 580.482L871.555 580.921L871.635 581.341L871.715 581.821L871.795 582.241L871.875 582.72L871.955 583.18L872.015 583.62L872.095 584.1L872.135 584.559L872.215 584.999L872.255 585.459L872.335 585.939L872.375 586.398L872.455 586.878L872.495 587.358L872.535 587.817L872.575 588.297L872.615 588.757L872.695 589.237V589.716L872.735 590.216L872.775 590.676L872.815 591.156L872.855 591.675V592.135L872.895 592.655V593.114L872.935 593.634V594.094V594.614L872.975 595.113V595.593V596.113" stroke="#A3A3A3" stroke-width="2" stroke-linecap="round" stroke-linejoin="round"/>
<path d="M894.57 596.112V595.353V594.653L894.53 593.914V593.154L894.49 592.455V591.715L894.45 590.955L894.41 590.256L894.37 589.516L894.33 588.757L894.25 588.057L894.21 587.318L894.13 586.558L894.09 585.858L894.01 585.119L893.93 584.399L893.85 583.66L893.77 582.92L893.65 582.2L893.59 581.461L893.47 580.761L893.39 580.002L893.271 579.302L893.151 578.563L893.031 577.843L892.911 577.143L892.791 576.404L892.671 575.684L892.551 574.945L892.411 574.245L892.251 573.526L892.131 572.786L891.971 572.086L891.811 571.387L891.651 570.667L891.491 569.928L891.351 569.228L891.151 568.508L890.991 567.809L890.791 567.109L890.631 566.39L890.431 565.65L890.251 564.951L890.051 564.231L889.851 563.531L889.651 562.832L889.451 562.112L889.251 561.413L889.031 560.693L888.831 560.033L888.592 559.334L888.352 558.614L888.152 557.915L887.932 557.215L887.692 556.495L887.452 555.836L887.212 555.136L886.952 554.417L886.712 553.757L886.472 553.057L886.192 552.338L885.932 551.678L885.692 550.959L885.412 550.299L885.132 549.599L884.872 548.92L884.592 548.22L884.313 547.561L884.033 546.881L883.773 546.181L883.453 545.522L883.173 544.842L882.893 544.183L882.593 543.523L882.273 542.803L881.993 542.144L881.693 541.464L881.373 540.805L881.053 540.145L880.733 539.465L880.433 538.846L880.113 538.166L879.793 537.506L879.454 536.847L879.134 536.167L878.814 535.548L878.474 534.888L878.114 534.208L877.794 533.589L877.454 532.909L877.094 532.29L876.734 531.63L876.374 530.99L876.034 530.331L875.674 529.691L875.314 529.031L874.975 528.412L874.615 527.772L874.235 527.113L873.875 526.473L873.475 525.853L873.115 525.214L872.735 524.594L872.375 523.974L871.995 523.295L871.595 522.675L871.195 522.035L870.815 521.456L870.416 520.836L870.016 520.197L869.636 519.577L869.236 518.937L868.796 518.318L868.416 517.718L868.016 517.098L867.596 516.479L867.196 515.879L866.756 515.259L866.376 514.66L865.937 514.04L865.517 513.44L865.117 512.861L864.677 512.281L864.257 511.681L863.857 511.102L863.417 510.542L862.997 509.962L862.597 509.403L862.177 508.823L861.737 508.263L861.358 507.724L860.918 507.164L860.518 506.624L860.098 506.065L859.658 505.525L859.258 505.005L858.838 504.466L858.398 503.946L858.018 503.446L857.578 502.927L857.178 502.427L856.759 501.907L856.319 501.407L855.919 500.888L855.499 500.428L855.099 499.908L854.679 499.429L854.279 498.969L853.839 498.489L853.459 498.029L853.059 497.55L852.639 497.09L852.24 496.61L851.84 496.171L851.42 495.751L851.02 495.271L850.62 494.851L850.24 494.412L849.84 493.992L849.42 493.552L849.02 493.152L848.62 492.733L848.24 492.293L847.8 491.873L847.401 491.433L846.981 491.033L846.581 490.614L846.161 490.174L845.721 489.794L845.281 489.354L844.861 488.955L844.461 488.535L844.041 488.135L843.601 487.695L843.162 487.316L842.742 486.916L842.302 486.496L841.842 486.096L841.402 485.697L840.962 485.317L840.542 484.917L840.102 484.557L839.642 484.177L839.202 483.778L838.762 483.418L838.343 483.078L837.863 482.678L837.443 482.319L837.003 481.979L836.583 481.619L836.103 481.259L835.663 480.959L835.243 480.6L834.803 480.28L834.383 479.98L833.983 479.66L833.544 479.38L833.164 479.06L832.724 478.801L832.324 478.521L831.944 478.241L831.544 477.961L831.144 477.741L830.764 477.461L830.364 477.222L829.984 476.982L829.584 476.762L829.225 476.522L828.845 476.282L828.485 476.082L828.125 475.842L827.745 475.662L827.385 475.463L827.025 475.263L826.685 475.063L826.325 474.863L825.925 474.663L825.585 474.483L825.265 474.323L824.906 474.123L824.566 473.963L824.206 473.804L823.846 473.624L823.506 473.464L823.146 473.304L822.786 473.144L822.446 472.984L822.086 472.824L821.766 472.664L821.426 472.544L821.026 472.404L820.666 472.244L820.327 472.124L819.967 471.965L819.607 471.845L819.267 471.685L818.867 471.565L818.507 471.425L818.167 471.305L817.767 471.185L817.407 471.065L817.027 470.945L816.627 470.825L816.267 470.705L815.888 470.585L815.488 470.465L815.108 470.346L814.708 470.286L814.308 470.166L813.888 470.046L813.488 469.966L813.088 469.846L812.668 469.766L812.228 469.646L811.848 469.566L811.408 469.446" stroke="#A3A3A3" stroke-width="2" stroke-linecap="round" stroke-linejoin="round"/>
<path d="M753.741 455.514L753.301 455.314L752.861 455.135L752.441 454.935L752.001 454.735L751.581 454.535L751.142 454.335L750.702 454.155L750.242 453.955L749.802 453.715L749.342 453.516L748.902 453.316L748.422 453.136L748.002 452.896L747.522 452.696L747.062 452.496L746.583 452.256L746.123 452.076L745.643 451.836L745.163 451.637L744.703 451.397L744.183 451.197L743.723 450.977L743.203 450.777L742.703 450.537L742.223 450.337L741.724 450.098L741.204 449.918L740.704 449.678L740.184 449.478L739.644 449.238L739.124 449.038L738.584 448.818L738.064 448.618L737.525 448.379L736.965 448.179L736.425 447.939L735.865 447.759L735.325 447.519L734.765 447.319L734.185 447.119L733.625 446.879L733.046 446.699L732.446 446.46L731.866 446.26L731.286 446.06L730.686 445.82L730.066 445.64L729.466 445.44L728.846 445.24L728.207 445.04L727.627 444.841L727.007 444.641L726.407 444.461L725.787 444.261L725.187 444.101L724.607 443.901L723.967 443.741L723.388 443.561L722.788 443.401L722.208 443.241L721.628 443.082L721.028 442.922L720.488 442.762L719.888 442.602L719.309 442.502L718.749 442.342L718.169 442.182L717.609 442.062L717.069 441.902L716.469 441.782L715.929 441.662L715.369 441.542L714.829 441.423L714.27 441.323L713.77 441.203L713.21 441.083L712.67 440.963L712.15 440.843L711.65 440.763L711.09 440.643L710.59 440.523L710.071 440.443L709.571 440.383L709.051 440.263L708.591 440.183L708.071 440.103L707.551 440.023L707.091 439.943L706.611 439.863L706.151 439.784L705.672 439.704L705.212 439.624L704.732 439.544L704.272 439.464L703.832 439.424L703.392 439.344L702.932 439.264L702.492 439.224L702.072 439.164L701.632 439.124L701.232 439.084L700.813 439.004L700.413 438.964L700.033 438.924L699.193 438.804L698.413 438.724L697.633 438.644L696.833 438.564L696.054 438.484L695.234 438.404L694.454 438.324L693.654 438.284L692.874 438.224L692.094 438.184L691.315 438.104L690.515 438.065L689.735 438.025L688.955 437.985L688.175 437.945L687.376 437.905L686.556 437.865H685.816L685.036 437.825H684.236L683.456 437.785H682.677H681.877H681.097H680.317H679.537L678.777 437.825H677.998H677.218L676.458 437.865L675.678 437.905H674.938L674.158 437.945L673.399 437.985L672.659 438.025L671.919 438.065L671.119 438.104L670.379 438.124L669.639 438.224L668.9 438.244L668.14 438.324L667.4 438.364L666.7 438.444L665.94 438.484L665.2 438.564L664.501 438.644L663.741 438.724L663.041 438.804L662.301 438.884L661.581 438.964L660.881 439.084L660.181 439.164L659.462 439.224L658.762 439.344L658.102 439.424L657.382 439.504L656.722 439.624L656.022 439.744L655.343 439.823L654.683 439.943L654.003 440.063L653.343 440.183L652.683 440.263L652.043 440.383L651.383 440.483L650.744 440.603L650.084 440.723L649.464 440.843L648.824 440.963L648.204 441.123L647.564 441.243L646.984 441.363L646.345 441.463L645.765 441.582L645.185 441.702L644.585 441.862L644.125 441.942L643.605 442.062L643.145 442.182L642.705 442.302L642.225 442.382L641.766 442.502L641.286 442.602L640.826 442.722L640.386 442.802L639.926 442.922L639.486 443.042L639.046 443.162L638.586 443.281L638.146 443.361L637.706 443.481L637.287 443.581L636.847 443.701L636.427 443.821L635.987 443.941L635.547 444.061L635.127 444.181L634.727 444.261L634.307 444.381L633.907 444.501L633.467 444.601L633.087 444.721L632.688 444.841L632.308 444.96L631.908 445.08L631.508 445.2L631.128 445.28L630.728 445.4L630.328 445.52L629.988 445.64L629.588 445.74L629.228 445.86L628.848 445.98L628.488 446.06L628.129 446.18L627.789 446.3L627.429 446.42L627.069 446.54L626.729 446.62L626.369 446.739L626.009 446.839L625.709 446.959L625.349 447.039L625.029 447.159L624.729 447.279L624.409 447.399L624.089 447.479L623.789 447.599L623.47 447.679L623.15 447.779L622.83 447.899L622.57 447.979L622.25 448.099L621.97 448.179L621.69 448.299L621.39 448.379L621.11 448.498L620.83 448.578L620.59 448.658L620.33 448.778L620.05 448.858L619.81 448.918L619.53 449.038L619.31 449.118L619.071 449.198L618.831 449.278L618.591 449.358L618.371 449.478L618.131 449.558L617.891 449.638L617.691 449.718L617.491 449.798L617.251 449.878L617.071 449.958L616.871 449.998L616.671 450.058L616.471 450.137L616.291 450.217L616.131 450.257L615.931 450.337L615.771 450.417L615.611 450.457L615.411 450.537L615.251 450.617L615.111 450.657L614.951 450.697L614.831 450.777L614.671 450.817L614.552 450.897L614.392 450.937L614.272 450.977L614.152 451.017L614.012 451.097L613.892 451.117L613.812 451.157L613.692 451.197L613.572 451.237L613.492 451.277L613.372 451.317L613.292 451.357L613.212 451.397H613.132L613.052 451.437L612.992 451.477L612.912 451.517H612.832L612.792 451.557L612.712 451.597H612.672L612.592 451.637H612.552H612.512L612.472 451.677H612.432L612.392 451.717H612.352H612.312V451.757H612.272L613.132 452.496L613.972 453.276L614.831 454.035L615.651 454.815L616.471 455.554L617.311 456.314L618.131 457.053L618.951 457.793L619.73 458.533L620.55 459.292L621.35 459.992L622.13 460.731L622.87 461.451L623.669 462.19L624.449 462.91L625.189 463.61L625.929 464.309L626.689 465.029L627.429 465.728L628.129 466.428L628.888 467.128L629.588 467.807L630.288 468.507L631.008 469.186L631.708 469.846L632.408 470.506L633.087 471.225L633.787 471.845L634.447 472.524L635.127 473.184L635.747 473.844L636.427 474.483L637.087 475.143L637.706 475.763L638.346 476.402L638.966 477.062L639.606 477.701L640.186 478.321L640.826 478.921L641.406 479.54L642.005 480.16L642.585 480.76L643.165 481.379L643.765 481.979L644.305 482.559L644.865 483.158L645.405 483.738L645.965 484.318L646.504 484.917L647.064 485.497L647.564 486.057L648.084 486.636L648.584 487.196L649.104 487.736L649.604 488.335L650.124 488.875L650.584 489.395L651.063 489.934L651.543 490.494L652.003 491.034L652.483 491.553L652.943 492.053L653.383 492.613L653.803 493.113L654.243 493.632L654.683 494.132L655.103 494.652L655.502 495.131L655.942 495.631L656.322 496.151L656.722 496.61L657.122 497.09L657.462 497.55L657.862 498.03L658.202 498.489L658.562 498.969L658.922 499.429L659.282 499.869L659.622 500.348L659.942 500.768L660.301 501.208L660.601 501.668L660.921 502.107L661.201 502.547L661.501 502.927L661.781 503.367L662.101 503.786L662.381 504.186L662.641 504.586L662.881 504.966L663.161 505.405L663.401 505.805L663.661 506.145L663.901 506.545L664.101 506.924L664.341 507.284L664.561 507.684L664.76 508.044L664.96 508.384L665.16 508.743L665.36 509.083L665.56 509.443L665.7 509.763L665.86 510.123L666.06 510.422L666.22 510.782L666.34 511.102L666.5 511.402L666.62 511.722L666.78 512.041L666.88 512.301L667 512.621L667.08 512.901L667.2 513.221L667.28 513.481L667.36 513.76L667.44 514.04L667.52 514.32L667.6 514.54L667.68 514.82L667.72 515.06L667.76 515.34L667.8 515.559L667.82 515.799V516.039L667.88 516.279V516.479V516.699V517.019V517.338V517.618V517.918L667.82 518.238V518.558L667.8 518.818V519.137L667.76 519.457V519.737L667.72 520.037L667.68 520.317L667.6 520.936L667.52 521.536L667.44 522.116L667.32 522.675L667.2 523.255L667.08 523.855L666.96 524.434L666.84 524.994L666.7 525.574L666.54 526.173L666.38 526.713L666.22 527.293L666.06 527.852L665.86 528.412L665.66 528.992L665.52 529.551L665.32 530.091L665.08 530.671L664.88 531.23L664.681 531.77L664.461 532.33L664.221 532.909L663.981 533.469L663.741 534.009L663.521 534.568L663.281 535.148L663.041 535.708L662.801 536.247L662.521 536.807L662.301 537.347L662.021 537.946L661.741 538.486L661.241 539.625L660.681 540.725L660.142 541.864L659.582 543.003L659.042 544.143L658.442 545.322L657.902 546.461L657.342 547.641L656.802 548.8L656.482 549.4L656.202 549.979L655.942 550.619L655.663 551.199L655.383 551.798L655.103 552.418L654.843 553.018L654.563 553.637L654.283 554.257L654.003 554.897L653.783 555.476L653.503 556.116L653.223 556.775L652.983 557.415L652.723 558.035L652.483 558.654L652.203 559.334L651.963 559.954L651.743 560.633L651.463 561.293L651.223 561.952L650.983 562.632L650.744 563.292L650.524 563.951L650.324 564.671L650.084 565.331L649.844 566.03L649.644 566.75L649.424 567.409L649.224 568.129L649.024 568.868L648.824 569.568L648.624 570.288L648.424 571.027L648.244 571.727L648.044 572.466L647.884 573.226L647.684 573.965L647.524 574.705L647.384 575.505L647.224 576.244L647.064 577.024L646.904 577.823L646.744 578.603L646.624 579.382L646.465 580.162L646.345 580.961L646.245 581.781L646.125 582.6L646.005 583.42L645.885 584.24L645.765 585.079L645.685 585.899L645.565 586.758L645.485 587.618L645.405 588.457L645.325 589.317L645.265 590.216L645.185 591.076L645.105 591.975L645.065 592.835L644.985 593.754L644.945 594.653L644.905 595.593L644.865 596.492L644.825 597.432L644.785 598.331V599.291L644.745 600.27V601.21V602.149V603.129" stroke="#A3A3A3" stroke-width="2" stroke-linecap="round" stroke-linejoin="round"/>
<path d="M741.684 705.449H741.604" stroke="#A3A3A3" stroke-width="2" stroke-linecap="round" stroke-linejoin="round"/>
<path d="M504.416 666.892V644.964V622.977" stroke="#A3A3A3" stroke-width="2" stroke-linecap="round" stroke-linejoin="round"/>
<path d="M334.853 589.816L335.553 589.776L336.273 589.696L336.973 589.656L337.672 589.617L338.392 589.577L339.092 589.557L339.792 589.497H340.512H341.212H341.911H342.631L343.331 589.557H344.071L344.791 589.577L345.491 589.617L346.191 589.696L346.91 589.736L347.65 589.816L348.35 589.896L349.07 589.976L349.77 590.056L350.49 590.176L351.229 590.296L351.929 590.416L352.649 590.536L353.349 590.656L354.049 590.796L354.769 590.956L355.469 591.116L356.168 591.276L356.888 591.475L357.588 591.615L358.288 591.815L358.988 592.015L359.708 592.255L360.407 592.455L361.087 592.695L361.787 592.915L362.487 593.154L363.167 593.434L363.867 593.674L364.527 593.934L365.246 594.214L365.906 594.494L366.566 594.813L367.246 595.113L367.906 595.433L368.586 595.753L369.245 596.053L369.905 596.413L370.585 596.732L371.245 597.092L371.885 597.472L372.545 597.832L373.165 598.212L373.804 598.611L374.424 599.011L375.064 599.391L375.684 599.791L376.304 600.21L376.944 600.65L377.524 601.09L378.164 601.51L378.743 601.989L379.343 602.429L379.963 602.889L380.523 603.369L381.103 603.868L381.683 604.348L382.243 604.848L382.823 605.367L383.382 605.867L383.922 606.387L384.482 606.926L385.022 607.446L385.542 607.986L386.082 608.546L386.602 609.085L387.102 609.685L387.621 610.225L388.101 610.824L388.601 611.404L389.081 612.004L389.541 612.623L390.021 613.203L390.481 613.842L390.921 614.462L391.381 615.102L391.821 615.721L392.02 616.041L392.26 616.361L392.44 616.701L392.64 617.021L392.88 617.34L393.08 617.68L393.28 618L393.48 618.36L393.66 618.66L393.86 619.019L394.06 619.339L394.26 619.679L394.46 619.999L394.6 620.359L394.8 620.698L395 621.058L395.16 621.378L395.36 621.718L395.52 622.078L395.7 622.437L395.86 622.797L396.02 623.137L396.18 623.497L396.38 623.857L396.54 624.196L396.679 624.596L396.839 624.936L396.999 625.296L397.119 625.656L397.279 626.035L397.439 626.395L397.559 626.755L397.719 627.155L397.819 627.494L397.979 627.894L398.099 628.254L398.219 628.634L398.379 628.994L398.499 629.373L398.619 629.733L398.739 630.133L398.859 630.513L398.959 630.873L399.039 631.272L399.159 631.652L399.279 632.052L399.359 632.452L399.479 632.831L399.559 633.231L399.639 633.591L399.759 633.971L399.839 634.371L399.919 634.75L399.979 635.19L400.059 635.59L400.139 635.97L400.219 636.369L400.259 636.749L400.339 637.149L400.419 637.549L400.459 637.968L400.499 638.368L400.579 638.768L400.619 639.188L400.659 639.587L400.699 639.967L400.739 640.407L400.779 640.807L400.819 641.227L400.859 641.626V642.026L400.899 642.446V642.886L400.919 643.285V643.705V644.105V644.525V644.924" stroke="#A3A3A3" stroke-width="2" stroke-linecap="round" stroke-linejoin="round"/>
<path d="M362.287 728.056L362.567 727.976L362.887 727.856L363.167 727.776L363.427 727.656L363.747 727.576L364.026 727.456L364.346 727.376L364.606 727.256L364.926 727.136L365.246 727.056L365.506 726.957L365.826 726.837L366.146 726.717L366.466 726.597L366.766 726.477L367.086 726.357L367.446 726.237L367.746 726.077L368.066 725.977L368.426 725.857L368.725 725.697L369.085 725.577L369.405 725.417L369.745 725.258L370.105 725.138L370.465 724.978L370.805 724.838L371.125 724.678L371.485 724.518L371.885 724.358L372.225 724.198L372.585 724.038L372.945 723.858L373.324 723.698L373.684 723.499L374.084 723.339L374.824 722.979L375.564 722.599L376.304 722.239L377.064 721.839L377.803 721.46L378.543 721.06L379.303 720.62L380.043 720.24L380.783 719.801L381.503 719.421L382.242 718.981L382.982 718.541L383.702 718.082L384.442 717.642L385.142 717.182L385.902 716.702L386.602 716.243L387.301 715.763L388.021 715.283L388.721 714.824L389.461 714.304L390.161 713.804L390.841 713.284L391.54 712.785L392.26 712.265L392.96 711.765L393.62 711.206L394.34 710.706L395 710.146L395.7 709.607L396.379 709.047L397.039 708.507L397.719 707.948L398.379 707.368L399.039 706.808L399.719 706.229L400.379 705.629L401.018 705.049L401.678 704.47L402.298 703.87L402.978 703.29L403.598 702.691L404.218 702.071L404.858 701.431L405.477 700.852L406.117 700.232L406.697 699.592L407.337 698.973L407.917 698.333L408.517 697.714L409.137 697.034L409.417 696.734L409.716 696.414L409.996 696.054L410.316 695.755L410.616 695.395L410.936 695.035L411.216 694.735L411.536 694.375L411.836 694.016L412.156 693.676L412.476 693.276L412.736 692.916L413.056 692.577L413.376 692.177L413.696 691.817L413.996 691.437L414.315 691.037L414.635 690.638L414.955 690.258L415.255 689.858L415.575 689.438L415.855 689.039L416.155 688.639L416.475 688.219L416.795 687.779L417.095 687.36L417.415 686.92L417.735 686.48L418.055 686.06L418.315 685.621L418.634 685.141L418.954 684.721L419.274 684.241L419.574 683.782L419.854 683.342L420.174 682.882L420.474 682.362L420.754 681.883L421.034 681.423L421.354 680.943L421.614 680.484L421.894 680.004L422.174 679.544L422.454 679.024L422.714 678.565L422.954 678.085L423.233 677.625L423.513 677.145L423.733 676.666L423.973 676.166L424.213 675.686L424.453 675.227L424.673 674.747L424.913 674.287L425.153 673.807L425.393 673.308L425.593 672.828L425.813 672.348L426.013 671.889L426.253 671.409L426.453 670.949L426.653 670.469L426.833 669.97L427.033 669.49L427.233 669.01L427.393 668.55L427.593 668.071L427.773 667.611L427.932 667.131L428.092 666.672L428.292 666.192L428.452 665.732L428.612 665.252L428.772 664.793L428.912 664.313L429.072 663.873L429.192 663.413L429.352 662.934L429.472 662.474L429.632 661.994L429.752 661.575L429.872 661.095L430.032 660.615L430.132 660.195L430.252 659.716L430.332 659.256L430.452 658.816L430.572 658.336L430.692 657.917L430.772 657.437L430.852 657.017L430.972 656.537L431.032 656.118L431.112 655.678L431.192 655.198L431.272 654.778L431.352 654.339L431.432 653.919L431.512 653.439L431.592 653L431.632 652.58L431.712 652.1L431.752 651.68L431.792 651.241L431.872 650.781L431.912 650.341L431.952 649.861L431.992 649.442L432.032 648.962L432.072 648.542V648.102L432.092 647.623V647.203L432.152 646.723V646.303V645.824V645.404V644.964V644.484V644.065V643.585V643.165L432.092 642.686V642.246L432.072 641.786V641.346L432.032 640.927L431.992 640.447L431.952 640.027L431.912 639.547L431.872 639.108L431.792 638.648L431.752 638.208L431.712 637.788L431.632 637.309L431.592 636.869L431.512 636.449L431.432 635.969L431.352 635.55L431.272 635.11L431.192 634.69L431.112 634.21L431.032 633.771L430.972 633.351L430.852 632.871L430.772 632.451L430.692 631.972L430.572 631.532L430.452 631.072L430.332 630.633L430.252 630.173L430.132 629.693L430.032 629.253L429.872 628.794L429.752 628.314L429.632 627.894L429.472 627.414L429.352 626.955L429.192 626.475L429.072 625.995L428.912 625.575L428.772 625.096L428.612 624.636L428.452 624.156L428.292 623.697L428.092 623.217L427.932 622.757L427.773 622.277L427.593 621.818L427.393 621.338L427.233 620.858L427.033 620.398L426.833 619.919L426.653 619.419L426.453 618.939L426.253 618.48L426.013 618L425.813 617.52L425.593 617.06L425.393 616.581L425.153 616.121L424.913 615.601L424.673 615.142L424.453 614.662L424.213 614.202L423.973 613.722L423.733 613.203L423.513 612.743L423.233 612.263L422.954 611.803L422.714 611.324L422.454 610.864L422.174 610.344L421.894 609.885L421.614 609.405L421.354 608.925L421.034 608.465L420.754 607.986L420.474 607.526L420.174 607.046L419.854 606.547L419.574 606.107L419.274 605.647L418.954 605.167L418.634 604.728L418.315 604.268L418.055 603.828L417.735 603.408L417.415 602.969L417.095 602.529L416.795 602.109L416.475 601.669L416.155 601.25L415.855 600.85L415.575 600.45L415.255 600.03L414.955 599.631L414.635 599.231L414.315 598.851L413.996 598.451L413.696 598.111L413.376 597.712L413.056 597.312L412.736 596.972L412.476 596.612L412.156 596.213L411.836 595.873L411.536 595.513L411.216 595.153L410.936 594.853L410.616 594.494L410.316 594.134L409.996 593.834L409.716 593.474L409.417 593.154L409.137 592.834L408.517 592.175L407.917 591.555L407.337 590.916L406.697 590.296L406.117 589.656L405.477 589.037L404.858 588.437L404.218 587.817L403.598 587.198L402.978 586.598L402.298 586.018L401.678 585.419L401.018 584.839L400.379 584.24L399.719 583.66L399.039 583.06L398.379 582.52L397.719 581.941L397.039 581.381L396.379 580.841L395.7 580.282L395 579.742L394.34 579.182L393.62 578.683L392.96 578.123L392.26 577.623L391.54 577.104L390.841 576.604L390.161 576.084L389.461 575.565L388.721 575.065L388.021 574.585L387.301 574.125L386.602 573.646L385.902 573.186L385.142 572.706L384.442 572.246L383.702 571.807L382.982 571.327L382.242 570.907L381.503 570.468L380.783 570.088L380.043 569.648L379.303 569.248L378.543 568.828L377.803 568.429L377.064 568.029L376.304 567.649L375.564 567.289L374.824 566.91L374.084 566.55L373.684 566.39L373.324 566.19L372.945 566.03L372.585 565.85L372.225 565.69L371.885 565.53L371.485 565.37L371.125 565.211L370.805 565.051L370.465 564.891L370.105 564.751L369.745 564.631L369.405 564.471L369.085 564.311L368.725 564.191L368.426 564.031L368.066 563.911L367.746 563.791L367.446 563.651L367.086 563.532L366.766 563.412L366.466 563.292L366.146 563.172L365.826 563.052L365.506 562.932L365.246 562.812L364.926 562.732L364.606 562.632L364.346 562.512L364.026 562.432L363.747 562.312L363.427 562.232L363.167 562.112L362.887 562.032L362.567 561.912L362.287 561.833" stroke="#A3A3A3" stroke-width="2" stroke-linecap="round" stroke-linejoin="round"/>
<path d="M334.853 700.072L335.553 700.112L336.273 700.172L336.973 700.232L337.672 700.252L338.392 700.292L339.092 700.332L339.792 700.372H340.512H341.212H341.911H342.631L343.331 700.332H344.071L344.791 700.292L345.491 700.252L346.191 700.172L346.91 700.132L347.65 700.072L348.35 699.992L349.07 699.912L349.77 699.832L350.49 699.712L351.229 699.593L351.929 699.473L352.649 699.353L353.349 699.233L354.049 699.073L354.769 698.933L355.469 698.773L356.168 698.613L356.888 698.453L357.588 698.253L358.288 698.053L358.988 697.874L359.708 697.634L360.407 697.434L361.087 697.194L361.787 696.974L362.487 696.734L363.167 696.454L363.867 696.215L364.527 695.935L365.246 695.675L365.906 695.395L366.566 695.075L367.246 694.775L367.906 694.456L368.586 694.136L369.245 693.816L369.905 693.476L370.585 693.156L371.245 692.796L371.885 692.417L372.545 692.057L373.165 691.657L373.804 691.277L374.424 690.878L375.064 690.498L375.684 690.098L376.304 689.658L376.944 689.239L377.524 688.799L378.164 688.379L378.743 687.899L379.343 687.46L379.963 687L380.523 686.52L381.103 686.02L381.683 685.541L382.243 685.041L382.823 684.521L383.382 684.022L383.922 683.502L384.482 682.942L385.022 682.443L385.542 681.883L386.082 681.343L386.602 680.803L387.102 680.204L387.621 679.664L388.101 679.064L388.601 678.485L389.081 677.885L389.541 677.266L390.021 676.666L390.481 676.046L390.921 675.427L391.381 674.787L391.821 674.167L392.02 673.847L392.26 673.528L392.44 673.188L392.64 672.868L392.88 672.548L393.08 672.208L393.28 671.889L393.48 671.529L393.66 671.209L393.86 670.869L394.06 670.549L394.26 670.19L394.46 669.89L394.6 669.53L394.8 669.17L395 668.83L395.16 668.511L395.36 668.151L395.52 667.811L395.7 667.451L395.86 667.091L396.02 666.752L396.18 666.392L396.38 666.032L396.54 665.692L396.679 665.292L396.839 664.933L396.999 664.593L397.119 664.233L397.279 663.873L397.439 663.494L397.559 663.134L397.719 662.734L397.819 662.394L397.979 661.994L398.099 661.635L398.219 661.255L398.379 660.895L398.499 660.495L398.619 660.155L398.739 659.756L398.859 659.356L398.959 659.016L399.039 658.616L399.159 658.237L399.279 657.837L399.359 657.437L399.479 657.057L399.559 656.657L399.639 656.298L399.759 655.918L399.839 655.518L399.919 655.118L399.979 654.699L400.059 654.299L400.139 653.919L400.219 653.519L400.259 653.12L400.339 652.74L400.419 652.34L400.459 651.9L400.499 651.52L400.579 651.121L400.619 650.701L400.659 650.301L400.699 649.901L400.739 649.482L400.779 649.082L400.819 648.642L400.859 648.262V647.823L400.899 647.443V647.003L400.919 646.603V646.184V645.784V645.364V644.924" stroke="#A3A3A3" stroke-width="2" stroke-linecap="round" stroke-linejoin="round"/>
<path d="M334.853 700.072L334.153 699.992L333.433 699.912L332.733 699.792L332.073 699.712L331.354 699.592L330.654 699.472L329.994 699.352L329.274 699.233L328.614 699.073L327.894 698.973L327.235 698.813L326.575 698.653L325.895 698.453L325.195 698.293L324.535 698.093L323.855 697.953L323.195 697.753L322.516 697.514L321.896 697.314L321.236 697.114L320.556 696.894L319.936 696.654L319.276 696.414L318.636 696.174L317.977 695.914L317.337 695.675L316.717 695.395L316.077 695.115L315.457 694.855L314.837 694.575L314.197 694.255L313.578 693.976L312.978 693.676L312.358 693.356L311.778 693.036L311.178 692.736L310.558 692.417L309.958 692.057L309.378 691.697L308.779 691.397L308.239 691.037L307.639 690.678L307.099 690.298L306.499 689.938L305.959 689.538L305.399 689.198L304.859 688.799L304.3 688.419L303.76 688.019L303.24 687.619L302.7 687.2L302.18 686.8L301.68 686.36L301.16 685.94L300.66 685.501L300.141 685.081L299.641 684.641L299.161 684.201L298.701 683.742L298.221 683.302L297.741 682.842L297.281 682.362L296.801 681.943L296.381 681.463L295.901 680.943L295.482 680.483L295.042 680.004L294.602 679.504L294.182 679.024L293.782 678.525L293.362 678.005L292.962 677.545L292.562 677.025L292.182 676.486L291.782 675.966L291.422 675.446L291.043 674.947L290.683 674.387L290.323 673.887L289.983 673.328L289.623 672.788L289.303 672.248L288.963 671.689L288.643 671.129L288.323 670.589L288.023 670.05L287.703 669.49L287.423 668.95L287.143 668.35L286.843 667.811L286.563 667.211L286.324 666.671L286.044 666.072L285.784 665.492L285.544 664.932L285.304 664.353L285.064 663.753L284.844 663.174L284.644 662.574L284.404 661.994L284.204 661.415L284.004 660.815L283.804 660.235L283.624 659.596L283.464 659.016L283.304 658.416L283.104 657.797L282.984 657.197L282.824 656.617L282.684 655.998L282.564 655.398L282.444 654.778L282.324 654.179L282.204 653.559L282.084 652.919L282.004 652.34L281.924 651.72L281.805 651.121L281.765 650.501L281.685 649.861L281.625 649.282L281.585 648.642L281.545 648.022L281.505 647.403V646.803L281.465 646.183V645.544V644.964V644.344V643.705L281.505 643.085V642.486L281.545 641.866L281.585 641.226L281.625 640.647L281.685 640.027L281.765 639.387L281.805 638.768L281.924 638.168L282.004 637.548L282.084 636.949L282.204 636.329L282.324 635.689L282.444 635.11L282.564 634.49L282.684 633.891L282.824 633.271L282.984 632.671L283.104 632.092L283.304 631.472L283.464 630.872L283.624 630.293L283.804 629.653L284.004 629.073L284.204 628.474L284.404 627.894L284.644 627.294L284.844 626.715L285.064 626.115L285.304 625.535L285.544 624.936L285.784 624.396L286.044 623.816L286.324 623.217L286.563 622.677L286.843 622.077L287.143 621.538L287.423 620.938L287.703 620.398L288.023 619.839L288.323 619.299L288.643 618.739L288.963 618.2L289.303 617.64L289.623 617.1L289.983 616.541L290.323 616.041L290.683 615.481L291.043 614.942L291.422 614.422L291.782 613.922L292.182 613.402L292.562 612.903L292.962 612.383L293.362 611.883L293.782 611.364L294.182 610.864L294.602 610.384L295.042 609.884L295.482 609.405L295.901 608.925L296.381 608.425L296.801 607.946L297.281 607.526L297.741 607.046L298.221 606.586L298.701 606.147L299.161 605.667L299.641 605.247L300.141 604.807L300.66 604.388L301.16 603.948L301.68 603.508L302.18 603.088L302.7 602.689L303.24 602.269L303.76 601.869L304.3 601.469L304.859 601.09L305.399 600.69L305.959 600.33L306.499 599.95L307.099 599.59L307.639 599.211L308.239 598.851L308.779 598.491L309.378 598.171L309.958 597.831L310.558 597.472L311.178 597.152L311.778 596.852L312.358 596.532L312.978 596.212L313.578 595.913L314.197 595.633L314.837 595.313L315.457 595.033L316.077 594.773L316.717 594.493L317.337 594.214L317.977 593.974L318.636 593.714L319.276 593.474L319.936 593.234L320.556 592.994L321.236 592.814L321.896 592.575L322.516 592.375L323.195 592.135L323.855 591.935L324.535 591.775L325.195 591.595L325.895 591.435L326.575 591.235L327.235 591.075L327.894 590.916L328.614 590.796L329.274 590.656L329.994 590.536L330.654 590.416L331.354 590.296L332.073 590.176L332.733 590.096L333.433 589.976L334.153 589.896L334.853 589.816" stroke="#A3A3A3" stroke-width="2" stroke-linecap="round" stroke-linejoin="round"/>
<path d="M362.287 561.833L361.947 561.713L361.547 561.613L361.167 561.493L360.767 561.373L360.367 561.253L359.987 561.093L359.588 560.973L359.188 560.853L358.768 560.733L358.368 560.613L357.988 560.513L357.548 560.393L357.108 560.233L356.728 560.114L356.288 559.994L355.868 559.874L355.428 559.754L354.989 559.634L354.529 559.514L354.089 559.414L353.669 559.294L353.189 559.174L352.749 559.054L352.289 558.934L351.809 558.814L351.349 558.694L350.869 558.574L350.39 558.454L349.93 558.355L349.45 558.275L348.95 558.155L348.47 558.035L347.97 557.915L347.45 557.795L346.95 557.715L346.43 557.595L345.931 557.515L345.411 557.395L344.911 557.295L344.351 557.215L343.851 557.095L343.291 557.015L342.791 556.935L342.231 556.815L341.691 556.735L341.132 556.656L340.552 556.576L339.992 556.456L339.412 556.376L338.852 556.296L338.272 556.236L337.672 556.156L337.092 556.076L336.493 556.036L335.913 555.956L335.333 555.876L334.733 555.796L334.153 555.756L333.553 555.676L332.973 555.636L332.374 555.596L331.794 555.516L331.194 555.476L330.654 555.436L330.054 555.396L329.514 555.356L328.934 555.316L328.374 555.276L327.835 555.236H327.275L326.735 555.196L326.175 555.176H325.635L325.075 555.136H324.535H324.015L323.475 555.096H322.956H322.456H321.896H321.396H320.876H320.396H319.896H319.376H318.916H318.397H317.937H317.457L316.997 555.136H316.517H316.057L315.577 555.176H315.137L314.677 555.196H314.237L313.818 555.236H313.378L312.938 555.276H312.518L312.078 555.316L311.698 555.356H311.298L310.858 555.396L310.478 555.436L310.078 555.476L309.339 555.516L308.559 555.596L307.759 555.676L307.019 555.756L306.239 555.836L305.479 555.916L304.7 555.996L303.92 556.116L303.18 556.196L302.38 556.296L301.64 556.416L300.86 556.536L300.101 556.656L299.321 556.775L298.581 556.935L297.781 557.055L297.041 557.215L296.261 557.355L295.522 557.515L294.722 557.675L293.982 557.835L293.242 557.995L292.462 558.195L291.702 558.395L290.963 558.534L290.223 558.734L289.463 558.974L288.723 559.174L287.983 559.374L287.223 559.594L286.484 559.834L285.744 560.074L284.984 560.313L284.244 560.533L283.544 560.773L282.784 561.053L282.085 561.293L281.345 561.573L280.625 561.833L279.885 562.112L279.185 562.432L278.465 562.692L277.765 563.012L277.066 563.332L276.346 563.651L275.646 563.951L274.946 564.271L274.226 564.631L273.526 564.931L272.867 565.291L272.147 565.65L271.487 565.99L270.827 566.39L270.107 566.75L269.447 567.129L268.787 567.489L268.148 567.889L267.488 568.309L266.808 568.709L266.188 569.108L265.508 569.528L264.888 569.968L264.268 570.348L263.629 570.827L263.009 571.247L262.369 571.687L261.749 572.167L261.169 572.626L260.529 573.066L259.949 573.566L259.35 574.045L258.77 574.505L258.17 575.025L257.59 575.505L256.99 576.004L256.53 576.444L256.05 576.864L255.59 577.304L255.11 577.723L254.651 578.163L254.171 578.603L253.691 579.063L253.271 579.502L252.791 579.922L252.331 580.402L251.891 580.841L251.471 581.301L250.991 581.781L250.551 582.201L250.132 582.68L249.692 583.14L249.272 583.62L248.832 584.1L248.392 584.559L247.972 585.039L247.532 585.539L247.152 586.018L246.712 586.478L246.312 586.998L245.892 587.458L245.493 587.977L245.093 588.497L244.713 588.957L244.313 589.476L243.933 589.976L243.533 590.496L243.133 590.996L242.753 591.515L242.393 592.015L241.993 592.535L241.653 593.074L241.293 593.594L240.894 594.094L240.554 594.653L240.194 595.153L239.834 595.713L239.534 596.253L239.174 596.772L238.814 597.312L238.514 597.872L238.154 598.411L237.834 598.971L237.534 599.511L237.214 600.07L236.894 600.61L236.575 601.17L236.275 601.709L235.995 602.309L235.675 602.849L235.395 603.408L235.095 603.988L234.815 604.588L234.535 605.127L234.275 605.707L233.995 606.307L233.715 606.846L233.475 607.446L233.215 608.026L232.975 608.625L232.695 609.205L232.455 609.805L232.235 610.384L231.996 611.004L231.756 611.604L231.516 612.183L231.316 612.823L231.096 613.403L230.896 614.002L230.656 614.622L230.456 615.221L230.256 615.801L230.096 616.381L229.916 616.98L229.716 617.6L229.556 618.2L229.396 618.779L229.236 619.379L229.076 619.959L228.936 620.558L228.776 621.138L228.616 621.718L228.496 622.277L228.336 622.877L228.216 623.457L228.096 624.036L227.976 624.636L227.876 625.176L227.756 625.775L227.636 626.355L227.557 626.915L227.437 627.494L227.357 628.054L227.237 628.634L227.157 629.193L227.077 629.773L226.997 630.313L226.917 630.912L226.837 631.472L226.777 632.012L226.737 632.551L226.657 633.111L226.617 633.691L226.537 634.25L226.497 634.79L226.457 635.35L226.417 635.889L226.377 636.449L226.337 636.989L226.297 637.509L226.257 638.048L226.217 638.608L226.177 639.148V639.667L226.137 640.207L226.097 640.767V641.266V641.826L226.057 642.326V642.845V643.385V643.905V644.405L226.017 644.964L226.057 645.464V645.984V646.483V647.043V647.563L226.097 648.062V648.622V649.122L226.137 649.681L226.177 650.221V650.741L226.217 651.281L226.257 651.84L226.297 652.38L226.337 652.9L226.377 653.439L226.417 653.979L226.457 654.539L226.497 655.078L226.537 655.638L226.617 656.178L226.657 656.777L226.737 657.317L226.777 657.877L226.837 658.416L226.917 658.976L226.997 659.556L227.077 660.115L227.157 660.695L227.237 661.255L227.357 661.834L227.437 662.394L227.557 662.974L227.636 663.533L227.756 664.113L227.876 664.693L227.976 665.252L228.096 665.852L228.216 666.432L228.336 667.011L228.496 667.611L228.616 668.151L228.776 668.75L228.936 669.33L229.076 669.93L229.236 670.509L229.396 671.109L229.556 671.689L229.716 672.308L229.916 672.908L230.096 673.488L230.256 674.087L230.456 674.667L230.656 675.307L230.896 675.886L231.096 676.486L231.316 677.066L231.516 677.685L231.756 678.285L231.996 678.864L232.235 679.504L232.455 680.084L232.695 680.683L232.975 681.263L233.215 681.863L233.475 682.442L233.715 683.022L233.995 683.622L234.275 684.161L234.535 684.761L234.815 685.341L235.095 685.9L235.395 686.48L235.675 687.04L235.995 687.579L236.275 688.179L236.575 688.719L236.894 689.278L237.214 689.818L237.534 690.378L237.834 690.917L238.154 691.477L238.514 692.017L238.814 692.577L239.174 693.116L239.534 693.636L239.834 694.176L240.194 694.735L240.554 695.235L240.894 695.795L241.293 696.294L241.653 696.814L241.993 697.354L242.393 697.873L242.753 698.373L243.133 698.893L243.533 699.393L243.933 699.912L244.313 700.412L244.713 700.932L245.093 701.391L245.493 701.911L245.892 702.411L246.312 702.891L246.712 703.41L247.152 703.87L247.532 704.35L247.972 704.849L248.392 705.329L248.832 705.789L249.272 706.269L249.692 706.728L250.132 707.208L250.551 707.668L250.991 708.107L251.471 708.587L251.891 709.047L252.331 709.487L252.791 709.946L253.271 710.386L253.691 710.826L254.171 711.286L254.651 711.725L255.11 712.145L255.59 712.585L256.05 713.025L256.53 713.444L256.99 713.884L257.59 714.384L258.17 714.864L258.77 715.363L259.35 715.843L259.949 716.363L260.529 716.822L261.169 717.262L261.749 717.722L262.369 718.202L263.009 718.621L263.629 719.061L264.268 719.541L264.888 719.921L265.508 720.36L266.188 720.78L266.808 721.18L267.488 721.58L268.148 721.999L268.787 722.399L269.447 722.739L270.107 723.139L270.827 723.499L271.487 723.878L272.147 724.238L272.867 724.598L273.526 724.958L274.226 725.258L274.946 725.617L275.646 725.917L276.346 726.237L277.066 726.557L277.765 726.877L278.465 727.176L279.185 727.456L279.885 727.776L280.625 728.056L281.345 728.316L282.085 728.596L282.784 728.835L283.544 729.115L284.244 729.335L284.984 729.575L285.744 729.815L286.484 730.055L287.223 730.295L287.983 730.514L288.723 730.714L289.463 730.914L290.223 731.154L290.963 731.354L291.702 731.494L292.462 731.694L293.242 731.894L293.982 732.054L294.722 732.213L295.522 732.373L296.261 732.513L297.041 732.673L297.781 732.833L298.581 732.953L299.321 733.113L300.101 733.233L300.86 733.353L301.64 733.473L302.38 733.573L303.18 733.693L303.92 733.773L304.7 733.892L305.479 733.972L306.239 734.052L307.019 734.132L307.759 734.212L308.559 734.292L309.339 734.372L310.078 734.412L310.478 734.452L310.858 734.492L311.298 734.532H311.698L312.078 734.552L312.518 734.592H312.938L313.378 734.632H313.818L314.237 734.672H314.677L315.137 734.712H315.577L316.057 734.752H316.517H316.997L317.457 734.792H317.937H318.397H318.916H319.376H319.896L320.396 734.832L320.876 734.792H321.396H321.896H322.456H322.956H323.475L324.015 734.752H324.535H325.075L325.635 734.712H326.175L326.735 734.672L327.275 734.632H327.835L328.374 734.592L328.934 734.552L329.514 734.532L330.054 734.492L330.654 734.452L331.194 734.412L331.794 734.372L332.374 734.292L332.973 734.252L333.553 734.212L334.153 734.132L334.733 734.092L335.333 734.012L335.913 733.932L336.493 733.853L337.092 733.813L337.672 733.733L338.272 733.653L338.852 733.573L339.412 733.493L339.992 733.433L340.552 733.313L341.132 733.233L341.691 733.153L342.231 733.073L342.791 732.953L343.291 732.873L343.851 732.793L344.351 732.673L344.911 732.593L345.411 732.473L345.931 732.373L346.43 732.293L346.95 732.173L347.45 732.094L347.97 731.974L348.47 731.854L348.95 731.734L349.45 731.654L349.93 731.534L350.39 731.414L350.869 731.294L351.349 731.194L351.809 731.074L352.289 730.954L352.749 730.834L353.189 730.714L353.669 730.594L354.089 730.474L354.529 730.355L354.989 730.235L355.428 730.135L355.868 730.015L356.288 729.895L356.728 729.775L357.108 729.655L357.548 729.495L357.988 729.375L358.368 729.255L358.768 729.155L359.188 729.035L359.588 728.915L359.987 728.795L360.367 728.676L360.767 728.516L361.167 728.396L361.547 728.276L361.947 728.156L362.287 728.056" stroke="#A3A3A3" stroke-width="2" stroke-linecap="round" stroke-linejoin="round"/>
<path d="M421.274 694.176L420.794 694.655L420.334 695.115L419.854 695.595L419.374 696.014L418.914 696.494L418.434 696.934L417.975 697.354L417.495 697.833L417.035 698.253L416.555 698.693L416.075 699.113L415.615 699.552L415.135 699.952L414.715 700.372L414.235 700.772L413.775 701.211L413.336 701.591L412.856 701.991L412.396 702.371L411.956 702.771L411.536 703.17L411.056 703.55L410.616 703.95L410.196 704.31L409.716 704.689L409.296 705.049L408.856 705.409L408.437 705.789L408.037 706.149L407.597 706.508L407.177 706.808L406.737 707.168L405.917 707.868L405.097 708.547L404.218 709.207L403.398 709.866L402.578 710.546L401.718 711.166L400.858 711.845L400.018 712.465L399.159 713.105L398.299 713.724L397.439 714.344L396.579 714.983L395.699 715.563L394.8 716.203L393.94 716.782L393.04 717.362L392.18 717.962L391.28 718.541L390.361 719.101L389.461 719.681L389.041 719.961L388.561 720.24L388.121 720.52L387.661 720.78L387.221 721.06L386.761 721.3L386.321 721.58L385.862 721.839L385.382 722.119L384.942 722.359L384.482 722.639L384.002 722.859L383.582 723.139L383.102 723.379L382.622 723.618L382.162 723.878L381.722 724.118L381.263 724.358L380.783 724.598L380.323 724.838L379.843 725.058L379.423 725.297L378.943 725.537L378.463 725.777L378.003 725.997L377.523 726.197L377.063 726.437L376.584 726.677L376.124 726.877L375.644 727.096L375.164 727.296L374.704 727.496L374.224 727.736L373.764 727.936L373.324 728.116L372.864 728.316L372.384 728.516L371.925 728.715L371.445 728.915L370.965 729.115L370.505 729.255L370.025 729.455L369.565 729.655L369.085 729.815L368.665 730.015L368.185 730.175L367.706 730.334L367.286 730.474L366.806 730.634L366.346 730.794L365.906 730.954L365.446 731.114L364.966 731.274L364.486 731.414L364.066 731.534L363.586 731.694" stroke="#A3A3A3" stroke-width="2" stroke-linecap="round" stroke-linejoin="round"/>
<path d="M504.416 622.977L504.376 622.937H504.336H504.296H504.256L504.216 622.897H504.196H504.096L504.076 622.877H503.996H503.956L503.876 622.817H503.796H503.716L503.636 622.797H503.516L503.436 622.757H503.316L503.236 622.717H503.116L503.016 622.677H502.896L502.776 622.637L502.656 622.597H502.536L502.416 622.557H502.256L502.096 622.517H501.996L501.836 622.477L501.676 622.437H501.516L501.356 622.397H501.196L500.996 622.357H500.856L500.657 622.317L500.497 622.277H500.297L500.097 622.237H499.897L499.717 622.197H499.517L499.317 622.157H499.117L498.877 622.117H498.697L498.457 622.077H498.217L498.017 622.037H497.777H497.557L497.317 621.997H497.077H496.797L496.577 621.957H496.337H496.058L495.778 621.917H495.558H495.278H494.998L494.718 621.877H494.458H494.178H493.898H493.618L493.318 621.837H493.038H492.758H492.438H492.138H491.858H491.539H491.219H490.919H490.599L490.279 621.817H489.979H489.659H489.299H488.999H488.679H488.319H487.959H487.659H487.299H486.96H486.6H486.24L485.9 621.758H485.54H485.18H484.84H484.48H484.08L483.72 621.718H483.34H482.98H482.6H482.241L481.841 621.698H481.461H481.061L480.661 621.658H480.281H479.881L479.481 621.618H479.101L478.661 621.578H478.281L477.882 621.538H477.442L477.062 621.498L476.622 621.458H476.222L475.802 621.418L475.362 621.378H474.982L474.542 621.338L474.102 621.298L473.722 621.258L473.283 621.218H472.863L472.463 621.178L472.023 621.138L471.603 621.098L471.203 621.058L470.763 621.018L470.383 620.978L469.943 620.938L469.523 620.858L469.123 620.818L468.704 620.778L468.264 620.738L467.864 620.698L467.444 620.638L467.044 620.598L466.604 620.558L466.184 620.478L465.784 620.438L465.364 620.358L464.964 620.318L464.524 620.238L464.145 620.198L463.705 620.118L463.325 620.078L462.925 619.999L462.485 619.919L462.105 619.839L461.705 619.799L461.265 619.719L460.885 619.659L460.485 619.579L460.085 619.499L459.705 619.419L459.266 619.339L458.886 619.259L458.486 619.179L458.086 619.099L457.666 619.019L457.266 618.939L456.846 618.819L456.446 618.739L456.006 618.659L455.586 618.539L455.147 618.479L454.707 618.359L454.327 618.24L453.887 618.12L453.467 618L453.027 617.88L452.587 617.76L452.167 617.64L451.687 617.52L451.267 617.38L450.827 617.26L450.408 617.1L449.968 616.98L449.488 616.82L449.068 616.66L448.628 616.501L448.208 616.361L447.728 616.201L447.288 616.041L446.868 615.841L446.428 615.681L445.969 615.481L445.529 615.301L445.089 615.141L444.669 614.941L444.229 614.742L443.849 614.542L443.409 614.342L443.009 614.122L442.589 613.922L442.189 613.722L441.789 613.482L441.41 613.242L441.01 613.063L440.63 612.823L440.23 612.583L439.83 612.343L439.45 612.103L439.09 611.883L438.69 611.643L438.35 611.364L437.99 611.124L437.59 610.904L437.25 610.624L436.891 610.344L436.531 610.064L436.191 609.844L435.791 609.565L435.431 609.285L435.131 608.965L434.771 608.705L434.411 608.425L434.071 608.105L433.711 607.826L433.351 607.526L433.011 607.206L432.651 606.886L432.292 606.586L431.952 606.267L431.632 605.947L431.272 605.647L430.892 605.287L430.532 604.967L430.172 604.607L429.832 604.268L429.472 603.908L429.112 603.548L428.732 603.208L428.372 602.848L428.012 602.449L427.633 602.109L427.273 601.709L426.873 601.369L426.493 600.97L426.133 600.57L425.733 600.19L425.353 599.79L424.953 599.391L424.573 599.011L424.173 598.611L423.733 598.211L423.353 597.791L422.954 597.392L422.514 596.972L422.094 596.532L421.694 596.132L421.274 595.713" stroke="#A3A3A3" stroke-width="2" stroke-linecap="round" stroke-linejoin="round"/>
<path d="M504.416 666.891V666.951H504.376H504.336H504.296H504.256L504.216 666.971H504.196H504.096L504.076 667.011H503.996H503.956L503.876 667.051H503.796H503.716L503.636 667.091H503.516L503.436 667.131H503.316L503.236 667.171H503.116L503.016 667.211H502.896L502.776 667.251L502.656 667.291H502.536L502.416 667.331H502.256L502.096 667.371H501.996L501.836 667.411L501.676 667.451H501.516L501.356 667.491H501.196L500.996 667.531H500.856L500.657 667.571L500.497 667.611H500.297L500.097 667.651H499.897L499.717 667.691H499.517L499.317 667.731H499.117L498.877 667.771H498.697L498.457 667.811H498.217L498.017 667.851H497.777H497.557L497.317 667.891H497.077H496.797L496.577 667.911H496.337H496.058L495.778 667.951H495.558H495.278H494.998L494.718 668.011H494.458H494.178H493.898H493.618L493.318 668.031H493.038H492.758H492.438H492.138H491.858H491.539H491.219H490.919L490.599 668.071H490.279H489.979H489.659H489.299H488.999H488.679H488.319H487.959H487.659H487.299H486.96H486.6H486.24L485.9 668.111H485.54H485.18H484.84H484.48H484.08L483.72 668.151H483.34H482.98H482.6H482.241L481.841 668.191H481.461H481.061L480.661 668.231H480.281H479.881L479.481 668.271H479.101L478.661 668.311H478.281L477.882 668.351H477.442L477.062 668.391L476.622 668.43H476.222L475.802 668.47L475.362 668.51H474.982L474.542 668.55L474.102 668.59L473.722 668.63L473.283 668.67H472.863L472.463 668.71L472.023 668.75L471.603 668.79L471.203 668.83L470.763 668.87L470.383 668.91L469.943 668.99L469.523 669.01L469.123 669.07L468.704 669.09L468.264 669.13L467.864 669.17L467.444 669.25L467.044 669.29L466.604 669.33L466.184 669.41L465.784 669.45L465.364 669.53L464.964 669.57L464.524 669.65L464.145 669.69L463.705 669.77L463.325 669.81L462.925 669.89L462.485 669.97L462.105 670.05L461.705 670.07L461.265 670.149L460.885 670.229L460.485 670.309L460.085 670.389L459.705 670.469L459.266 670.549L458.886 670.629L458.486 670.709L458.086 670.789L457.666 670.869L457.266 670.949L456.846 671.069L456.446 671.129L456.006 671.209L455.586 671.329L455.147 671.409L454.707 671.529L454.327 671.649L453.887 671.769L453.467 671.888L453.027 672.008L452.587 672.128L452.167 672.248L451.687 672.348L451.267 672.508L450.827 672.628L450.408 672.788L449.968 672.908L449.488 673.068L449.068 673.228L448.628 673.388L448.208 673.528L447.728 673.687L447.288 673.847L446.868 674.047L446.428 674.207L445.969 674.387L445.529 674.587L445.089 674.747L444.669 674.947L444.229 675.147L443.849 675.346L443.409 675.526L443.009 675.766L442.589 675.966L442.189 676.166L441.789 676.406L441.41 676.626L441.01 676.826L440.63 677.065L440.23 677.305L439.83 677.545L439.45 677.765L439.09 678.005L438.69 678.245L438.35 678.525L437.99 678.764L437.59 679.024L437.25 679.264L436.891 679.544L436.531 679.824L436.191 680.044L435.791 680.324L435.431 680.603L435.131 680.903L434.771 681.183L434.411 681.463L434.071 681.783L433.711 682.043L433.351 682.362L433.011 682.682L432.651 683.002L432.292 683.302L431.952 683.622L431.632 683.941L431.272 684.241L430.892 684.601L430.532 684.961L430.172 685.261L429.832 685.62L429.472 685.98L429.112 686.32L428.732 686.68L428.372 687.04L428.012 687.419L427.633 687.779L427.273 688.179L426.873 688.519L426.493 688.919L426.133 689.318L425.733 689.698L425.353 690.098L424.953 690.498L424.573 690.877L424.173 691.277L423.733 691.657L423.353 692.097L422.954 692.496L422.514 692.916L422.094 693.356L421.694 693.756L421.274 694.176" stroke="#A3A3A3" stroke-width="2" stroke-linecap="round" stroke-linejoin="round"/>
<path d="M363.587 731.694L363.167 731.854L362.727 731.974L362.287 732.134L361.867 732.253L361.427 732.413L361.007 732.513L360.567 732.673L360.107 732.793L359.667 732.953L359.187 733.073L358.768 733.233L358.288 733.353L357.868 733.473L357.388 733.613L356.928 733.733L356.448 733.853L355.968 734.012L355.508 734.132L355.028 734.252L354.568 734.372L354.049 734.492L353.589 734.632L353.069 734.752L352.549 734.872L352.089 734.992L351.569 735.112L351.069 735.232L350.549 735.352L350.049 735.472L349.49 735.592L348.99 735.651L348.43 735.771L347.93 735.891L347.37 736.011L346.83 736.091L346.27 736.211L345.73 736.331L345.171 736.411L344.631 736.531L344.051 736.611L343.491 736.671L342.891 736.791L342.311 736.871L341.731 736.951L341.131 737.031L340.552 737.111L339.912 737.191L339.332 737.31L338.692 737.35L338.072 737.43L337.492 737.51L336.852 737.59L336.272 737.63L335.633 737.71L335.053 737.75L334.453 737.83L333.833 737.85L333.233 737.93L332.653 737.97L332.073 738.01L331.474 738.05L330.894 738.09L330.334 738.13L329.754 738.17L329.154 738.21H328.614L328.014 738.25L327.474 738.29H326.915L326.335 738.33H325.775L325.235 738.37H324.675H324.135H323.615L323.075 738.41H322.516H322.016H321.496H320.956H320.436H319.936H319.416H318.916L318.436 738.37H317.937H317.417L316.957 738.33H316.477H315.997L315.537 738.29H315.057L314.597 738.25H314.117L313.697 738.21H313.258L312.778 738.17L312.358 738.13H311.918L311.498 738.09L311.098 738.05H310.678L310.278 738.01L309.878 737.97L309.058 737.93L308.279 737.85L307.499 737.79L306.699 737.71L305.919 737.63L305.099 737.55L304.3 737.47L303.52 737.35L302.74 737.271L301.96 737.151L301.16 737.071L300.38 736.951L299.601 736.831L298.801 736.671L298.021 736.571L297.241 736.451L296.421 736.291L295.681 736.171L294.882 736.011L294.102 735.851L293.322 735.711L292.522 735.512L291.742 735.352L290.962 735.152L290.183 734.992L289.383 734.792L288.643 734.592L287.863 734.412L287.063 734.212L286.323 733.972L285.544 733.773L284.804 733.533L284.004 733.313L283.264 733.073L282.524 732.833L281.764 732.553L280.985 732.333L280.245 732.054L279.505 731.774L278.745 731.494L278.005 731.234L277.265 730.954L276.546 730.634L275.806 730.355L275.066 730.055L274.346 729.735L273.606 729.415L272.906 729.115L272.147 728.755L271.447 728.396L270.747 728.056L270.027 727.696L269.327 727.336L268.627 726.997L267.947 726.597L267.248 726.237L266.568 725.857L265.868 725.457L265.208 725.058L264.528 724.638L263.868 724.238L263.209 723.798L262.529 723.379L261.909 722.939L261.249 722.519L260.609 722.079L259.949 721.62L259.309 721.14L258.69 720.66L258.07 720.2L257.43 719.721L256.85 719.221L256.21 718.741L255.63 718.242L255.03 717.722L254.45 717.222" stroke="#A3A3A3" stroke-width="2" stroke-linecap="round" stroke-linejoin="round"/>
<path d="M421.274 595.713L420.794 595.233L420.334 594.773L419.854 594.294L419.374 593.874L418.914 593.394L418.434 592.954L417.975 592.495L417.495 592.055L417.035 591.615L416.555 591.195L416.075 590.756L415.615 590.336L415.135 589.896L414.675 589.496L414.235 589.077L413.775 588.677L413.296 588.297L412.856 587.857L412.396 587.458L411.956 587.078L411.496 586.678L411.056 586.338L410.616 585.938L410.156 585.539L409.716 585.179L409.296 584.839L408.856 584.439L408.437 584.1L407.997 583.74L407.597 583.38L406.737 582.72L405.917 582.001L405.097 581.341L404.218 580.682L403.398 580.002L402.538 579.342L401.718 578.723L400.858 578.043L400.018 577.423L399.159 576.784L398.299 576.164L397.439 575.525L396.579 574.905L395.699 574.285L394.8 573.686L393.94 573.106L393.04 572.506L392.18 571.927L391.28 571.327L390.361 570.787L389.461 570.188L389.041 569.928L388.561 569.648L388.121 569.368L387.661 569.108L387.221 568.828L386.761 568.589L386.281 568.309L385.862 568.029L385.382 567.769L384.942 567.529L384.482 567.249L384.002 567.009L383.582 566.75L383.102 566.51L382.622 566.27L382.162 565.99L381.722 565.77L381.263 565.53L380.783 565.29L380.323 565.051L379.843 564.831L379.383 564.591L378.943 564.351L378.463 564.111L378.003 563.871L377.523 563.691L377.063 563.452L376.584 563.212L376.124 563.012L375.644 562.772L375.164 562.592L374.704 562.392L374.224 562.152L373.764 561.952L373.284 561.753L372.824 561.573L372.344 561.373L371.885 561.173L371.405 560.973L370.965 560.773L370.505 560.613L370.025 560.433L369.565 560.233L369.085 560.074L368.665 559.874L368.185 559.714L367.706 559.554L367.286 559.414L366.806 559.254L366.346 559.094L365.866 558.934L365.446 558.774L364.966 558.614L364.486 558.454L364.066 558.355L363.586 558.195L363.167 558.035L362.727 557.915L362.287 557.755L361.867 557.635L361.427 557.475L361.007 557.355L360.567 557.215L360.107 557.095L359.667 556.935L359.227 556.815L358.767 556.695L358.328 556.536L357.868 556.416L357.388 556.256L356.928 556.156L356.448 556.036L356.008 555.916L355.508 555.756L355.028 555.636L354.568 555.516L354.089 555.396L353.589 555.276L353.109 555.136L352.609 555.016L352.089 554.897L351.609 554.777L351.109 554.657L350.589 554.537L350.049 554.417L349.53 554.337L349.03 554.217L348.47 554.117L347.97 553.997L347.41 553.917L346.87 553.797L346.31 553.677L345.77 553.597L345.21 553.477L344.671 553.397L344.071 553.277L343.531 553.198L342.951 553.118L342.351 553.018L341.771 552.938L341.171 552.858L340.591 552.778L339.992 552.698L339.412 552.618L338.812 552.538L338.232 552.458L337.592 552.378L337.052 552.338L336.452 552.258L335.873 552.218L335.293 552.138L334.693 552.098L334.113 552.018L333.553 551.978L332.973 551.958L332.413 551.918L331.833 551.878L331.274 551.838L330.694 551.798L330.134 551.758L329.594 551.718L329.034 551.678H328.494L327.934 551.638L327.394 551.598H326.834L326.295 551.558H325.775L325.235 551.518H324.675H324.175H323.655L323.115 551.479H322.595H322.096H321.576H321.076H320.596H320.096H319.576H319.116L318.596 551.518H318.136H317.656H317.177L316.717 551.558H316.237L315.777 551.598H315.337H314.877L314.437 551.638H313.957L313.537 551.678L313.098 551.718H312.678L312.238 551.758H311.838L311.418 551.798L311.018 551.838H310.598L309.798 551.918L308.978 551.958L308.199 552.018L307.399 552.098L306.579 552.178L305.799 552.258L304.979 552.338L304.179 552.458L303.4 552.538L302.58 552.658L301.8 552.738L300.96 552.858L300.18 552.958L299.401 553.078L298.581 553.198L297.781 553.357L297.001 553.477L296.221 553.637L295.401 553.797L294.602 553.957L293.822 554.117L293.042 554.257L292.262 554.417L291.462 554.617L290.642 554.777L289.863 554.976L289.083 555.176L288.283 555.356L287.543 555.556L286.763 555.796L285.963 555.996L285.184 556.236L284.444 556.456L283.664 556.695L282.864 556.935L282.124 557.175L281.344 557.435L280.585 557.715L279.845 557.995L279.065 558.275L278.325 558.534L277.565 558.814L276.825 559.134L276.086 559.414L275.326 559.714L274.586 560.034L273.886 560.353L273.126 560.693L272.386 561.013L271.687 561.373L270.947 561.713L270.227 562.072L269.527 562.432L268.807 562.812L268.107 563.172L267.408 563.571L266.728 563.951L266.028 564.351L265.368 564.751L264.648 565.171L263.988 565.57L263.328 565.99L262.649 566.43L261.989 566.87L261.309 567.329L260.689 567.769L260.029 568.229L259.389 568.708L258.769 569.168L258.09 569.648L257.47 570.128L256.89 570.627L256.25 571.147L255.63 571.647L255.03 572.166L254.45 572.666L253.97 573.106L253.471 573.526L252.991 573.965L252.571 574.405L252.091 574.825L251.611 575.265L251.151 575.684L250.671 576.164L250.251 576.604L249.771 577.024L249.351 577.503L248.912 577.923L248.432 578.403L248.012 578.863L247.572 579.342L247.152 579.782L246.712 580.242L246.272 580.722L245.852 581.181L245.412 581.661L244.992 582.161L244.593 582.64L244.153 583.12L243.773 583.58L243.333 584.1L242.953 584.559L242.553 585.079L242.153 585.579L241.773 586.058L241.373 586.558L240.973 587.078L240.593 587.578L240.193 588.097L239.834 588.597L239.454 589.117L239.094 589.616L238.694 590.136L238.354 590.656L237.994 591.195L237.634 591.715L237.294 592.255L236.934 592.775L236.574 593.314L236.234 593.834L235.874 594.374L235.555 594.933L235.215 595.473L234.895 595.993L234.575 596.532L234.275 597.092L233.955 597.632L233.635 598.211L233.315 598.771L233.015 599.311L232.695 599.87L232.415 600.45L232.115 601.01L231.835 601.589L231.555 602.149L231.235 602.729L230.976 603.288L230.696 603.868L230.456 604.468L230.176 605.047L229.916 605.647L229.676 606.187L229.396 606.766L229.156 607.366L228.936 607.946L228.696 608.545L228.456 609.125L228.216 609.765L227.976 610.344L227.756 610.944L227.556 611.524L227.356 612.103L227.116 612.743L226.916 613.323L226.736 613.962L226.536 614.542L226.337 615.142L226.137 615.761L225.977 616.381L225.797 616.98L225.637 617.6L225.477 618.2L225.277 618.819L225.117 619.459L224.957 620.079L224.797 620.698L224.677 621.338L224.537 621.958L224.417 622.597L224.257 623.217L224.137 623.856L224.017 624.476L223.857 625.096L223.737 625.735L223.657 626.355L223.557 626.995L223.437 627.654L223.357 628.274L223.237 628.913L223.157 629.533L223.077 630.173L222.997 630.832L222.917 631.472L222.837 632.092L222.757 632.711L222.677 633.351L222.637 634.011L222.577 634.65L222.537 635.27L222.457 635.889L222.417 636.569L222.377 637.189L222.337 637.828L222.297 638.488L222.257 639.108V639.747L222.217 640.407V641.046L222.177 641.706V642.326L222.137 643.005V643.625V644.305V644.964V645.584V646.263V646.883L222.177 647.563V648.182L222.217 648.842V649.482L222.257 650.141V650.781L222.297 651.4L222.337 652.06L222.377 652.7L222.417 653.319L222.457 653.979L222.537 654.619L222.577 655.238L222.637 655.878L222.677 656.537L222.757 657.177L222.837 657.797L222.917 658.416L222.997 659.056L223.077 659.716L223.157 660.355L223.237 660.975L223.357 661.595L223.437 662.234L223.557 662.894L223.657 663.533L223.737 664.153L223.857 664.793L224.017 665.412L224.137 666.032L224.257 666.672L224.417 667.291L224.537 667.911L224.677 668.55L224.797 669.17L224.957 669.81L225.117 670.429L225.277 671.069L225.477 671.689L225.637 672.268L225.797 672.908L225.977 673.488L226.137 674.127L226.337 674.747L226.536 675.347L226.736 675.926L226.916 676.566L227.116 677.145L227.356 677.765L227.556 678.365L227.756 678.944L227.976 679.544L228.216 680.124L228.456 680.763L228.696 681.343L228.936 681.943L229.156 682.522L229.396 683.102L229.676 683.702L229.916 684.241L230.176 684.841L230.456 685.421L230.696 686.02L230.976 686.6L231.235 687.16L231.555 687.739L231.835 688.299L232.115 688.879L232.415 689.438L232.695 690.018L233.015 690.558L233.315 691.117L233.635 691.657L233.955 692.257L234.275 692.796L234.575 693.356L234.895 693.896L235.215 694.415L235.555 694.955L235.874 695.515L236.234 696.054L236.574 696.574L236.934 697.114L237.294 697.634L237.634 698.173L237.994 698.693L238.354 699.233L238.694 699.752L239.094 700.252L239.454 700.772L239.834 701.291L240.193 701.791L240.593 702.311L240.973 702.811L241.373 703.33L241.773 703.83L242.153 704.31L242.553 704.809L242.953 705.329L243.333 705.789L243.773 706.308L244.153 706.768L244.593 707.248L244.992 707.728L245.412 708.227L245.852 708.707L246.272 709.167L246.712 709.647L247.152 710.106L247.572 710.546L248.012 711.006L248.432 711.485L248.912 711.965L249.351 712.385L249.771 712.865L250.251 713.284L250.671 713.724L251.151 714.184L251.611 714.624L252.091 715.063L252.571 715.483L252.991 715.923L253.471 716.363L253.97 716.782L254.45 717.222" stroke="#A3A3A3" stroke-width="2" stroke-linecap="round" stroke-linejoin="round"/>
<path d="M677.998 437.825H678.557" stroke="#A3A3A3" stroke-width="2" stroke-linecap="round" stroke-linejoin="round"/>
<path d="M681.397 437.825H992.589" stroke="#A3A3A3" stroke-width="2" stroke-linecap="round" stroke-linejoin="round" stroke-dasharray="1.42 1.42"/>
<path d="M994.008 437.825H994.568" stroke="#A3A3A3" stroke-width="2" stroke-linecap="round" stroke-linejoin="round"/>
<path d="M789.973 788.681H790.533" stroke="#A3A3A3" stroke-width="2" stroke-linecap="round" stroke-linejoin="round"/>
<path d="M793.352 788.681H992.609" stroke="#A3A3A3" stroke-width="2" stroke-linecap="round" stroke-linejoin="round" stroke-dasharray="1.4 1.4"/>
<path d="M994.008 788.681H994.568" stroke="#A3A3A3" stroke-width="2" stroke-linecap="round" stroke-linejoin="round"/>
<path d="M994.568 437.825V788.681" stroke="#A3A3A3" stroke-width="2" stroke-linecap="round" stroke-linejoin="round"/>
<path d="M1022.8 641.979C1021.88 641.929 1021.07 641.739 1020.39 641.409C1019.71 641.074 1019.08 640.425 1018.52 639.46L1017.69 638.021C1017.32 637.377 1017 636.925 1016.73 636.665C1016.32 636.255 1015.84 636.05 1015.31 636.05C1014.68 636.05 1014.19 636.238 1013.82 636.612C1013.45 636.987 1013.27 637.487 1013.27 638.111C1013.27 639.036 1013.62 639.675 1014.32 640.03C1014.69 640.22 1015.21 640.325 1015.88 640.345V641.716C1014.94 641.701 1014.18 641.529 1013.59 641.199C1012.55 640.615 1012.03 639.583 1012.03 638.104C1012.03 636.875 1012.37 635.978 1013.03 635.413C1013.69 634.843 1014.43 634.559 1015.25 634.559C1016.11 634.559 1016.84 634.861 1017.45 635.466C1017.81 635.815 1018.24 636.442 1018.74 637.347L1019.31 638.374C1019.58 638.863 1019.84 639.248 1020.08 639.528C1020.52 640.028 1021 640.342 1021.53 640.472V634.611H1022.8V641.979ZM1015.2 632.445H1014.17C1014.07 631.471 1013.92 630.791 1013.7 630.406C1013.47 630.022 1012.94 629.734 1012.12 629.544V628.48H1022.8V629.919H1015.2V632.445ZM1012.07 621.217C1012.07 619.828 1012.64 618.824 1013.79 618.204C1014.67 617.725 1015.88 617.485 1017.42 617.485C1018.88 617.485 1020.09 617.702 1021.04 618.137C1022.41 618.766 1023.1 619.796 1023.1 621.225C1023.1 622.514 1022.54 623.473 1021.42 624.103C1020.48 624.628 1019.23 624.89 1017.65 624.89C1016.43 624.89 1015.39 624.733 1014.51 624.418C1012.88 623.828 1012.07 622.761 1012.07 621.217ZM1021.87 621.232C1021.87 620.533 1021.56 619.976 1020.94 619.561C1020.32 619.146 1019.16 618.939 1017.47 618.939C1016.25 618.939 1015.25 619.089 1014.47 619.389C1013.68 619.688 1013.28 620.27 1013.28 621.135C1013.28 621.929 1013.66 622.511 1014.41 622.881C1015.15 623.246 1016.25 623.428 1017.71 623.428C1018.8 623.428 1019.68 623.311 1020.34 623.076C1021.36 622.716 1021.87 622.102 1021.87 621.232ZM1014.78 611.564V610.229H1015.92C1015.52 609.91 1015.23 609.62 1015.05 609.36C1014.75 608.915 1014.6 608.411 1014.6 607.846C1014.6 607.206 1014.75 606.692 1015.07 606.302C1015.25 606.082 1015.51 605.882 1015.86 605.702C1015.43 605.403 1015.12 605.05 1014.91 604.646C1014.7 604.241 1014.6 603.786 1014.6 603.282C1014.6 602.202 1014.99 601.468 1015.77 601.078C1016.19 600.868 1016.75 600.763 1017.46 600.763H1022.8V602.165H1017.23C1016.69 602.165 1016.32 602.3 1016.13 602.569C1015.93 602.834 1015.83 603.159 1015.83 603.544C1015.83 604.074 1016 604.531 1016.36 604.915C1016.71 605.295 1017.3 605.485 1018.13 605.485H1022.8V606.857H1017.56C1017.02 606.857 1016.62 606.922 1016.37 607.052C1016 607.256 1015.81 607.639 1015.81 608.198C1015.81 608.708 1016.01 609.173 1016.4 609.592C1016.8 610.007 1017.51 610.215 1018.55 610.215H1022.8V611.564H1014.78ZM1014.78 598.777V597.443H1015.92C1015.52 597.123 1015.23 596.833 1015.05 596.573C1014.75 596.129 1014.6 595.624 1014.6 595.059C1014.6 594.42 1014.75 593.905 1015.07 593.515C1015.25 593.296 1015.51 593.096 1015.86 592.916C1015.43 592.616 1015.12 592.264 1014.91 591.859C1014.7 591.454 1014.6 591 1014.6 590.495C1014.6 589.416 1014.99 588.681 1015.77 588.291C1016.19 588.081 1016.75 587.976 1017.46 587.976H1022.8V589.378H1017.23C1016.69 589.378 1016.32 589.513 1016.13 589.783C1015.93 590.048 1015.83 590.372 1015.83 590.757C1015.83 591.287 1016 591.744 1016.36 592.129C1016.71 592.509 1017.3 592.698 1018.13 592.698H1022.8V594.07H1017.56C1017.02 594.07 1016.62 594.135 1016.37 594.265C1016 594.47 1015.81 594.852 1015.81 595.412C1015.81 595.921 1016.01 596.386 1016.4 596.806C1016.8 597.22 1017.51 597.428 1018.55 597.428H1022.8V598.777H1014.78Z" fill="#A3A3A3"/>
<path d="M118.4 665.455H117.366C117.271 664.481 117.113 663.801 116.893 663.417C116.669 663.032 116.141 662.745 115.312 662.555V661.49H126V662.929H118.4V665.455ZM115.267 654.228C115.267 652.838 115.839 651.834 116.983 651.215C117.868 650.735 119.08 650.495 120.619 650.495C122.078 650.495 123.284 650.712 124.239 651.147C125.608 651.777 126.292 652.806 126.292 654.235C126.292 655.524 125.733 656.484 124.613 657.113C123.679 657.638 122.425 657.9 120.851 657.9C119.632 657.9 118.585 657.743 117.71 657.428C116.081 656.838 115.267 655.772 115.267 654.228ZM125.063 654.243C125.063 653.543 124.753 652.986 124.134 652.571C123.514 652.156 122.36 651.949 120.671 651.949C119.452 651.949 118.45 652.099 117.665 652.399C116.876 652.699 116.481 653.281 116.481 654.145C116.481 654.94 116.856 655.522 117.605 655.892C118.35 656.256 119.449 656.439 120.903 656.439C121.998 656.439 122.877 656.321 123.542 656.086C124.556 655.727 125.063 655.112 125.063 654.243ZM119.764 645.661C119.764 645.066 119.599 644.601 119.269 644.267C118.935 643.932 118.537 643.764 118.078 643.764C117.678 643.764 117.311 643.924 116.976 644.244C116.641 644.564 116.474 645.051 116.474 645.706C116.474 646.355 116.641 646.825 116.976 647.115C117.311 647.405 117.703 647.549 118.153 647.549C118.657 647.549 119.052 647.362 119.337 646.987C119.622 646.613 119.764 646.17 119.764 645.661ZM125.078 645.578C125.078 644.954 124.911 644.436 124.576 644.027C124.236 643.612 123.731 643.405 123.062 643.405C122.367 643.405 121.84 643.617 121.48 644.042C121.121 644.466 120.941 645.011 120.941 645.676C120.941 646.32 121.126 646.847 121.495 647.257C121.86 647.662 122.367 647.864 123.017 647.864C123.577 647.864 124.061 647.679 124.471 647.31C124.876 646.935 125.078 646.358 125.078 645.578ZM120.281 647.497C120.121 647.872 119.934 648.164 119.719 648.374C119.319 648.769 118.8 648.966 118.16 648.966C117.361 648.966 116.674 648.676 116.099 648.097C115.524 647.517 115.237 646.695 115.237 645.631C115.237 644.601 115.509 643.794 116.054 643.21C116.594 642.625 117.226 642.333 117.95 642.333C118.62 642.333 119.162 642.503 119.577 642.843C119.812 643.032 120.041 643.327 120.266 643.727C120.471 643.282 120.706 642.932 120.971 642.678C121.47 642.203 122.12 641.966 122.92 641.966C123.864 641.966 124.666 642.283 125.325 642.917C125.98 643.552 126.307 644.449 126.307 645.608C126.307 646.653 126.025 647.537 125.46 648.261C124.891 648.981 124.066 649.341 122.987 649.341C122.352 649.341 121.805 649.186 121.346 648.876C120.881 648.566 120.526 648.107 120.281 647.497ZM117.973 636.029V634.695H119.112C118.717 634.376 118.43 634.086 118.25 633.826C117.945 633.381 117.793 632.876 117.793 632.312C117.793 631.672 117.95 631.158 118.265 630.768C118.445 630.548 118.71 630.348 119.06 630.168C118.63 629.868 118.313 629.516 118.108 629.111C117.898 628.707 117.793 628.252 117.793 627.747C117.793 626.668 118.183 625.934 118.962 625.544C119.382 625.334 119.946 625.229 120.656 625.229H126V626.631H120.424C119.889 626.631 119.522 626.765 119.322 627.035C119.122 627.3 119.022 627.625 119.022 628.01C119.022 628.539 119.199 628.997 119.554 629.381C119.909 629.761 120.501 629.951 121.331 629.951H126V631.323H120.761C120.216 631.323 119.819 631.387 119.569 631.517C119.194 631.722 119.007 632.105 119.007 632.664C119.007 633.174 119.204 633.639 119.599 634.058C119.994 634.473 120.708 634.68 121.743 634.68H126V636.029H117.973ZM117.973 623.243V621.909H119.112C118.717 621.589 118.43 621.299 118.25 621.039C117.945 620.594 117.793 620.09 117.793 619.525C117.793 618.886 117.95 618.371 118.265 617.981C118.445 617.761 118.71 617.561 119.06 617.382C118.63 617.082 118.313 616.73 118.108 616.325C117.898 615.92 117.793 615.465 117.793 614.961C117.793 613.881 118.183 613.147 118.962 612.757C119.382 612.547 119.946 612.442 120.656 612.442H126V613.844H120.424C119.889 613.844 119.522 613.979 119.322 614.249C119.122 614.513 119.022 614.838 119.022 615.223C119.022 615.753 119.199 616.21 119.554 616.595C119.909 616.974 120.501 617.164 121.331 617.164H126V618.536H120.761C120.216 618.536 119.819 618.601 119.569 618.731C119.194 618.936 119.007 619.318 119.007 619.877C119.007 620.387 119.204 620.852 119.599 621.272C119.994 621.686 120.708 621.894 121.743 621.894H126V623.243H117.973Z" fill="#A3A3A3"/>
<path d="M346.8 417.4V416.366C347.774 416.271 348.454 416.113 348.838 415.893C349.223 415.669 349.51 415.141 349.7 414.312H350.765V425H349.325V417.4H346.8ZM358.365 414.222C359.564 414.222 360.398 414.534 360.868 415.159C361.343 415.779 361.58 416.418 361.58 417.078H360.246C360.166 416.653 360.038 416.321 359.864 416.081C359.539 415.631 359.047 415.406 358.387 415.406C357.633 415.406 357.033 415.756 356.588 416.456C356.144 417.15 355.896 418.147 355.846 419.446C356.156 418.991 356.546 418.652 357.015 418.427C357.445 418.227 357.925 418.127 358.455 418.127C359.354 418.127 360.138 418.414 360.808 418.989C361.478 419.564 361.812 420.42 361.812 421.56C361.812 422.534 361.495 423.399 360.86 424.153C360.226 424.903 359.321 425.277 358.147 425.277C357.143 425.277 356.276 424.898 355.546 424.138C354.817 423.374 354.452 422.089 354.452 420.286C354.452 418.951 354.615 417.82 354.939 416.89C355.564 415.111 356.706 414.222 358.365 414.222ZM358.267 424.078C358.977 424.078 359.506 423.841 359.856 423.366C360.211 422.886 360.388 422.322 360.388 421.672C360.388 421.123 360.231 420.6 359.916 420.106C359.601 419.606 359.029 419.356 358.2 419.356C357.62 419.356 357.11 419.549 356.671 419.933C356.236 420.318 356.019 420.898 356.019 421.672C356.019 422.352 356.216 422.924 356.611 423.389C357.01 423.848 357.563 424.078 358.267 424.078ZM366.594 418.764C367.189 418.764 367.654 418.599 367.988 418.269C368.323 417.935 368.49 417.537 368.49 417.078C368.49 416.678 368.331 416.311 368.011 415.976C367.691 415.641 367.204 415.474 366.549 415.474C365.9 415.474 365.43 415.641 365.14 415.976C364.85 416.311 364.705 416.703 364.705 417.153C364.705 417.657 364.893 418.052 365.268 418.337C365.642 418.622 366.085 418.764 366.594 418.764ZM366.677 424.078C367.301 424.078 367.818 423.911 368.228 423.576C368.643 423.236 368.85 422.731 368.85 422.062C368.85 421.367 368.638 420.84 368.213 420.48C367.788 420.121 367.244 419.941 366.579 419.941C365.935 419.941 365.407 420.126 364.998 420.495C364.593 420.86 364.391 421.367 364.391 422.017C364.391 422.577 364.576 423.061 364.945 423.471C365.32 423.876 365.897 424.078 366.677 424.078ZM364.758 419.281C364.383 419.121 364.091 418.934 363.881 418.719C363.486 418.319 363.289 417.8 363.289 417.16C363.289 416.361 363.579 415.674 364.158 415.099C364.738 414.524 365.56 414.237 366.624 414.237C367.654 414.237 368.46 414.509 369.045 415.054C369.63 415.594 369.922 416.226 369.922 416.95C369.922 417.62 369.752 418.162 369.412 418.577C369.223 418.812 368.928 419.041 368.528 419.266C368.973 419.471 369.322 419.706 369.577 419.971C370.052 420.47 370.289 421.12 370.289 421.92C370.289 422.864 369.972 423.666 369.337 424.325C368.703 424.98 367.806 425.307 366.647 425.307C365.602 425.307 364.718 425.025 363.993 424.46C363.274 423.891 362.914 423.066 362.914 421.987C362.914 421.352 363.069 420.805 363.379 420.346C363.689 419.881 364.148 419.526 364.758 419.281ZM376.225 416.973H377.56V418.112C377.879 417.717 378.169 417.43 378.429 417.25C378.874 416.945 379.378 416.793 379.943 416.793C380.583 416.793 381.097 416.95 381.487 417.265C381.707 417.445 381.907 417.71 382.087 418.06C382.386 417.63 382.739 417.313 383.143 417.108C383.548 416.898 384.003 416.793 384.508 416.793C385.587 416.793 386.321 417.183 386.711 417.962C386.921 418.382 387.026 418.946 387.026 419.656V425H385.624V419.424C385.624 418.889 385.489 418.522 385.22 418.322C384.955 418.122 384.63 418.022 384.245 418.022C383.716 418.022 383.258 418.199 382.874 418.554C382.494 418.909 382.304 419.501 382.304 420.331V425H380.932V419.761C380.932 419.216 380.867 418.819 380.738 418.569C380.533 418.194 380.15 418.007 379.591 418.007C379.081 418.007 378.616 418.204 378.197 418.599C377.782 418.994 377.575 419.708 377.575 420.743V425H376.225V416.973ZM389.012 416.973H390.346V418.112C390.666 417.717 390.956 417.43 391.216 417.25C391.66 416.945 392.165 416.793 392.73 416.793C393.369 416.793 393.884 416.95 394.274 417.265C394.494 417.445 394.693 417.71 394.873 418.06C395.173 417.63 395.525 417.313 395.93 417.108C396.335 416.898 396.79 416.793 397.294 416.793C398.374 416.793 399.108 417.183 399.498 417.962C399.708 418.382 399.813 418.946 399.813 419.656V425H398.411V419.424C398.411 418.889 398.276 418.522 398.006 418.322C397.741 418.122 397.417 418.022 397.032 418.022C396.502 418.022 396.045 418.199 395.66 418.554C395.281 418.909 395.091 419.501 395.091 420.331V425H393.719V419.761C393.719 419.216 393.654 418.819 393.524 418.569C393.319 418.194 392.937 418.007 392.377 418.007C391.868 418.007 391.403 418.204 390.983 418.599C390.569 418.994 390.361 419.708 390.361 420.743V425H389.012V416.973Z" fill="#A3A3A3"/>
<path d="M320.096 551.479H138.976" stroke="#A3A3A3" stroke-width="2" stroke-linecap="round" stroke-linejoin="round" stroke-dasharray="1.42 1.42"/>
<path d="M319.556 738.41H138.976" stroke="#A3A3A3" stroke-width="2" stroke-linecap="round" stroke-linejoin="round" stroke-dasharray="1.42 1.42"/>
<path d="M138.976 551.479V738.41" stroke="#A3A3A3" stroke-width="2" stroke-linecap="round" stroke-linejoin="round"/>
<path d="M222.137 644.964V443.681" stroke="#A3A3A3" stroke-width="2" stroke-linecap="round" stroke-linejoin="round" stroke-dasharray="1.42 1.42"/>
<path d="M504.276 622.597V443.681" stroke="#A3A3A3" stroke-width="2" stroke-linecap="round" stroke-linejoin="round" stroke-dasharray="1.42 1.42"/>
<path d="M222.137 443.681H504.416" stroke="#A3A3A3" stroke-width="2" stroke-linecap="round" stroke-linejoin="round"/>
</g>
</g>
<defs>
<clipPath id="clip0_49_2">
<rect width="1200" height="1200" fill="white"/>
</clipPath>
<clipPath id="clip1_49_2">
<rect width="1200" height="1200" fill="white"/>
</clipPath>
</defs>
</svg>
