<svg width="1200" height="1200" viewBox="0 0 1200 1200" fill="none" xmlns="http://www.w3.org/2000/svg">
<g clip-path="url(#clip0_49_2)">
<mask id="mask0_49_2" style="mask-type:luminance" maskUnits="userSpaceOnUse" x="205" y="205" width="250" height="250">
<path d="M455 330C455 260.964 399.036 205 330 205C260.964 205 205 260.964 205 330C205 399.036 260.964 455 330 455C399.036 455 455 399.036 455 330Z" fill="white"/>
</mask>
<g mask="url(#mask0_49_2)">
<path d="M455 205H205V455H455V205Z" fill="black"/>
<g filter="url(#filter0_f_49_2)">
<path d="M476.197 276.867L513.048 184.873L495.04 82.7423L167.284 140.535L198.843 319.517L268.805 341.585L378.302 231.57L476.197 276.867Z" fill="#848486"/>
</g>
<g style="mix-blend-mode:overlay" filter="url(#filter1_f_49_2)">
<path d="M324.213 363.758L456.279 407.485L579.153 278.883L461.024 25.4951L233.847 151.294L292.513 231.608L347.011 141.885L499.516 181.163L324.213 363.758Z" fill="#111111"/>
</g>
</g>
</g>
<g clip-path="url(#clip1_49_2)">
<mask id="mask1_49_2" style="mask-type:luminance" maskUnits="userSpaceOnUse" x="475" y="205" width="250" height="250">
<path d="M725 330C725 260.964 669.036 205 600 205C530.964 205 475 260.964 475 330C475 399.036 530.964 455 600 455C669.036 455 725 399.036 725 330Z" fill="white"/>
</mask>
<g mask="url(#mask1_49_2)">
<path d="M725 205H475V455H725V205Z" fill="black"/>
<g filter="url(#filter2_f_49_2)">
<path d="M491.995 218.054L392.966 221.806L306.99 279.798L493.096 555.712L643.769 454.082L635.472 381.193L490.432 325.909L491.995 218.054Z" fill="#4F4F4F"/>
</g>
<g style="mix-blend-mode:overlay" filter="url(#filter3_f_49_2)">
<path d="M613.737 335.483L728.719 225.679L664.875 32.688L345.806 15.9374L350.858 312.674L463.378 296.567L402.08 193.434L523.54 60.6175L613.737 335.483Z" fill="#D6D6D6"/>
</g>
</g>
</g>
<g clip-path="url(#clip2_49_2)">
<mask id="mask2_49_2" style="mask-type:luminance" maskUnits="userSpaceOnUse" x="745" y="205" width="250" height="250">
<path d="M995 330C995 260.964 939.036 205 870 205C800.964 205 745 260.964 745 330C745 399.036 800.964 455 870 455C939.036 455 995 399.036 995 330Z" fill="white"/>
</mask>
<g mask="url(#mask2_49_2)">
<path d="M995 205H745V455H995V205Z" fill="black"/>
<g filter="url(#filter4_f_49_2)">
<path d="M734.371 325.539L673.898 395.525L658.756 491.125L965.557 539.718L992.092 372.179L937.057 331.445L806.998 395.26L734.371 325.539Z" fill="#7F685D"/>
</g>
<g style="mix-blend-mode:overlay" filter="url(#filter5_f_49_2)">
<path d="M874.756 315.995L759.085 206.917L569.7 280.773L569.671 600.282L865.737 579.707L843.763 468.184L743.98 534.795L604.988 420.454L874.756 315.995Z" fill="#B6988A"/>
</g>
</g>
</g>
<g clip-path="url(#clip3_49_2)">
<mask id="mask3_49_2" style="mask-type:luminance" maskUnits="userSpaceOnUse" x="205" y="475" width="250" height="250">
<path d="M455 600C455 530.964 399.036 475 330 475C260.964 475 205 530.964 205 600C205 669.036 260.964 725 330 725C399.036 725 455 669.036 455 600Z" fill="white"/>
</mask>
<g mask="url(#mask3_49_2)">
<path d="M455 475H205V725H455V475Z" fill="black"/>
<g filter="url(#filter6_f_49_2)">
<path d="M490.738 670.962L588.63 631.073L653.65 541.58L366.449 332.916L252.501 489.752L287.409 559.785L452.957 562.284L490.738 670.962Z" fill="#828273"/>
</g>
<g style="mix-blend-mode:overlay" filter="url(#filter7_f_49_2)">
<path d="M370.443 636.434L456.68 554.081L408.797 409.338L169.495 396.775L173.284 619.327L257.674 607.246L211.701 529.897L302.795 430.285L370.443 636.434Z" fill="#C0C0AD"/>
</g>
</g>
</g>
<g clip-path="url(#clip4_49_2)">
<mask id="mask4_49_2" style="mask-type:luminance" maskUnits="userSpaceOnUse" x="475" y="475" width="250" height="250">
<path d="M725 600C725 530.964 669.036 475 600 475C530.964 475 475 530.964 475 600C475 669.036 530.964 725 600 725C669.036 725 725 669.036 725 600Z" fill="white"/>
</mask>
<g mask="url(#mask4_49_2)">
<path d="M725 475H475V725H725V475Z" fill="black"/>
<g filter="url(#filter8_f_49_2)">
<path d="M524.15 688.164L545.175 771.437L609.828 833.872L810.194 626.388L696.89 516.971L636.594 537.138L615.864 670.054L524.15 688.164Z" fill="#727C7A"/>
</g>
<g style="mix-blend-mode:overlay" filter="url(#filter9_f_49_2)">
<path d="M569.409 584.596L488.98 698.106L576.038 853.211L852.892 814.328L799.01 560.297L705.052 592.918L774.921 671.267L692.772 805.625L569.409 584.596Z" fill="#AAB3B1"/>
</g>
</g>
</g>
<g clip-path="url(#clip5_49_2)">
<mask id="mask5_49_2" style="mask-type:luminance" maskUnits="userSpaceOnUse" x="745" y="475" width="250" height="250">
<path d="M995 600C995 530.964 939.036 475 870 475C800.964 475 745 530.964 745 600C745 669.036 800.964 725 870 725C939.036 725 995 669.036 995 600Z" fill="white"/>
</mask>
<g mask="url(#mask5_49_2)">
<path d="M995 475H745V725H995V475Z" fill="black"/>
<g filter="url(#filter10_f_49_2)">
<path d="M1018.71 506.422L1040.38 402.961L1002.55 299.012L668.959 420.429L735.263 602.598L812.843 612.82L907.488 476.972L1018.71 506.422Z" fill="#4F4F4F"/>
</g>
<g style="mix-blend-mode:overlay" filter="url(#filter11_f_49_2)">
<path d="M845.249 576.325L735.148 661.36L773.054 835.142L1049.18 878.901L1071.92 620.216L972.533 623.942L1016.44 719.295L898.6 823.764L845.249 576.325Z" fill="#D6D6D6"/>
</g>
</g>
</g>
<g clip-path="url(#clip6_49_2)">
<mask id="mask6_49_2" style="mask-type:luminance" maskUnits="userSpaceOnUse" x="205" y="745" width="250" height="250">
<path d="M455 870C455 800.964 399.036 745 330 745C260.964 745 205 800.964 205 870C205 939.036 260.964 995 330 995C399.036 995 455 939.036 455 870Z" fill="white"/>
</mask>
<g mask="url(#mask6_49_2)">
<path d="M455 745H205V995H455V745Z" fill="black"/>
<g filter="url(#filter12_f_49_2)">
<path d="M404.139 983.659L496.154 993.054L583.151 950.623L446.982 671.435L294.521 745.795L292.721 814.24L419.594 884.176L404.139 983.659Z" fill="#6C848D"/>
</g>
<g style="mix-blend-mode:overlay" filter="url(#filter13_f_49_2)">
<path d="M360.972 855.377L321.042 722.115L145.219 695.225L5.41163 937.328L238.764 1051.27L270.904 957.142L166.148 963.964L110.849 816.51L360.972 855.377Z" fill="#E0E0E0"/>
</g>
</g>
</g>
<g clip-path="url(#clip7_49_2)">
<mask id="mask7_49_2" style="mask-type:luminance" maskUnits="userSpaceOnUse" x="475" y="745" width="250" height="250">
<path d="M725 870C725 800.964 669.036 745 600 745C530.964 745 475 800.964 475 870C475 939.036 530.964 995 600 995C669.036 995 725 939.036 725 870Z" fill="white"/>
</mask>
<g mask="url(#mask7_49_2)">
<path d="M725 745H475V995H725V745Z" fill="black"/>
<g filter="url(#filter14_f_49_2)">
<path d="M616.776 985.085L693.417 1023.85L782.954 1016.02L757.815 728.676L600.903 742.404L576.565 801.141L663.278 903.987L616.776 985.085Z" fill="#E0E0E0"/>
</g>
<g style="mix-blend-mode:overlay" filter="url(#filter15_f_49_2)">
<path d="M630.982 838.316L548.5 738.898L388.459 779.706L356.798 1037.37L597.596 1050.09L590.917 957.979L503.852 1001.82L403.085 895.845L630.982 838.316Z" fill="#6C848D"/>
</g>
</g>
</g>
<g clip-path="url(#clip8_49_2)">
<mask id="mask8_49_2" style="mask-type:luminance" maskUnits="userSpaceOnUse" x="745" y="745" width="250" height="250">
<path d="M995 870C995 800.964 939.036 745 870 745C800.964 745 745 800.964 745 870C745 939.036 800.964 995 870 995C939.036 995 995 939.036 995 870Z" fill="white"/>
</mask>
<g mask="url(#mask8_49_2)">
<path d="M995 745H745V995H995V745Z" fill="black"/>
<g filter="url(#filter16_f_49_2)">
<path d="M792.059 811.216L719.174 842.41L671.587 910.371L889.686 1063.09L973.081 943.985L945.988 891.925L821.813 892.218L792.059 811.216Z" fill="#4F4750"/>
</g>
<g style="mix-blend-mode:overlay" filter="url(#filter17_f_49_2)">
<path d="M880.775 859.867L829.852 709.253L627.961 685.553L477.936 967.65L749.006 1088.48L781.96 979.691L662.585 991.661L593.543 825.45L880.775 859.867Z" fill="#AF9BB1"/>
</g>
</g>
</g>
<defs>
<filter id="filter0_f_49_2" x="101.659" y="17.1174" width="477.015" height="390.093" filterUnits="userSpaceOnUse" color-interpolation-filters="sRGB">
<feFlood flood-opacity="0" result="BackgroundImageFix"/>
<feBlend mode="normal" in="SourceGraphic" in2="BackgroundImageFix" result="shape"/>
<feGaussianBlur stdDeviation="32.8125" result="effect1_foregroundBlur_49_2"/>
</filter>
<filter id="filter1_f_49_2" x="172.597" y="-35.7549" width="467.806" height="504.49" filterUnits="userSpaceOnUse" color-interpolation-filters="sRGB">
<feFlood flood-opacity="0" result="BackgroundImageFix"/>
<feBlend mode="normal" in="SourceGraphic" in2="BackgroundImageFix" result="shape"/>
<feGaussianBlur stdDeviation="30.625" result="effect1_foregroundBlur_49_2"/>
</filter>
<filter id="filter2_f_49_2" x="241.365" y="152.429" width="468.029" height="468.908" filterUnits="userSpaceOnUse" color-interpolation-filters="sRGB">
<feFlood flood-opacity="0" result="BackgroundImageFix"/>
<feBlend mode="normal" in="SourceGraphic" in2="BackgroundImageFix" result="shape"/>
<feGaussianBlur stdDeviation="32.8125" result="effect1_foregroundBlur_49_2"/>
</filter>
<filter id="filter3_f_49_2" x="275.806" y="-54.0625" width="522.913" height="459.545" filterUnits="userSpaceOnUse" color-interpolation-filters="sRGB">
<feFlood flood-opacity="0" result="BackgroundImageFix"/>
<feBlend mode="normal" in="SourceGraphic" in2="BackgroundImageFix" result="shape"/>
<feGaussianBlur stdDeviation="35" result="effect1_foregroundBlur_49_2"/>
</filter>
<filter id="filter4_f_49_2" x="597.506" y="264.289" width="455.836" height="336.678" filterUnits="userSpaceOnUse" color-interpolation-filters="sRGB">
<feFlood flood-opacity="0" result="BackgroundImageFix"/>
<feBlend mode="normal" in="SourceGraphic" in2="BackgroundImageFix" result="shape"/>
<feGaussianBlur stdDeviation="30.625" result="effect1_foregroundBlur_49_2"/>
</filter>
<filter id="filter5_f_49_2" x="499.671" y="136.917" width="445.085" height="533.366" filterUnits="userSpaceOnUse" color-interpolation-filters="sRGB">
<feFlood flood-opacity="0" result="BackgroundImageFix"/>
<feBlend mode="normal" in="SourceGraphic" in2="BackgroundImageFix" result="shape"/>
<feGaussianBlur stdDeviation="35" result="effect1_foregroundBlur_49_2"/>
</filter>
<filter id="filter6_f_49_2" x="182.501" y="262.916" width="541.149" height="478.046" filterUnits="userSpaceOnUse" color-interpolation-filters="sRGB">
<feFlood flood-opacity="0" result="BackgroundImageFix"/>
<feBlend mode="normal" in="SourceGraphic" in2="BackgroundImageFix" result="shape"/>
<feGaussianBlur stdDeviation="35" result="effect1_foregroundBlur_49_2"/>
</filter>
<filter id="filter7_f_49_2" x="116.995" y="344.275" width="392.185" height="344.659" filterUnits="userSpaceOnUse" color-interpolation-filters="sRGB">
<feFlood flood-opacity="0" result="BackgroundImageFix"/>
<feBlend mode="normal" in="SourceGraphic" in2="BackgroundImageFix" result="shape"/>
<feGaussianBlur stdDeviation="26.25" result="effect1_foregroundBlur_49_2"/>
</filter>
<filter id="filter8_f_49_2" x="467.275" y="460.096" width="399.794" height="430.651" filterUnits="userSpaceOnUse" color-interpolation-filters="sRGB">
<feFlood flood-opacity="0" result="BackgroundImageFix"/>
<feBlend mode="normal" in="SourceGraphic" in2="BackgroundImageFix" result="shape"/>
<feGaussianBlur stdDeviation="28.4375" result="effect1_foregroundBlur_49_2"/>
</filter>
<filter id="filter9_f_49_2" x="427.73" y="499.047" width="486.411" height="415.415" filterUnits="userSpaceOnUse" color-interpolation-filters="sRGB">
<feFlood flood-opacity="0" result="BackgroundImageFix"/>
<feBlend mode="normal" in="SourceGraphic" in2="BackgroundImageFix" result="shape"/>
<feGaussianBlur stdDeviation="30.625" result="effect1_foregroundBlur_49_2"/>
</filter>
<filter id="filter10_f_49_2" x="598.959" y="229.012" width="511.425" height="453.809" filterUnits="userSpaceOnUse" color-interpolation-filters="sRGB">
<feFlood flood-opacity="0" result="BackgroundImageFix"/>
<feBlend mode="normal" in="SourceGraphic" in2="BackgroundImageFix" result="shape"/>
<feGaussianBlur stdDeviation="35" result="effect1_foregroundBlur_49_2"/>
</filter>
<filter id="filter11_f_49_2" x="673.898" y="515.075" width="459.274" height="425.076" filterUnits="userSpaceOnUse" color-interpolation-filters="sRGB">
<feFlood flood-opacity="0" result="BackgroundImageFix"/>
<feBlend mode="normal" in="SourceGraphic" in2="BackgroundImageFix" result="shape"/>
<feGaussianBlur stdDeviation="30.625" result="effect1_foregroundBlur_49_2"/>
</filter>
<filter id="filter12_f_49_2" x="231.471" y="610.185" width="412.929" height="444.119" filterUnits="userSpaceOnUse" color-interpolation-filters="sRGB">
<feFlood flood-opacity="0" result="BackgroundImageFix"/>
<feBlend mode="normal" in="SourceGraphic" in2="BackgroundImageFix" result="shape"/>
<feGaussianBlur stdDeviation="30.625" result="effect1_foregroundBlur_49_2"/>
</filter>
<filter id="filter13_f_49_2" x="-55.8384" y="633.975" width="478.061" height="478.54" filterUnits="userSpaceOnUse" color-interpolation-filters="sRGB">
<feFlood flood-opacity="0" result="BackgroundImageFix"/>
<feBlend mode="normal" in="SourceGraphic" in2="BackgroundImageFix" result="shape"/>
<feGaussianBlur stdDeviation="30.625" result="effect1_foregroundBlur_49_2"/>
</filter>
<filter id="filter14_f_49_2" x="519.69" y="671.802" width="320.138" height="408.923" filterUnits="userSpaceOnUse" color-interpolation-filters="sRGB">
<feFlood flood-opacity="0" result="BackgroundImageFix"/>
<feBlend mode="normal" in="SourceGraphic" in2="BackgroundImageFix" result="shape"/>
<feGaussianBlur stdDeviation="28.4375" result="effect1_foregroundBlur_49_2"/>
</filter>
<filter id="filter15_f_49_2" x="299.923" y="682.023" width="387.934" height="424.945" filterUnits="userSpaceOnUse" color-interpolation-filters="sRGB">
<feFlood flood-opacity="0" result="BackgroundImageFix"/>
<feBlend mode="normal" in="SourceGraphic" in2="BackgroundImageFix" result="shape"/>
<feGaussianBlur stdDeviation="28.4375" result="effect1_foregroundBlur_49_2"/>
</filter>
<filter id="filter16_f_49_2" x="619.087" y="758.716" width="406.494" height="356.869" filterUnits="userSpaceOnUse" color-interpolation-filters="sRGB">
<feFlood flood-opacity="0" result="BackgroundImageFix"/>
<feBlend mode="normal" in="SourceGraphic" in2="BackgroundImageFix" result="shape"/>
<feGaussianBlur stdDeviation="26.25" result="effect1_foregroundBlur_49_2"/>
</filter>
<filter id="filter17_f_49_2" x="407.936" y="615.553" width="542.839" height="542.924" filterUnits="userSpaceOnUse" color-interpolation-filters="sRGB">
<feFlood flood-opacity="0" result="BackgroundImageFix"/>
<feBlend mode="normal" in="SourceGraphic" in2="BackgroundImageFix" result="shape"/>
<feGaussianBlur stdDeviation="35" result="effect1_foregroundBlur_49_2"/>
</filter>
<clipPath id="clip0_49_2">
<rect width="250" height="250" fill="white" transform="translate(205 205)"/>
</clipPath>
<clipPath id="clip1_49_2">
<rect width="250" height="250" fill="white" transform="translate(475 205)"/>
</clipPath>
<clipPath id="clip2_49_2">
<rect width="250" height="250" fill="white" transform="translate(745 205)"/>
</clipPath>
<clipPath id="clip3_49_2">
<rect width="250" height="250" fill="white" transform="translate(205 475)"/>
</clipPath>
<clipPath id="clip4_49_2">
<rect width="250" height="250" fill="white" transform="translate(475 475)"/>
</clipPath>
<clipPath id="clip5_49_2">
<rect width="250" height="250" fill="white" transform="translate(745 475)"/>
</clipPath>
<clipPath id="clip6_49_2">
<rect width="250" height="250" fill="white" transform="translate(205 745)"/>
</clipPath>
<clipPath id="clip7_49_2">
<rect width="250" height="250" fill="white" transform="translate(475 745)"/>
</clipPath>
<clipPath id="clip8_49_2">
<rect width="250" height="250" fill="white" transform="translate(745 745)"/>
</clipPath>
</defs>
</svg>
