<svg width="300" height="162" viewBox="0 0 300 162" fill="none" xmlns="http://www.w3.org/2000/svg">
<path d="M152.667 43.5C152.667 42.0272 151.473 40.8333 150 40.8333C148.527 40.8333 147.333 42.0272 147.333 43.5C147.333 44.9728 148.527 46.1667 150 46.1667C151.473 46.1667 152.667 44.9728 152.667 43.5ZM228 43L150 43V44L228 44V43Z" fill="black"/>
<path d="M235.233 49V38.8182H238.673C239.472 38.8182 240.125 38.9624 240.632 39.2507C241.143 39.5357 241.52 39.9219 241.766 40.4091C242.011 40.8963 242.134 41.4399 242.134 42.0398C242.134 42.6397 242.011 43.1849 241.766 43.6754C241.524 44.166 241.149 44.5571 240.642 44.8487C240.135 45.1371 239.485 45.2812 238.693 45.2812H236.227V44.1875H238.653C239.2 44.1875 239.639 44.093 239.971 43.9041C240.302 43.7152 240.543 43.46 240.692 43.1385C240.844 42.8137 240.92 42.4474 240.92 42.0398C240.92 41.6321 240.844 41.2675 240.692 40.946C240.543 40.6245 240.301 40.3726 239.966 40.1903C239.631 40.0047 239.187 39.9119 238.634 39.9119H236.466V49H235.233ZM244.12 49V38.8182H250.265V39.9119H245.353V43.3523H249.946V44.446H245.353V47.9062H250.344V49H244.12ZM252.487 49V38.8182H255.927C256.723 38.8182 257.376 38.9541 257.886 39.2259C258.396 39.4943 258.774 39.8639 259.02 40.3345C259.265 40.8052 259.387 41.3404 259.387 41.9403C259.387 42.5402 259.265 43.0722 259.02 43.5362C258.774 44.0002 258.398 44.3648 257.891 44.63C257.384 44.8918 256.736 45.0227 255.947 45.0227H253.163V43.9091H255.907C256.451 43.9091 256.888 43.8295 257.22 43.6705C257.555 43.5114 257.797 43.286 257.946 42.9943C258.098 42.6993 258.174 42.348 258.174 41.9403C258.174 41.5327 258.098 41.1764 257.946 40.8714C257.793 40.5665 257.55 40.3312 257.215 40.1655C256.88 39.9964 256.438 39.9119 255.887 39.9119H253.72V49H252.487ZM257.279 44.4261L259.785 49H258.353L255.887 44.4261H257.279ZM267.01 41.3636C266.95 40.8598 266.709 40.4688 266.284 40.1903C265.86 39.9119 265.34 39.7727 264.723 39.7727C264.272 39.7727 263.878 39.8456 263.54 39.9915C263.205 40.1373 262.943 40.3378 262.754 40.593C262.569 40.8482 262.476 41.1383 262.476 41.4631C262.476 41.7348 262.541 41.9685 262.67 42.1641C262.802 42.3563 262.972 42.517 263.177 42.6463C263.383 42.7723 263.598 42.8767 263.823 42.9595C264.049 43.0391 264.256 43.1037 264.445 43.1534L265.479 43.4318C265.744 43.5014 266.039 43.5975 266.364 43.7202C266.692 43.8428 267.005 44.0102 267.303 44.2223C267.605 44.4311 267.854 44.6996 268.049 45.0277C268.245 45.3558 268.343 45.7585 268.343 46.2358C268.343 46.786 268.198 47.2831 267.91 47.7273C267.625 48.1714 267.207 48.5244 266.657 48.7862C266.11 49.0481 265.446 49.179 264.664 49.179C263.934 49.179 263.303 49.0613 262.769 48.826C262.239 48.5907 261.821 48.2625 261.517 47.8416C261.215 47.4207 261.044 46.9318 261.004 46.375H262.277C262.31 46.7595 262.44 47.0777 262.665 47.3295C262.894 47.5781 263.182 47.7637 263.53 47.8864C263.881 48.0057 264.259 48.0653 264.664 48.0653C265.134 48.0653 265.557 47.9891 265.931 47.8366C266.306 47.6809 266.602 47.4654 266.821 47.1903C267.04 46.9119 267.149 46.5871 267.149 46.2159C267.149 45.8778 267.055 45.6027 266.866 45.3906C266.677 45.1785 266.428 45.0062 266.12 44.8736C265.812 44.741 265.479 44.625 265.121 44.5256L263.868 44.1676C263.073 43.9389 262.443 43.6125 261.979 43.1882C261.515 42.764 261.283 42.2088 261.283 41.5227C261.283 40.9527 261.437 40.4555 261.745 40.0312C262.057 39.6037 262.474 39.2723 262.998 39.0369C263.525 38.7983 264.113 38.679 264.763 38.679C265.419 38.679 266.003 38.7966 266.513 39.032C267.023 39.264 267.428 39.5821 267.726 39.9865C268.028 40.3909 268.187 40.8499 268.203 41.3636H267.01ZM278.961 43.9091C278.961 44.983 278.767 45.911 278.379 46.6932C277.991 47.4754 277.459 48.0786 276.783 48.5028C276.107 48.9271 275.335 49.1392 274.466 49.1392C273.598 49.1392 272.826 48.9271 272.15 48.5028C271.473 48.0786 270.941 47.4754 270.554 46.6932C270.166 45.911 269.972 44.983 269.972 43.9091C269.972 42.8352 270.166 41.9072 270.554 41.125C270.941 40.3428 271.473 39.7396 272.15 39.3153C272.826 38.8911 273.598 38.679 274.466 38.679C275.335 38.679 276.107 38.8911 276.783 39.3153C277.459 39.7396 277.991 40.3428 278.379 41.125C278.767 41.9072 278.961 42.8352 278.961 43.9091ZM277.767 43.9091C277.767 43.0275 277.62 42.2834 277.325 41.6768C277.033 41.0703 276.637 40.6113 276.137 40.2997C275.64 39.9882 275.083 39.8324 274.466 39.8324C273.85 39.8324 273.291 39.9882 272.791 40.2997C272.294 40.6113 271.898 41.0703 271.603 41.6768C271.311 42.2834 271.165 43.0275 271.165 43.9091C271.165 44.7907 271.311 45.5348 271.603 46.1413C271.898 46.7479 272.294 47.2069 272.791 47.5185C273.291 47.83 273.85 47.9858 274.466 47.9858C275.083 47.9858 275.64 47.83 276.137 47.5185C276.637 47.2069 277.033 46.7479 277.325 46.1413C277.62 45.5348 277.767 44.7907 277.767 43.9091ZM289.108 38.8182V49H287.914L282.366 41.0057H282.267V49H281.034V38.8182H282.227L287.795 46.8324H287.895V38.8182H289.108ZM291.992 49H290.7L294.438 38.8182H295.711L299.45 49H298.157L295.115 40.429H295.035L291.992 49ZM292.47 45.0227H297.68V46.1165H292.47V45.0227Z" fill="black"/>
<path d="M152.667 73.5C152.667 72.0272 151.473 70.8333 150 70.8333C148.527 70.8333 147.333 72.0272 147.333 73.5C147.333 74.9728 148.527 76.1667 150 76.1667C151.473 76.1667 152.667 74.9728 152.667 73.5ZM203 73H150V74H203V73Z" fill="black"/>
<path d="M212.082 79L209.298 68.8182H210.551L212.679 77.1108H212.778L214.946 68.8182H216.338L218.506 77.1108H218.605L220.733 68.8182H221.986L219.202 79H217.929L215.682 70.8864H215.602L213.355 79H212.082ZM224.755 68.8182V79H223.522V68.8182H224.755ZM227.227 79V68.8182H230.667C231.463 68.8182 232.116 68.9541 232.626 69.2259C233.137 69.4943 233.515 69.8639 233.76 70.3345C234.005 70.8052 234.128 71.3404 234.128 71.9403C234.128 72.5402 234.005 73.0722 233.76 73.5362C233.515 74.0002 233.138 74.3648 232.631 74.63C232.124 74.8918 231.476 75.0227 230.687 75.0227H227.903V73.9091H230.648C231.191 73.9091 231.629 73.8295 231.96 73.6705C232.295 73.5114 232.537 73.286 232.686 72.9943C232.838 72.6993 232.915 72.348 232.915 71.9403C232.915 71.5327 232.838 71.1764 232.686 70.8714C232.533 70.5665 232.29 70.3312 231.955 70.1655C231.62 69.9964 231.178 69.9119 230.628 69.9119H228.46V79H227.227ZM232.02 74.4261L234.525 79H233.094L230.628 74.4261H232.02ZM236.182 79V68.8182H242.327V69.9119H237.415V73.3523H242.009V74.446H237.415V77.9062H242.407V79H236.182ZM244.549 79V68.8182H250.654V69.9119H245.782V73.3523H250.197V74.446H245.782V79H244.549ZM252.766 79V68.8182H256.206C257.002 68.8182 257.655 68.9541 258.165 69.2259C258.676 69.4943 259.054 69.8639 259.299 70.3345C259.544 70.8052 259.667 71.3404 259.667 71.9403C259.667 72.5402 259.544 73.0722 259.299 73.5362C259.054 74.0002 258.677 74.3648 258.17 74.63C257.663 74.8918 257.015 75.0227 256.226 75.0227H253.442V73.9091H256.187C256.73 73.9091 257.168 73.8295 257.499 73.6705C257.834 73.5114 258.076 73.286 258.225 72.9943C258.377 72.6993 258.454 72.348 258.454 71.9403C258.454 71.5327 258.377 71.1764 258.225 70.8714C258.073 70.5665 257.829 70.3312 257.494 70.1655C257.159 69.9964 256.717 69.9119 256.167 69.9119H253.999V79H252.766ZM257.559 74.4261L260.064 79H258.633L256.167 74.4261H257.559ZM262.139 79H260.846L264.585 68.8182H265.858L269.596 79H268.304L265.261 70.429H265.181L262.139 79ZM262.616 75.0227H267.826V76.1165H262.616V75.0227ZM271.182 68.8182H272.654L276.114 77.2699H276.233L279.694 68.8182H281.165V79H280.012V71.2642H279.912L276.73 79H275.617L272.435 71.2642H272.336V79H271.182V68.8182ZM283.637 79V68.8182H289.782V69.9119H284.87V73.3523H289.464V74.446H284.87V77.9062H289.862V79H283.637ZM297.573 71.3636C297.513 70.8598 297.271 70.4688 296.847 70.1903C296.423 69.9119 295.902 69.7727 295.286 69.7727C294.835 69.7727 294.441 69.8456 294.102 69.9915C293.768 70.1373 293.506 70.3378 293.317 70.593C293.131 70.8482 293.039 71.1383 293.039 71.4631C293.039 71.7348 293.103 71.9685 293.232 72.1641C293.365 72.3563 293.534 72.517 293.74 72.6463C293.945 72.7723 294.16 72.8767 294.386 72.9595C294.611 73.0391 294.818 73.1037 295.007 73.1534L296.041 73.4318C296.307 73.5014 296.602 73.5975 296.926 73.7202C297.254 73.8428 297.568 74.0102 297.866 74.2223C298.168 74.4311 298.416 74.6996 298.612 75.0277C298.807 75.3558 298.905 75.7585 298.905 76.2358C298.905 76.786 298.761 77.2831 298.472 77.7273C298.187 78.1714 297.77 78.5244 297.22 78.7862C296.673 79.0481 296.008 79.179 295.226 79.179C294.497 79.179 293.865 79.0613 293.332 78.826C292.802 78.5907 292.384 78.2625 292.079 77.8416C291.777 77.4207 291.607 76.9318 291.567 76.375H292.84C292.873 76.7595 293.002 77.0777 293.227 77.3295C293.456 77.5781 293.744 77.7637 294.093 77.8864C294.444 78.0057 294.822 78.0653 295.226 78.0653C295.697 78.0653 296.119 77.9891 296.494 77.8366C296.868 77.6809 297.165 77.4654 297.384 77.1903C297.602 76.9119 297.712 76.5871 297.712 76.2159C297.712 75.8778 297.617 75.6027 297.428 75.3906C297.24 75.1785 296.991 75.0062 296.683 74.8736C296.374 74.741 296.041 74.625 295.683 74.5256L294.431 74.1676C293.635 73.9389 293.005 73.6125 292.541 73.1882C292.077 72.764 291.845 72.2088 291.845 71.5227C291.845 70.9527 291.999 70.4555 292.308 70.0312C292.619 69.6037 293.037 69.2723 293.561 69.0369C294.088 68.7983 294.676 68.679 295.325 68.679C295.982 68.679 296.565 68.7966 297.075 69.032C297.586 69.264 297.99 69.5821 298.289 69.9865C298.59 70.3909 298.749 70.8499 298.766 71.3636H297.573Z" fill="black"/>
<path d="M152.667 103.5C152.667 102.027 151.473 100.833 150 100.833C148.527 100.833 147.333 102.027 147.333 103.5C147.333 104.973 148.527 106.167 150 106.167C151.473 106.167 152.667 104.973 152.667 103.5ZM258 103L150 103V104L258 104V103Z" fill="black"/>
<path d="M264.676 99.9119V98.8182H272.312V99.9119H269.111V109H267.878V99.9119H264.676ZM274.215 109V98.8182H280.36V99.9119H275.448V103.352H280.042V104.446H275.448V107.906H280.44V109H274.215ZM288.151 101.364C288.091 100.86 287.849 100.469 287.425 100.19C287.001 99.9119 286.48 99.7727 285.864 99.7727C285.413 99.7727 285.019 99.8456 284.681 99.9915C284.346 100.137 284.084 100.338 283.895 100.593C283.709 100.848 283.617 101.138 283.617 101.463C283.617 101.735 283.681 101.969 283.811 102.164C283.943 102.356 284.112 102.517 284.318 102.646C284.523 102.772 284.739 102.877 284.964 102.96C285.189 103.039 285.396 103.104 285.585 103.153L286.619 103.432C286.885 103.501 287.18 103.598 287.504 103.72C287.833 103.843 288.146 104.01 288.444 104.222C288.746 104.431 288.994 104.7 289.19 105.028C289.385 105.356 289.483 105.759 289.483 106.236C289.483 106.786 289.339 107.283 289.051 107.727C288.766 108.171 288.348 108.524 287.798 108.786C287.251 109.048 286.586 109.179 285.804 109.179C285.075 109.179 284.444 109.061 283.91 108.826C283.38 108.591 282.962 108.263 282.657 107.842C282.356 107.421 282.185 106.932 282.145 106.375H283.418C283.451 106.759 283.58 107.078 283.806 107.33C284.034 107.578 284.323 107.764 284.671 107.886C285.022 108.006 285.4 108.065 285.804 108.065C286.275 108.065 286.697 107.989 287.072 107.837C287.446 107.681 287.743 107.465 287.962 107.19C288.181 106.912 288.29 106.587 288.29 106.216C288.29 105.878 288.195 105.603 288.007 105.391C287.818 105.179 287.569 105.006 287.261 104.874C286.953 104.741 286.619 104.625 286.262 104.526L285.009 104.168C284.213 103.939 283.584 103.612 283.119 103.188C282.655 102.764 282.423 102.209 282.423 101.523C282.423 100.953 282.578 100.455 282.886 100.031C283.197 99.6037 283.615 99.2723 284.139 99.0369C284.666 98.7983 285.254 98.679 285.904 98.679C286.56 98.679 287.143 98.7966 287.654 99.032C288.164 99.264 288.568 99.5821 288.867 99.9865C289.168 100.391 289.327 100.85 289.344 101.364H288.151ZM290.953 99.9119V98.8182H298.59V99.9119H295.388V109H294.155V99.9119H290.953Z" fill="black"/>
<path d="M152.667 133.5C152.667 132.027 151.473 130.833 150 130.833C148.527 130.833 147.333 132.027 147.333 133.5C147.333 134.973 148.527 136.167 150 136.167C151.473 136.167 152.667 134.973 152.667 133.5ZM224 133H150V134H224V133Z" fill="black"/>
<path d="M231.233 139V128.818H234.673C235.469 128.818 236.122 128.954 236.632 129.226C237.143 129.494 237.52 129.864 237.766 130.335C238.011 130.805 238.134 131.34 238.134 131.94C238.134 132.54 238.011 133.072 237.766 133.536C237.52 134 237.144 134.365 236.637 134.63C236.13 134.892 235.482 135.023 234.693 135.023H231.909V133.909H234.653C235.197 133.909 235.634 133.83 235.966 133.67C236.301 133.511 236.543 133.286 236.692 132.994C236.844 132.699 236.92 132.348 236.92 131.94C236.92 131.533 236.844 131.176 236.692 130.871C236.539 130.567 236.296 130.331 235.961 130.165C235.626 129.996 235.184 129.912 234.634 129.912H232.466V139H231.233ZM236.026 134.426L238.531 139H237.099L234.634 134.426H236.026ZM240.188 139V128.818H246.333V129.912H241.421V133.352H246.015V134.446H241.421V137.906H246.412V139H240.188ZM251.697 139H248.555V128.818H251.836C252.824 128.818 253.669 129.022 254.372 129.43C255.075 129.834 255.613 130.416 255.988 131.175C256.362 131.93 256.55 132.835 256.55 133.889C256.55 134.95 256.361 135.863 255.983 136.629C255.605 137.391 255.055 137.978 254.332 138.388C253.61 138.796 252.731 139 251.697 139ZM249.788 137.906H251.618C252.46 137.906 253.157 137.744 253.711 137.419C254.264 137.094 254.677 136.632 254.949 136.032C255.22 135.432 255.356 134.718 255.356 133.889C255.356 133.067 255.222 132.36 254.954 131.766C254.685 131.17 254.284 130.712 253.751 130.394C253.217 130.073 252.552 129.912 251.757 129.912H249.788V137.906ZM258.618 139V128.818H264.763V129.912H259.851V133.352H264.444V134.446H259.851V137.906H264.842V139H258.618ZM272.553 131.364C272.493 130.86 272.251 130.469 271.827 130.19C271.403 129.912 270.883 129.773 270.266 129.773C269.815 129.773 269.421 129.846 269.083 129.991C268.748 130.137 268.486 130.338 268.297 130.593C268.112 130.848 268.019 131.138 268.019 131.463C268.019 131.735 268.084 131.969 268.213 132.164C268.345 132.356 268.515 132.517 268.72 132.646C268.925 132.772 269.141 132.877 269.366 132.96C269.592 133.039 269.799 133.104 269.988 133.153L271.022 133.432C271.287 133.501 271.582 133.598 271.907 133.72C272.235 133.843 272.548 134.01 272.846 134.222C273.148 134.431 273.397 134.7 273.592 135.028C273.788 135.356 273.885 135.759 273.885 136.236C273.885 136.786 273.741 137.283 273.453 137.727C273.168 138.171 272.75 138.524 272.2 138.786C271.653 139.048 270.989 139.179 270.206 139.179C269.477 139.179 268.846 139.061 268.312 138.826C267.782 138.591 267.364 138.263 267.059 137.842C266.758 137.421 266.587 136.932 266.547 136.375H267.82C267.853 136.759 267.983 137.078 268.208 137.33C268.437 137.578 268.725 137.764 269.073 137.886C269.424 138.006 269.802 138.065 270.206 138.065C270.677 138.065 271.1 137.989 271.474 137.837C271.849 137.681 272.145 137.465 272.364 137.19C272.583 136.912 272.692 136.587 272.692 136.216C272.692 135.878 272.598 135.603 272.409 135.391C272.22 135.179 271.971 135.006 271.663 134.874C271.355 134.741 271.022 134.625 270.664 134.526L269.411 134.168C268.616 133.939 267.986 133.612 267.522 133.188C267.058 132.764 266.826 132.209 266.826 131.523C266.826 130.953 266.98 130.455 267.288 130.031C267.6 129.604 268.017 129.272 268.541 129.037C269.068 128.798 269.656 128.679 270.306 128.679C270.962 128.679 271.546 128.797 272.056 129.032C272.566 129.264 272.971 129.582 273.269 129.987C273.571 130.391 273.73 130.85 273.746 131.364H272.553ZM277.146 128.818V139H275.913V128.818H277.146ZM286.578 132C286.469 131.665 286.324 131.365 286.145 131.1C285.97 130.832 285.759 130.603 285.514 130.414C285.272 130.225 284.997 130.081 284.689 129.982C284.381 129.882 284.042 129.832 283.675 129.832C283.071 129.832 282.523 129.988 282.029 130.3C281.535 130.611 281.142 131.07 280.851 131.677C280.559 132.283 280.413 133.027 280.413 133.909C280.413 134.791 280.561 135.535 280.856 136.141C281.151 136.748 281.55 137.207 282.054 137.518C282.558 137.83 283.124 137.986 283.754 137.986C284.337 137.986 284.851 137.862 285.295 137.613C285.743 137.361 286.091 137.006 286.339 136.549C286.591 136.088 286.717 135.546 286.717 134.923L287.095 135.003H284.032V133.909H287.91V135.003C287.91 135.841 287.731 136.571 287.373 137.19C287.019 137.81 286.528 138.291 285.902 138.632C285.279 138.97 284.563 139.139 283.754 139.139C282.853 139.139 282.06 138.927 281.378 138.503C280.698 138.079 280.168 137.475 279.787 136.693C279.409 135.911 279.22 134.983 279.22 133.909C279.22 133.104 279.328 132.379 279.543 131.737C279.762 131.09 280.07 130.54 280.468 130.086C280.866 129.632 281.336 129.284 281.88 129.042C282.423 128.8 283.022 128.679 283.675 128.679C284.211 128.679 284.712 128.76 285.176 128.923C285.643 129.082 286.059 129.309 286.424 129.604C286.792 129.895 287.098 130.245 287.344 130.653C287.589 131.057 287.758 131.506 287.851 132H286.578ZM298.096 128.818V139H296.903L291.354 131.006H291.255V139H290.022V128.818H291.215L296.783 136.832H296.883V128.818H298.096Z" fill="black"/>
<path d="M6.80114 26.3636C6.74148 25.8598 6.49953 25.4688 6.07528 25.1903C5.65104 24.9119 5.13068 24.7727 4.5142 24.7727C4.06345 24.7727 3.66903 24.8456 3.33097 24.9915C2.99621 25.1373 2.73438 25.3378 2.54545 25.593C2.35985 25.8482 2.26705 26.1383 2.26705 26.4631C2.26705 26.7348 2.33168 26.9685 2.46094 27.1641C2.59351 27.3563 2.76255 27.517 2.96804 27.6463C3.17353 27.7723 3.38897 27.8767 3.61435 27.9595C3.83973 28.0391 4.04688 28.1037 4.2358 28.1534L5.26989 28.4318C5.53504 28.5014 5.83002 28.5975 6.15483 28.7202C6.48295 28.8428 6.79616 29.0102 7.09446 29.2223C7.39607 29.4311 7.64465 29.6996 7.8402 30.0277C8.03575 30.3558 8.13352 30.7585 8.13352 31.2358C8.13352 31.786 7.98935 32.2831 7.70099 32.7273C7.41596 33.1714 6.99834 33.5244 6.44815 33.7862C5.90128 34.0481 5.23674 34.179 4.45455 34.179C3.72538 34.179 3.09399 34.0613 2.56037 33.826C2.03007 33.5907 1.61245 33.2625 1.30753 32.8416C1.00592 32.4207 0.835227 31.9318 0.795455 31.375H2.06818C2.10133 31.7595 2.23059 32.0777 2.45597 32.3295C2.68466 32.5781 2.97301 32.7637 3.32102 32.8864C3.67235 33.0057 4.05019 33.0653 4.45455 33.0653C4.92519 33.0653 5.34777 32.9891 5.7223 32.8366C6.09683 32.6809 6.39347 32.4654 6.61222 32.1903C6.83097 31.9119 6.94034 31.5871 6.94034 31.2159C6.94034 30.8778 6.84588 30.6027 6.65696 30.3906C6.46804 30.1785 6.21946 30.0062 5.91122 29.8736C5.60298 29.741 5.26989 29.625 4.91193 29.5256L3.65909 29.1676C2.86364 28.9389 2.2339 28.6125 1.76989 28.1882C1.30587 27.764 1.07386 27.2088 1.07386 26.5227C1.07386 25.9527 1.22798 25.4555 1.53622 25.0312C1.84777 24.6037 2.26539 24.2723 2.78906 24.0369C3.31605 23.7983 3.90436 23.679 4.55398 23.679C5.21023 23.679 5.79356 23.7966 6.30398 24.032C6.81439 24.264 7.21875 24.5821 7.51705 24.9865C7.81866 25.3909 7.97775 25.8499 7.99432 26.3636H6.80114ZM16.8425 23.8182H18.0755V30.5597C18.0755 31.2557 17.9114 31.8771 17.5833 32.424C17.2585 32.9676 16.7994 33.3968 16.2061 33.7116C15.6129 34.0232 14.9168 34.179 14.1181 34.179C13.3193 34.179 12.6233 34.0232 12.03 33.7116C11.4367 33.3968 10.976 32.9676 10.6479 32.424C10.3231 31.8771 10.1607 31.2557 10.1607 30.5597V23.8182H11.3936V30.4602C11.3936 30.9574 11.503 31.3999 11.7218 31.7876C11.9405 32.1721 12.2521 32.4754 12.6564 32.6974C13.0641 32.9162 13.5513 33.0256 14.1181 33.0256C14.6848 33.0256 15.1721 32.9162 15.5797 32.6974C15.9874 32.4754 16.2989 32.1721 16.5144 31.7876C16.7331 31.3999 16.8425 30.9574 16.8425 30.4602V23.8182ZM20.5376 34V23.8182H23.978C24.7734 23.8182 25.4264 23.9541 25.9368 24.2259C26.4472 24.4943 26.825 24.8639 27.0703 25.3345C27.3156 25.8052 27.4382 26.3404 27.4382 26.9403C27.4382 27.5402 27.3156 28.0722 27.0703 28.5362C26.825 29.0002 26.4489 29.3648 25.9418 29.63C25.4347 29.8918 24.7867 30.0227 23.9979 30.0227H21.2138V28.9091H23.9581C24.5017 28.9091 24.9392 28.8295 25.2706 28.6705C25.6054 28.5114 25.8473 28.286 25.9964 27.9943C26.1489 27.6993 26.2251 27.348 26.2251 26.9403C26.2251 26.5327 26.1489 26.1764 25.9964 25.8714C25.844 25.5665 25.6004 25.3312 25.2656 25.1655C24.9309 24.9964 24.4884 24.9119 23.9382 24.9119H21.7706V34H20.5376ZM25.3303 29.4261L27.8359 34H26.4041L23.9382 29.4261H25.3303ZM29.6779 23.8182L32.7006 32.3892H32.82L35.8427 23.8182H37.1353L33.3967 34H32.1239L28.3853 23.8182H29.6779ZM38.7212 34V23.8182H44.8661V24.9119H39.9542V28.3523H44.5479V29.446H39.9542V32.9062H44.9457V34H38.7212ZM46.2134 23.8182H47.6254L50.4492 28.571H50.5685L53.3924 23.8182H54.8043L51.1254 29.804V34H49.8924V29.804L46.2134 23.8182ZM61.9672 26.3636C61.9075 25.8598 61.6655 25.4688 61.2413 25.1903C60.8171 24.9119 60.2967 24.7727 59.6802 24.7727C59.2295 24.7727 58.835 24.8456 58.497 24.9915C58.1622 25.1373 57.9004 25.3378 57.7115 25.593C57.5259 25.8482 57.4331 26.1383 57.4331 26.4631C57.4331 26.7348 57.4977 26.9685 57.627 27.1641C57.7595 27.3563 57.9286 27.517 58.1341 27.6463C58.3395 27.7723 58.555 27.8767 58.7804 27.9595C59.0057 28.0391 59.2129 28.1037 59.4018 28.1534L60.4359 28.4318C60.7011 28.5014 60.996 28.5975 61.3208 28.7202C61.649 28.8428 61.9622 29.0102 62.2605 29.2223C62.5621 29.4311 62.8107 29.6996 63.0062 30.0277C63.2018 30.3558 63.2995 30.7585 63.2995 31.2358C63.2995 31.786 63.1554 32.2831 62.867 32.7273C62.582 33.1714 62.1644 33.5244 61.6142 33.7862C61.0673 34.0481 60.4028 34.179 59.6206 34.179C58.8914 34.179 58.26 34.0613 57.7264 33.826C57.1961 33.5907 56.7785 33.2625 56.4735 32.8416C56.1719 32.4207 56.0012 31.9318 55.9615 31.375H57.2342C57.2673 31.7595 57.3966 32.0777 57.622 32.3295C57.8507 32.5781 58.139 32.7637 58.487 32.8864C58.8384 33.0057 59.2162 33.0653 59.6206 33.0653C60.0912 33.0653 60.5138 32.9891 60.8883 32.8366C61.2628 32.6809 61.5595 32.4654 61.7782 32.1903C61.997 31.9119 62.1064 31.5871 62.1064 31.2159C62.1064 30.8778 62.0119 30.6027 61.823 30.3906C61.6341 30.1785 61.3855 30.0062 61.0772 29.8736C60.769 29.741 60.4359 29.625 60.0779 29.5256L58.8251 29.1676C58.0297 28.9389 57.3999 28.6125 56.9359 28.1882C56.4719 27.764 56.2399 27.2088 56.2399 26.5227C56.2399 25.9527 56.394 25.4555 56.7022 25.0312C57.0138 24.6037 57.4314 24.2723 57.9551 24.0369C58.4821 23.7983 59.0704 23.679 59.72 23.679C60.3762 23.679 60.9596 23.7966 61.47 24.032C61.9804 24.264 62.3848 24.5821 62.6831 24.9865C62.9847 25.3909 63.1438 25.8499 63.1603 26.3636H61.9672Z" fill="black"/>
<path d="M152.667 28.5C152.667 27.0272 151.473 25.8333 150 25.8333C148.527 25.8333 147.333 27.0272 147.333 28.5C147.333 29.9728 148.527 31.1667 150 31.1667C151.473 31.1667 152.667 29.9728 152.667 28.5ZM150 28L71 28V29L150 29V28Z" fill="black"/>
<path d="M6.80114 56.3636C6.74148 55.8598 6.49953 55.4688 6.07528 55.1903C5.65104 54.9119 5.13068 54.7727 4.5142 54.7727C4.06345 54.7727 3.66903 54.8456 3.33097 54.9915C2.99621 55.1373 2.73438 55.3378 2.54545 55.593C2.35985 55.8482 2.26705 56.1383 2.26705 56.4631C2.26705 56.7348 2.33168 56.9685 2.46094 57.1641C2.59351 57.3563 2.76255 57.517 2.96804 57.6463C3.17353 57.7723 3.38897 57.8767 3.61435 57.9595C3.83973 58.0391 4.04688 58.1037 4.2358 58.1534L5.26989 58.4318C5.53504 58.5014 5.83002 58.5975 6.15483 58.7202C6.48295 58.8428 6.79616 59.0102 7.09446 59.2223C7.39607 59.4311 7.64465 59.6996 7.8402 60.0277C8.03575 60.3558 8.13352 60.7585 8.13352 61.2358C8.13352 61.786 7.98935 62.2831 7.70099 62.7273C7.41596 63.1714 6.99834 63.5244 6.44815 63.7862C5.90128 64.0481 5.23674 64.179 4.45455 64.179C3.72538 64.179 3.09399 64.0613 2.56037 63.826C2.03007 63.5907 1.61245 63.2625 1.30753 62.8416C1.00592 62.4207 0.835227 61.9318 0.795455 61.375H2.06818C2.10133 61.7595 2.23059 62.0777 2.45597 62.3295C2.68466 62.5781 2.97301 62.7637 3.32102 62.8864C3.67235 63.0057 4.05019 63.0653 4.45455 63.0653C4.92519 63.0653 5.34777 62.9891 5.7223 62.8366C6.09683 62.6809 6.39347 62.4654 6.61222 62.1903C6.83097 61.9119 6.94034 61.5871 6.94034 61.2159C6.94034 60.8778 6.84588 60.6027 6.65696 60.3906C6.46804 60.1785 6.21946 60.0062 5.91122 59.8736C5.60298 59.741 5.26989 59.625 4.91193 59.5256L3.65909 59.1676C2.86364 58.9389 2.2339 58.6125 1.76989 58.1882C1.30587 57.764 1.07386 57.2088 1.07386 56.5227C1.07386 55.9527 1.22798 55.4555 1.53622 55.0312C1.84777 54.6037 2.26539 54.2723 2.78906 54.0369C3.31605 53.7983 3.90436 53.679 4.55398 53.679C5.21023 53.679 5.79356 53.7966 6.30398 54.032C6.81439 54.264 7.21875 54.5821 7.51705 54.9865C7.81866 55.3909 7.97775 55.8499 7.99432 56.3636H6.80114ZM9.60387 54.9119V53.8182H17.2402V54.9119H14.0385V64H12.8056V54.9119H9.60387ZM27.3102 58.9091C27.3102 59.983 27.1163 60.911 26.7285 61.6932C26.3407 62.4754 25.8088 63.0786 25.1326 63.5028C24.4565 63.9271 23.6842 64.1392 22.8159 64.1392C21.9475 64.1392 21.1752 63.9271 20.4991 63.5028C19.823 63.0786 19.291 62.4754 18.9032 61.6932C18.5154 60.911 18.3216 59.983 18.3216 58.9091C18.3216 57.8352 18.5154 56.9072 18.9032 56.125C19.291 55.3428 19.823 54.7396 20.4991 54.3153C21.1752 53.8911 21.9475 53.679 22.8159 53.679C23.6842 53.679 24.4565 53.8911 25.1326 54.3153C25.8088 54.7396 26.3407 55.3428 26.7285 56.125C27.1163 56.9072 27.3102 57.8352 27.3102 58.9091ZM26.117 58.9091C26.117 58.0275 25.9695 57.2834 25.6745 56.6768C25.3829 56.0703 24.9868 55.6113 24.4863 55.2997C23.9892 54.9882 23.4324 54.8324 22.8159 54.8324C22.1994 54.8324 21.6409 54.9882 21.1404 55.2997C20.6433 55.6113 20.2472 56.0703 19.9522 56.6768C19.6606 57.2834 19.5147 58.0275 19.5147 58.9091C19.5147 59.7907 19.6606 60.5348 19.9522 61.1413C20.2472 61.7479 20.6433 62.2069 21.1404 62.5185C21.6409 62.83 22.1994 62.9858 22.8159 62.9858C23.4324 62.9858 23.9892 62.83 24.4863 62.5185C24.9868 62.2069 25.3829 61.7479 25.6745 61.1413C25.9695 60.5348 26.117 59.7907 26.117 58.9091ZM29.3833 64V53.8182H32.8237C33.6191 53.8182 34.2721 53.9541 34.7825 54.2259C35.2929 54.4943 35.6708 54.8639 35.916 55.3345C36.1613 55.8052 36.2839 56.3404 36.2839 56.9403C36.2839 57.5402 36.1613 58.0722 35.916 58.5362C35.6708 59.0002 35.2946 59.3648 34.7875 59.63C34.2804 59.8918 33.6324 60.0227 32.8436 60.0227H30.0595V58.9091H32.8038C33.3474 58.9091 33.7849 58.8295 34.1163 58.6705C34.4511 58.5114 34.693 58.286 34.8422 57.9943C34.9946 57.6993 35.0708 57.348 35.0708 56.9403C35.0708 56.5327 34.9946 56.1764 34.8422 55.8714C34.6897 55.5665 34.4461 55.3312 34.1113 55.1655C33.7766 54.9964 33.3341 54.9119 32.7839 54.9119H30.6163V64H29.3833ZM34.176 59.4261L36.6816 64H35.2498L32.7839 59.4261H34.176ZM37.1216 53.8182H38.5336L41.3574 58.571H41.4767L44.3006 53.8182H45.7125L42.0336 59.804V64H40.8006V59.804L37.1216 53.8182ZM51.2447 53.8182H52.7163L56.1765 62.2699H56.2958L59.756 53.8182H61.2276V64H60.0742V56.2642H59.9748L56.793 64H55.6793L52.4975 56.2642H52.3981V64H51.2447V53.8182ZM64.1174 64H62.8248L66.5634 53.8182H67.8361L71.5748 64H70.2821L67.2395 55.429H67.16L64.1174 64ZM64.5946 60.0227H69.8049V61.1165H64.5946V60.0227ZM73.1607 64V53.8182H76.601C77.3998 53.8182 78.0527 53.9624 78.5598 54.2507C79.0703 54.5357 79.4481 54.9219 79.6934 55.4091C79.9386 55.8963 80.0613 56.4399 80.0613 57.0398C80.0613 57.6397 79.9386 58.1849 79.6934 58.6754C79.4514 59.166 79.0769 59.5571 78.5698 59.8487C78.0627 60.1371 77.4131 60.2812 76.6209 60.2812H74.155V59.1875H76.5811C77.128 59.1875 77.5672 59.093 77.8986 58.9041C78.2301 58.7152 78.4703 58.46 78.6195 58.1385C78.772 57.8137 78.8482 57.4474 78.8482 57.0398C78.8482 56.6321 78.772 56.2675 78.6195 55.946C78.4703 55.6245 78.2284 55.3726 77.8936 55.1903C77.5589 55.0047 77.1148 54.9119 76.5613 54.9119H74.3936V64H73.1607ZM82.0474 64V53.8182H85.4877C86.2865 53.8182 86.9395 53.9624 87.4466 54.2507C87.957 54.5357 88.3348 54.9219 88.5801 55.4091C88.8253 55.8963 88.948 56.4399 88.948 57.0398C88.948 57.6397 88.8253 58.1849 88.5801 58.6754C88.3381 59.166 87.9636 59.5571 87.4565 59.8487C86.9494 60.1371 86.2998 60.2812 85.5076 60.2812H83.0417V59.1875H85.4679C86.0147 59.1875 86.4539 59.093 86.7853 58.9041C87.1168 58.7152 87.3571 58.46 87.5062 58.1385C87.6587 57.8137 87.7349 57.4474 87.7349 57.0398C87.7349 56.6321 87.6587 56.2675 87.5062 55.946C87.3571 55.6245 87.1151 55.3726 86.7804 55.1903C86.4456 55.0047 86.0015 54.9119 85.448 54.9119H83.2804V64H82.0474ZM92.1671 53.8182V64H90.9341V53.8182H92.1671ZM102.713 53.8182V64H101.52L95.9716 56.0057H95.8722V64H94.6392V53.8182H95.8324L101.401 61.8324H101.5V53.8182H102.713ZM112.14 57C112.031 56.6652 111.887 56.3653 111.708 56.1001C111.532 55.8317 111.322 55.603 111.077 55.4141C110.835 55.2251 110.559 55.081 110.251 54.9815C109.943 54.8821 109.605 54.8324 109.237 54.8324C108.634 54.8324 108.085 54.9882 107.591 55.2997C107.098 55.6113 106.705 56.0703 106.413 56.6768C106.122 57.2834 105.976 58.0275 105.976 58.9091C105.976 59.7907 106.123 60.5348 106.418 61.1413C106.713 61.7479 107.113 62.2069 107.616 62.5185C108.12 62.83 108.687 62.9858 109.317 62.9858C109.9 62.9858 110.414 62.8615 110.858 62.6129C111.305 62.361 111.653 62.0064 111.902 61.549C112.154 61.0883 112.28 60.5464 112.28 59.9233L112.657 60.0028H109.595V58.9091H113.473V60.0028C113.473 60.8414 113.294 61.5705 112.936 62.1903C112.581 62.8101 112.091 63.2907 111.464 63.6321C110.841 63.9702 110.125 64.1392 109.317 64.1392C108.415 64.1392 107.623 63.9271 106.94 63.5028C106.261 63.0786 105.73 62.4754 105.349 61.6932C104.971 60.911 104.782 59.983 104.782 58.9091C104.782 58.1037 104.89 57.3795 105.106 56.7365C105.324 56.0902 105.633 55.54 106.03 55.0859C106.428 54.6319 106.899 54.2839 107.442 54.0419C107.986 53.8 108.584 53.679 109.237 53.679C109.774 53.679 110.274 53.7602 110.738 53.9226C111.206 54.0817 111.622 54.3087 111.986 54.6037C112.354 54.8954 112.661 55.245 112.906 55.6527C113.151 56.0571 113.32 56.5062 113.413 57H112.14Z" fill="black"/>
<path d="M152.667 58.5C152.667 57.0272 151.473 55.8333 150 55.8333C148.527 55.8333 147.333 57.0272 147.333 58.5C147.333 59.9728 148.527 61.1667 150 61.1667C151.473 61.1667 152.667 59.9728 152.667 58.5ZM150 58H121V59H150V58Z" fill="black"/>
<path d="M4.375 94H1.23295V83.8182H4.5142C5.50189 83.8182 6.34706 84.022 7.04972 84.4297C7.75237 84.834 8.29096 85.4157 8.66548 86.1747C9.04001 86.9304 9.22727 87.8352 9.22727 88.8892C9.22727 89.9498 9.03835 90.8629 8.66051 91.6286C8.28267 92.3909 7.73248 92.9775 7.00994 93.3885C6.28741 93.7962 5.40909 94 4.375 94ZM2.46591 92.9062H4.29545C5.13731 92.9062 5.83499 92.7438 6.38849 92.419C6.942 92.0942 7.35464 91.6319 7.62642 91.032C7.8982 90.4321 8.03409 89.7178 8.03409 88.8892C8.03409 88.0672 7.89986 87.3596 7.63139 86.7663C7.36293 86.1697 6.96188 85.7124 6.42827 85.3942C5.89465 85.0727 5.23011 84.9119 4.43466 84.9119H2.46591V92.9062ZM11.2955 94V83.8182H17.4403V84.9119H12.5284V88.3523H17.1222V89.446H12.5284V92.9062H17.5199V94H11.2955ZM25.2308 86.3636C25.1712 85.8598 24.9292 85.4688 24.505 85.1903C24.0807 84.9119 23.5604 84.7727 22.9439 84.7727C22.4931 84.7727 22.0987 84.8456 21.7607 84.9915C21.4259 85.1373 21.1641 85.3378 20.9751 85.593C20.7895 85.8482 20.6967 86.1383 20.6967 86.4631C20.6967 86.7348 20.7614 86.9685 20.8906 87.1641C21.0232 87.3563 21.1922 87.517 21.3977 87.6463C21.6032 87.7723 21.8187 87.8767 22.044 87.9595C22.2694 88.0391 22.4766 88.1037 22.6655 88.1534L23.6996 88.4318C23.9647 88.5014 24.2597 88.5975 24.5845 88.7202C24.9126 88.8428 25.2259 89.0102 25.5241 89.2223C25.8258 89.4311 26.0743 89.6996 26.2699 90.0277C26.4654 90.3558 26.5632 90.7585 26.5632 91.2358C26.5632 91.786 26.419 92.2831 26.1307 92.7273C25.8456 93.1714 25.428 93.5244 24.8778 93.7862C24.331 94.0481 23.6664 94.179 22.8842 94.179C22.1551 94.179 21.5237 94.0613 20.9901 93.826C20.4598 93.5907 20.0421 93.2625 19.7372 92.8416C19.4356 92.4207 19.2649 91.9318 19.2251 91.375H20.4979C20.531 91.7595 20.6603 92.0777 20.8857 92.3295C21.1143 92.5781 21.4027 92.7637 21.7507 92.8864C22.102 93.0057 22.4799 93.0653 22.8842 93.0653C23.3549 93.0653 23.7775 92.9891 24.152 92.8366C24.5265 92.6809 24.8232 92.4654 25.0419 92.1903C25.2607 91.9119 25.37 91.5871 25.37 91.2159C25.37 90.8778 25.2756 90.6027 25.0866 90.3906C24.8977 90.1785 24.6491 90.0062 24.3409 89.8736C24.0327 89.741 23.6996 89.625 23.3416 89.5256L22.0888 89.1676C21.2933 88.9389 20.6636 88.6125 20.1996 88.1882C19.7356 87.764 19.5036 87.2088 19.5036 86.5227C19.5036 85.9527 19.6577 85.4555 19.9659 85.0312C20.2775 84.6037 20.6951 84.2723 21.2188 84.0369C21.7457 83.7983 22.334 83.679 22.9837 83.679C23.6399 83.679 24.2232 83.7966 24.7337 84.032C25.2441 84.264 25.6484 84.5821 25.9467 84.9865C26.2483 85.3909 26.4074 85.8499 26.424 86.3636H25.2308ZM29.8233 83.8182V94H28.5904V83.8182H29.8233ZM39.2557 87C39.1463 86.6652 39.0021 86.3653 38.8232 86.1001C38.6475 85.8317 38.437 85.603 38.1918 85.4141C37.9498 85.2251 37.6747 85.081 37.3665 84.9815C37.0582 84.8821 36.7202 84.8324 36.3523 84.8324C35.7491 84.8324 35.2005 84.9882 34.7067 85.2997C34.2128 85.6113 33.8201 86.0703 33.5284 86.6768C33.2367 87.2834 33.0909 88.0275 33.0909 88.9091C33.0909 89.7907 33.2384 90.5348 33.5334 91.1413C33.8284 91.7479 34.2277 92.2069 34.7315 92.5185C35.2353 92.83 35.8021 92.9858 36.4318 92.9858C37.0152 92.9858 37.5289 92.8615 37.973 92.6129C38.4205 92.361 38.7685 92.0064 39.017 91.549C39.2689 91.0883 39.3949 90.5464 39.3949 89.9233L39.7727 90.0028H36.7102V88.9091H40.5881V90.0028C40.5881 90.8414 40.4091 91.5705 40.0511 92.1903C39.6965 92.8101 39.206 93.2907 38.5795 93.6321C37.9564 93.9702 37.2405 94.1392 36.4318 94.1392C35.5303 94.1392 34.7382 93.9271 34.0554 93.5028C33.3759 93.0786 32.8456 92.4754 32.4645 91.6932C32.0866 90.911 31.8977 89.983 31.8977 88.9091C31.8977 88.1037 32.0054 87.3795 32.2209 86.7365C32.4396 86.0902 32.7479 85.54 33.1456 85.0859C33.5433 84.6319 34.014 84.2839 34.5575 84.0419C35.1011 83.8 35.6993 83.679 36.3523 83.679C36.8892 83.679 37.3897 83.7602 37.8537 83.9226C38.321 84.0817 38.737 84.3087 39.1016 84.6037C39.4695 84.8954 39.776 85.245 40.0213 85.6527C40.2666 86.0571 40.4356 86.5062 40.5284 87H39.2557ZM50.7736 83.8182V94H49.5804L44.0321 86.0057H43.9327V94H42.6998V83.8182H43.8929L49.4611 91.8324H49.5605V83.8182H50.7736Z" fill="black"/>
<path d="M152.667 88.5C152.667 87.0272 151.473 85.8333 150 85.8333C148.527 85.8333 147.333 87.0272 147.333 88.5C147.333 89.9728 148.527 91.1667 150 91.1667C151.473 91.1667 152.667 89.9728 152.667 88.5ZM150 88L59 88V89L150 89V88Z" fill="black"/>
<path d="M2.46591 113.818V124H1.23295V113.818H2.46591ZM4.38121 114.912V113.818H12.0176V114.912H8.81587V124H7.58292V114.912H4.38121ZM13.9205 124V113.818H20.0653V114.912H15.1534V118.352H19.7472V119.446H15.1534V122.906H20.1449V124H13.9205ZM22.2876 124V113.818H25.728C26.5234 113.818 27.1764 113.954 27.6868 114.226C28.1972 114.494 28.575 114.864 28.8203 115.335C29.0656 115.805 29.1882 116.34 29.1882 116.94C29.1882 117.54 29.0656 118.072 28.8203 118.536C28.575 119 28.1989 119.365 27.6918 119.63C27.1847 119.892 26.5367 120.023 25.7479 120.023H22.9638V118.909H25.7081C26.2517 118.909 26.6892 118.83 27.0206 118.67C27.3554 118.511 27.5973 118.286 27.7464 117.994C27.8989 117.699 27.9751 117.348 27.9751 116.94C27.9751 116.533 27.8989 116.176 27.7464 115.871C27.594 115.567 27.3504 115.331 27.0156 115.165C26.6809 114.996 26.2384 114.912 25.6882 114.912H23.5206V124H22.2876ZM27.0803 119.426L29.5859 124H28.1541L25.6882 119.426H27.0803ZM31.6603 124H30.3677L34.1064 113.818H35.3791L39.1177 124H37.8251L34.7825 115.429H34.7029L31.6603 124ZM32.1376 120.023H37.3478V121.116H32.1376V120.023ZM38.9574 114.912V113.818H46.5938V114.912H43.392V124H42.1591V114.912H38.9574ZM48.4966 124V113.818H54.6415V114.912H49.7296V118.352H54.3233V119.446H49.7296V122.906H54.7211V124H48.4966Z" fill="black"/>
<path d="M152.667 118.5C152.667 117.027 151.473 115.833 150 115.833C148.527 115.833 147.333 117.027 147.333 118.5C147.333 119.973 148.527 121.167 150 121.167C151.473 121.167 152.667 119.973 152.667 118.5ZM150 118L62 118V119L150 119V118Z" fill="black"/>
<path d="M136.104 5.67188C136.064 5.29972 135.896 5.00994 135.601 4.80256C135.308 4.59517 134.928 4.49148 134.459 4.49148C134.129 4.49148 133.847 4.54119 133.611 4.64062C133.375 4.74006 133.195 4.875 133.07 5.04545C132.945 5.21591 132.881 5.41051 132.878 5.62926C132.878 5.81108 132.919 5.96875 133.001 6.10227C133.087 6.2358 133.202 6.34943 133.347 6.44318C133.491 6.53409 133.652 6.6108 133.828 6.6733C134.004 6.7358 134.182 6.78835 134.361 6.83097L135.179 7.03551C135.509 7.11222 135.825 7.21591 136.129 7.34659C136.436 7.47727 136.71 7.64205 136.952 7.84091C137.196 8.03977 137.389 8.27983 137.531 8.56108C137.673 8.84233 137.744 9.17187 137.744 9.54972C137.744 10.0611 137.614 10.5114 137.352 10.9006C137.091 11.2869 136.713 11.5895 136.219 11.8082C135.727 12.0241 135.132 12.1321 134.433 12.1321C133.754 12.1321 133.165 12.027 132.665 11.8168C132.168 11.6065 131.778 11.2997 131.497 10.8963C131.219 10.4929 131.068 10.0014 131.045 9.42188H132.601C132.624 9.72585 132.717 9.97869 132.882 10.1804C133.047 10.3821 133.261 10.5327 133.526 10.6321C133.793 10.7315 134.091 10.7812 134.42 10.7812C134.764 10.7812 135.065 10.7301 135.324 10.6278C135.585 10.5227 135.79 10.3778 135.938 10.1932C136.085 10.0057 136.161 9.78693 136.163 9.53693C136.161 9.30966 136.094 9.12216 135.963 8.97443C135.832 8.82386 135.649 8.69886 135.413 8.59943C135.18 8.49716 134.908 8.40625 134.595 8.3267L133.602 8.07102C132.884 7.88636 132.315 7.60653 131.898 7.23153C131.483 6.85369 131.276 6.35227 131.276 5.72727C131.276 5.21307 131.415 4.76278 131.693 4.37642C131.974 3.99006 132.357 3.69034 132.839 3.47727C133.322 3.26136 133.869 3.15341 134.48 3.15341C135.099 3.15341 135.642 3.26136 136.108 3.47727C136.577 3.69034 136.945 3.98722 137.212 4.3679C137.479 4.74574 137.616 5.1804 137.625 5.67188H136.104ZM138.77 4.59801V3.27273H145.733V4.59801H143.036V12H141.468V4.59801H138.77ZM147.142 12H145.454L148.527 3.27273H150.478L153.555 12H151.868L149.537 5.0625H149.468L147.142 12ZM147.197 8.57812H151.799V9.84801H147.197V8.57812ZM154.705 12V3.27273H157.977C158.648 3.27273 159.21 3.3892 159.665 3.62216C160.122 3.85511 160.467 4.18182 160.7 4.60227C160.936 5.01989 161.054 5.5071 161.054 6.06392C161.054 6.62358 160.935 7.10937 160.696 7.52131C160.46 7.9304 160.112 8.24716 159.652 8.47159C159.192 8.69318 158.626 8.80398 157.956 8.80398H155.625V7.49148H157.743C158.135 7.49148 158.456 7.4375 158.706 7.32955C158.956 7.21875 159.141 7.05824 159.26 6.84801C159.382 6.63494 159.443 6.37358 159.443 6.06392C159.443 5.75426 159.382 5.49006 159.26 5.27131C159.138 5.04972 158.952 4.8821 158.702 4.76847C158.452 4.65199 158.129 4.59375 157.734 4.59375H156.286V12H154.705ZM159.213 8.04545L161.374 12H159.609L157.487 8.04545H159.213ZM162.126 4.59801V3.27273H169.089V4.59801H166.391V12H164.823V4.59801H162.126Z" fill="black"/>
<path d="M138.361 159V150.273H144.037V151.598H139.942V153.967H143.743V155.293H139.942V157.675H144.071V159H138.361ZM152.822 150.273V159H151.415L147.303 153.055H147.231V159H145.65V150.273H147.065L151.173 156.222H151.249V150.273H152.822ZM157.502 159H154.544V150.273H157.561C158.428 150.273 159.172 150.447 159.794 150.797C160.419 151.143 160.9 151.642 161.235 152.293C161.57 152.943 161.738 153.722 161.738 154.628C161.738 155.537 161.569 156.318 161.23 156.972C160.895 157.625 160.411 158.126 159.777 158.476C159.147 158.825 158.388 159 157.502 159ZM156.125 157.632H157.425C158.033 157.632 158.54 157.521 158.946 157.3C159.353 157.075 159.658 156.741 159.863 156.298C160.067 155.852 160.169 155.295 160.169 154.628C160.169 153.96 160.067 153.406 159.863 152.966C159.658 152.523 159.355 152.192 158.955 151.973C158.557 151.751 158.063 151.641 157.472 151.641H156.125V157.632Z" fill="black"/>
</svg>
